<mxfile host="Electron" modified="2023-05-02T02:07:38.014Z" agent="Mozilla/5.0 (Windows NT 10.0; Win64; x64) AppleWebKit/537.36 (KHTML, like Gecko) draw.io/21.2.1 Chrome/112.0.5615.87 Electron/24.1.2 Safari/537.36" etag="_CGq4jwlWqtfp3Yk5h7c" version="21.2.1" type="device">
  <diagram id="C5RBs43oDa-KdzZeNtuy" name="Page-1">
    <mxGraphModel dx="2678" dy="1772" grid="1" gridSize="10" guides="1" tooltips="1" connect="1" arrows="1" fold="1" page="1" pageScale="1" pageWidth="827" pageHeight="1169" math="0" shadow="0">
      <root>
        <mxCell id="WIyWlLk6GJQsqaUBKTNV-0" />
        <mxCell id="WIyWlLk6GJQsqaUBKTNV-1" parent="WIyWlLk6GJQsqaUBKTNV-0" />
        <mxCell id="zMHJegEWsXh8E0n9ZEiD-0" style="edgeStyle=orthogonalEdgeStyle;rounded=0;orthogonalLoop=1;jettySize=auto;html=1;" edge="1" parent="WIyWlLk6GJQsqaUBKTNV-1" source="zMHJegEWsXh8E0n9ZEiD-82" target="zMHJegEWsXh8E0n9ZEiD-71">
          <mxGeometry relative="1" as="geometry" />
        </mxCell>
        <mxCell id="zMHJegEWsXh8E0n9ZEiD-1" value="SMT" style="swimlane;" vertex="1" parent="WIyWlLk6GJQsqaUBKTNV-1">
          <mxGeometry x="-730" y="757" width="1070" height="205" as="geometry">
            <mxRectangle x="-1300" y="225" width="70" height="30" as="alternateBounds" />
          </mxGeometry>
        </mxCell>
        <mxCell id="zMHJegEWsXh8E0n9ZEiD-2" value="" style="edgeStyle=orthogonalEdgeStyle;rounded=0;orthogonalLoop=1;jettySize=auto;html=1;" edge="1" parent="zMHJegEWsXh8E0n9ZEiD-1">
          <mxGeometry relative="1" as="geometry">
            <mxPoint x="115" y="85" as="sourcePoint" />
          </mxGeometry>
        </mxCell>
        <mxCell id="zMHJegEWsXh8E0n9ZEiD-3" value="" style="edgeStyle=orthogonalEdgeStyle;rounded=0;orthogonalLoop=1;jettySize=auto;html=1;" edge="1" parent="zMHJegEWsXh8E0n9ZEiD-1">
          <mxGeometry relative="1" as="geometry">
            <mxPoint x="295" y="85" as="sourcePoint" />
          </mxGeometry>
        </mxCell>
        <mxCell id="zMHJegEWsXh8E0n9ZEiD-4" value="" style="edgeStyle=orthogonalEdgeStyle;rounded=0;orthogonalLoop=1;jettySize=auto;html=1;" edge="1" parent="zMHJegEWsXh8E0n9ZEiD-1">
          <mxGeometry relative="1" as="geometry">
            <mxPoint x="475" y="85" as="sourcePoint" />
          </mxGeometry>
        </mxCell>
        <mxCell id="zMHJegEWsXh8E0n9ZEiD-5" value="" style="group" vertex="1" connectable="0" parent="zMHJegEWsXh8E0n9ZEiD-1">
          <mxGeometry x="920" y="55" width="120" height="100" as="geometry" />
        </mxCell>
        <mxCell id="zMHJegEWsXh8E0n9ZEiD-6" value="5DX" style="rounded=1;whiteSpace=wrap;html=1;absoluteArcSize=1;arcSize=14;strokeWidth=2;" vertex="1" parent="zMHJegEWsXh8E0n9ZEiD-5">
          <mxGeometry width="100" height="60" as="geometry" />
        </mxCell>
        <mxCell id="zMHJegEWsXh8E0n9ZEiD-7" value="&lt;ul&gt;&lt;li&gt;&lt;font color=&quot;#666666&quot;&gt;For&amp;nbsp;&lt;/font&gt;CM&lt;/li&gt;&lt;/ul&gt;" style="shape=note;whiteSpace=wrap;html=1;backgroundOutline=1;darkOpacity=0.05;fontSize=10;align=left;fontFamily=Tahoma;size=15;" vertex="1" parent="zMHJegEWsXh8E0n9ZEiD-5">
          <mxGeometry y="60" width="120" height="40" as="geometry" />
        </mxCell>
        <mxCell id="zMHJegEWsXh8E0n9ZEiD-8" value="AOI" style="rounded=1;whiteSpace=wrap;html=1;absoluteArcSize=1;arcSize=14;strokeWidth=2;" vertex="1" parent="zMHJegEWsXh8E0n9ZEiD-1">
          <mxGeometry x="740" y="55" width="100" height="60" as="geometry" />
        </mxCell>
        <mxCell id="zMHJegEWsXh8E0n9ZEiD-9" value="Reflow" style="rounded=1;whiteSpace=wrap;html=1;absoluteArcSize=1;arcSize=14;strokeWidth=2;" vertex="1" parent="zMHJegEWsXh8E0n9ZEiD-1">
          <mxGeometry x="560" y="55" width="100" height="60" as="geometry" />
        </mxCell>
        <mxCell id="zMHJegEWsXh8E0n9ZEiD-10" value="P&amp;amp;P" style="rounded=1;whiteSpace=wrap;html=1;absoluteArcSize=1;arcSize=14;strokeWidth=2;" vertex="1" parent="zMHJegEWsXh8E0n9ZEiD-1">
          <mxGeometry x="380" y="55" width="100" height="60" as="geometry" />
        </mxCell>
        <mxCell id="zMHJegEWsXh8E0n9ZEiD-11" value="SPI" style="rounded=1;whiteSpace=wrap;html=1;absoluteArcSize=1;arcSize=14;strokeWidth=2;" vertex="1" parent="zMHJegEWsXh8E0n9ZEiD-1">
          <mxGeometry x="200" y="55" width="100" height="60" as="geometry" />
        </mxCell>
        <mxCell id="zMHJegEWsXh8E0n9ZEiD-12" value="Printer" style="rounded=1;whiteSpace=wrap;html=1;absoluteArcSize=1;arcSize=14;strokeWidth=2;" vertex="1" parent="zMHJegEWsXh8E0n9ZEiD-1">
          <mxGeometry x="20" y="55" width="100" height="60" as="geometry" />
        </mxCell>
        <mxCell id="zMHJegEWsXh8E0n9ZEiD-13" style="edgeStyle=orthogonalEdgeStyle;rounded=0;orthogonalLoop=1;jettySize=auto;html=1;fontFamily=Tahoma;fontSize=10;" edge="1" parent="zMHJegEWsXh8E0n9ZEiD-1" source="zMHJegEWsXh8E0n9ZEiD-8" target="zMHJegEWsXh8E0n9ZEiD-6">
          <mxGeometry relative="1" as="geometry" />
        </mxCell>
        <mxCell id="zMHJegEWsXh8E0n9ZEiD-14" value="" style="edgeStyle=orthogonalEdgeStyle;rounded=0;orthogonalLoop=1;jettySize=auto;html=1;fontFamily=Tahoma;fontSize=10;" edge="1" parent="zMHJegEWsXh8E0n9ZEiD-1" source="zMHJegEWsXh8E0n9ZEiD-9" target="zMHJegEWsXh8E0n9ZEiD-8">
          <mxGeometry relative="1" as="geometry" />
        </mxCell>
        <mxCell id="zMHJegEWsXh8E0n9ZEiD-15" value="" style="edgeStyle=orthogonalEdgeStyle;rounded=0;orthogonalLoop=1;jettySize=auto;html=1;fontFamily=Tahoma;fontSize=10;" edge="1" parent="zMHJegEWsXh8E0n9ZEiD-1" source="zMHJegEWsXh8E0n9ZEiD-10" target="zMHJegEWsXh8E0n9ZEiD-9">
          <mxGeometry relative="1" as="geometry" />
        </mxCell>
        <mxCell id="zMHJegEWsXh8E0n9ZEiD-16" value="" style="edgeStyle=orthogonalEdgeStyle;rounded=0;orthogonalLoop=1;jettySize=auto;html=1;fontFamily=Tahoma;fontSize=10;" edge="1" parent="zMHJegEWsXh8E0n9ZEiD-1" source="zMHJegEWsXh8E0n9ZEiD-11" target="zMHJegEWsXh8E0n9ZEiD-10">
          <mxGeometry relative="1" as="geometry" />
        </mxCell>
        <mxCell id="zMHJegEWsXh8E0n9ZEiD-17" value="" style="edgeStyle=orthogonalEdgeStyle;rounded=0;orthogonalLoop=1;jettySize=auto;html=1;fontFamily=Tahoma;fontSize=10;" edge="1" parent="zMHJegEWsXh8E0n9ZEiD-1" source="zMHJegEWsXh8E0n9ZEiD-12" target="zMHJegEWsXh8E0n9ZEiD-11">
          <mxGeometry relative="1" as="geometry" />
        </mxCell>
        <mxCell id="zMHJegEWsXh8E0n9ZEiD-18" value="Depanel" style="swimlane;" vertex="1" parent="WIyWlLk6GJQsqaUBKTNV-1">
          <mxGeometry x="389" y="757" width="710" height="205" as="geometry">
            <mxRectangle x="-180" y="225" width="90" height="30" as="alternateBounds" />
          </mxGeometry>
        </mxCell>
        <mxCell id="zMHJegEWsXh8E0n9ZEiD-19" value="" style="edgeStyle=orthogonalEdgeStyle;rounded=0;orthogonalLoop=1;jettySize=auto;html=1;" edge="1" parent="zMHJegEWsXh8E0n9ZEiD-18" source="zMHJegEWsXh8E0n9ZEiD-27" target="zMHJegEWsXh8E0n9ZEiD-21">
          <mxGeometry relative="1" as="geometry" />
        </mxCell>
        <mxCell id="zMHJegEWsXh8E0n9ZEiD-20" value="" style="edgeStyle=orthogonalEdgeStyle;rounded=0;orthogonalLoop=1;jettySize=auto;html=1;" edge="1" parent="zMHJegEWsXh8E0n9ZEiD-18" source="zMHJegEWsXh8E0n9ZEiD-21" target="zMHJegEWsXh8E0n9ZEiD-23">
          <mxGeometry relative="1" as="geometry" />
        </mxCell>
        <mxCell id="zMHJegEWsXh8E0n9ZEiD-21" value="Laser" style="rounded=1;whiteSpace=wrap;html=1;absoluteArcSize=1;arcSize=14;strokeWidth=2;" vertex="1" parent="zMHJegEWsXh8E0n9ZEiD-18">
          <mxGeometry x="215" y="55" width="100" height="60" as="geometry" />
        </mxCell>
        <mxCell id="zMHJegEWsXh8E0n9ZEiD-22" value="" style="edgeStyle=orthogonalEdgeStyle;rounded=0;orthogonalLoop=1;jettySize=auto;html=1;" edge="1" parent="zMHJegEWsXh8E0n9ZEiD-18" source="zMHJegEWsXh8E0n9ZEiD-23" target="zMHJegEWsXh8E0n9ZEiD-24">
          <mxGeometry relative="1" as="geometry" />
        </mxCell>
        <mxCell id="zMHJegEWsXh8E0n9ZEiD-23" value="Router" style="rounded=1;whiteSpace=wrap;html=1;absoluteArcSize=1;arcSize=14;strokeWidth=2;" vertex="1" parent="zMHJegEWsXh8E0n9ZEiD-18">
          <mxGeometry x="351" y="55" width="100" height="60" as="geometry" />
        </mxCell>
        <mxCell id="zMHJegEWsXh8E0n9ZEiD-24" value="Binner" style="rounded=1;whiteSpace=wrap;html=1;absoluteArcSize=1;arcSize=14;strokeWidth=2;" vertex="1" parent="zMHJegEWsXh8E0n9ZEiD-18">
          <mxGeometry x="491" y="55" width="100" height="60" as="geometry" />
        </mxCell>
        <mxCell id="zMHJegEWsXh8E0n9ZEiD-25" value="" style="group" vertex="1" connectable="0" parent="zMHJegEWsXh8E0n9ZEiD-18">
          <mxGeometry x="35" y="55" width="210" height="160" as="geometry" />
        </mxCell>
        <mxCell id="zMHJegEWsXh8E0n9ZEiD-26" value="" style="group" vertex="1" connectable="0" parent="zMHJegEWsXh8E0n9ZEiD-25">
          <mxGeometry width="210" height="120" as="geometry" />
        </mxCell>
        <mxCell id="zMHJegEWsXh8E0n9ZEiD-27" value="Labeling" style="rounded=1;whiteSpace=wrap;html=1;absoluteArcSize=1;arcSize=14;strokeWidth=2;" vertex="1" parent="zMHJegEWsXh8E0n9ZEiD-26">
          <mxGeometry width="100" height="60" as="geometry" />
        </mxCell>
        <mxCell id="zMHJegEWsXh8E0n9ZEiD-28" value="&lt;ul&gt;&lt;li&gt;&lt;span style=&quot;color: rgb(102 , 102 , 102)&quot;&gt;SNG (Serial Number Generator)&lt;/span&gt;&lt;/li&gt;&lt;ul&gt;&lt;li&gt;&lt;span style=&quot;color: rgb(102 , 102 , 102)&quot;&gt;Generate board Id&lt;/span&gt;&lt;/li&gt;&lt;li&gt;&lt;span style=&quot;color: rgb(102 , 102 , 102)&quot;&gt;Related to PanelId and WO&lt;/span&gt;&lt;/li&gt;&lt;/ul&gt;&lt;/ul&gt;&lt;font style=&quot;color: rgb(102 , 102 , 102)&quot;&gt;&lt;/font&gt;" style="shape=note;whiteSpace=wrap;html=1;backgroundOutline=1;darkOpacity=0.05;fontSize=10;align=left;fontFamily=Tahoma;size=15;" vertex="1" parent="zMHJegEWsXh8E0n9ZEiD-26">
          <mxGeometry y="60" width="210" height="60" as="geometry" />
        </mxCell>
        <mxCell id="zMHJegEWsXh8E0n9ZEiD-29" value="Module" style="edgeStyle=orthogonalEdgeStyle;rounded=0;orthogonalLoop=1;jettySize=auto;html=1;entryX=0;entryY=0.5;entryDx=0;entryDy=0;" edge="1" parent="WIyWlLk6GJQsqaUBKTNV-1" source="zMHJegEWsXh8E0n9ZEiD-24" target="zMHJegEWsXh8E0n9ZEiD-123">
          <mxGeometry x="0.4701" relative="1" as="geometry">
            <mxPoint as="offset" />
          </mxGeometry>
        </mxCell>
        <mxCell id="zMHJegEWsXh8E0n9ZEiD-30" value="" style="edgeStyle=orthogonalEdgeStyle;rounded=0;orthogonalLoop=1;jettySize=auto;html=1;fontFamily=Tahoma;fontSize=10;entryX=0;entryY=0.5;entryDx=0;entryDy=0;" edge="1" parent="WIyWlLk6GJQsqaUBKTNV-1" source="zMHJegEWsXh8E0n9ZEiD-143" target="zMHJegEWsXh8E0n9ZEiD-37">
          <mxGeometry relative="1" as="geometry">
            <mxPoint x="3330" y="665" as="targetPoint" />
          </mxGeometry>
        </mxCell>
        <mxCell id="zMHJegEWsXh8E0n9ZEiD-31" style="edgeStyle=orthogonalEdgeStyle;rounded=0;orthogonalLoop=1;jettySize=auto;html=1;fontFamily=Tahoma;fontSize=10;" edge="1" parent="WIyWlLk6GJQsqaUBKTNV-1" source="zMHJegEWsXh8E0n9ZEiD-6" target="zMHJegEWsXh8E0n9ZEiD-27">
          <mxGeometry relative="1" as="geometry" />
        </mxCell>
        <mxCell id="zMHJegEWsXh8E0n9ZEiD-32" value="Flash" style="edgeStyle=orthogonalEdgeStyle;rounded=0;orthogonalLoop=1;jettySize=auto;html=1;fontFamily=Tahoma;fontSize=10;entryX=0;entryY=0.5;entryDx=0;entryDy=0;" edge="1" parent="WIyWlLk6GJQsqaUBKTNV-1" source="zMHJegEWsXh8E0n9ZEiD-24" target="zMHJegEWsXh8E0n9ZEiD-159">
          <mxGeometry relative="1" as="geometry" />
        </mxCell>
        <mxCell id="zMHJegEWsXh8E0n9ZEiD-33" style="edgeStyle=orthogonalEdgeStyle;rounded=0;orthogonalLoop=1;jettySize=auto;html=1;fontFamily=Tahoma;fontSize=10;entryX=0;entryY=0.5;entryDx=0;entryDy=0;" edge="1" parent="WIyWlLk6GJQsqaUBKTNV-1" source="zMHJegEWsXh8E0n9ZEiD-167" target="zMHJegEWsXh8E0n9ZEiD-42">
          <mxGeometry relative="1" as="geometry">
            <mxPoint x="3200" y="1075" as="targetPoint" />
          </mxGeometry>
        </mxCell>
        <mxCell id="zMHJegEWsXh8E0n9ZEiD-34" value="Packing" style="swimlane;fontFamily=Tahoma;fontSize=10;" vertex="1" parent="WIyWlLk6GJQsqaUBKTNV-1">
          <mxGeometry x="5075" y="835" width="395" height="425" as="geometry">
            <mxRectangle x="2465" y="100" width="80" height="30" as="alternateBounds" />
          </mxGeometry>
        </mxCell>
        <mxCell id="zMHJegEWsXh8E0n9ZEiD-35" style="edgeStyle=orthogonalEdgeStyle;rounded=0;orthogonalLoop=1;jettySize=auto;html=1;fontFamily=Tahoma;fontSize=10;" edge="1" parent="zMHJegEWsXh8E0n9ZEiD-34" source="zMHJegEWsXh8E0n9ZEiD-42" target="zMHJegEWsXh8E0n9ZEiD-37">
          <mxGeometry relative="1" as="geometry" />
        </mxCell>
        <mxCell id="zMHJegEWsXh8E0n9ZEiD-36" style="edgeStyle=orthogonalEdgeStyle;rounded=0;orthogonalLoop=1;jettySize=auto;html=1;fontFamily=Tahoma;fontSize=10;" edge="1" parent="zMHJegEWsXh8E0n9ZEiD-34" source="zMHJegEWsXh8E0n9ZEiD-37" target="zMHJegEWsXh8E0n9ZEiD-39">
          <mxGeometry relative="1" as="geometry" />
        </mxCell>
        <mxCell id="zMHJegEWsXh8E0n9ZEiD-37" value="Packing" style="rounded=1;whiteSpace=wrap;html=1;absoluteArcSize=1;arcSize=14;strokeWidth=2;" vertex="1" parent="zMHJegEWsXh8E0n9ZEiD-34">
          <mxGeometry x="60" y="60" width="100" height="60" as="geometry" />
        </mxCell>
        <mxCell id="zMHJegEWsXh8E0n9ZEiD-38" value="" style="group" vertex="1" connectable="0" parent="zMHJegEWsXh8E0n9ZEiD-34">
          <mxGeometry x="230" y="60" width="143" height="95" as="geometry" />
        </mxCell>
        <mxCell id="zMHJegEWsXh8E0n9ZEiD-39" value="QA Gate" style="rounded=1;whiteSpace=wrap;html=1;absoluteArcSize=1;arcSize=14;strokeWidth=2;" vertex="1" parent="zMHJegEWsXh8E0n9ZEiD-38">
          <mxGeometry width="100" height="60" as="geometry" />
        </mxCell>
        <mxCell id="zMHJegEWsXh8E0n9ZEiD-40" value="&lt;ul&gt;&lt;li&gt;&lt;font color=&quot;#666666&quot;&gt;Check SKU、Qty&lt;/font&gt;&lt;/li&gt;&lt;/ul&gt;" style="shape=note;whiteSpace=wrap;html=1;backgroundOutline=1;darkOpacity=0.05;fontSize=10;align=left;fontFamily=Tahoma;size=10;" vertex="1" parent="zMHJegEWsXh8E0n9ZEiD-38">
          <mxGeometry y="60" width="143" height="35" as="geometry" />
        </mxCell>
        <mxCell id="zMHJegEWsXh8E0n9ZEiD-41" value="" style="group" vertex="1" connectable="0" parent="zMHJegEWsXh8E0n9ZEiD-34">
          <mxGeometry x="60" y="210" width="143" height="110" as="geometry" />
        </mxCell>
        <mxCell id="zMHJegEWsXh8E0n9ZEiD-42" value="Insert Labeling" style="rounded=1;whiteSpace=wrap;html=1;absoluteArcSize=1;arcSize=14;strokeWidth=2;" vertex="1" parent="zMHJegEWsXh8E0n9ZEiD-41">
          <mxGeometry width="100" height="60" as="geometry" />
        </mxCell>
        <mxCell id="zMHJegEWsXh8E0n9ZEiD-43" value="&lt;ul&gt;&lt;li&gt;&lt;font color=&quot;#666666&quot;&gt;Print packing card&lt;/font&gt;&lt;/li&gt;&lt;ul&gt;&lt;li&gt;&lt;font color=&quot;#666666&quot;&gt;Capacity&lt;/font&gt;&lt;/li&gt;&lt;li&gt;&lt;font color=&quot;#666666&quot;&gt;Instructions&lt;/font&gt;&lt;/li&gt;&lt;/ul&gt;&lt;/ul&gt;" style="shape=note;whiteSpace=wrap;html=1;backgroundOutline=1;darkOpacity=0.05;fontSize=10;align=left;fontFamily=Tahoma;size=10;" vertex="1" parent="zMHJegEWsXh8E0n9ZEiD-41">
          <mxGeometry y="60" width="143" height="50" as="geometry" />
        </mxCell>
        <UserObject label="📷 Insert Labeling" link="https://kingstontechnology.sharepoint.com/:i:/s/MES/EVE1nsv-Ql9FlDd87CsDd3gBGTJT8jPSyQiWJUY9vH6tsA?e=fbyTSV" linkTarget="_blank" id="zMHJegEWsXh8E0n9ZEiD-44">
          <mxCell style="dashed=0;html=1;fillColor=#F0F2F5;strokeColor=none;align=left;rounded=1;arcSize=10;fontColor=#3384FF;fontStyle=1;fontSize=11;shadow=0" vertex="1" parent="zMHJegEWsXh8E0n9ZEiD-34">
            <mxGeometry x="60" y="320" width="110" height="20" as="geometry" />
          </mxCell>
        </UserObject>
        <UserObject label="📷 Card Labeling" link="https://kingstontechnology.sharepoint.com/:i:/s/MES/ESWv8iQK7ItHhcrpcPxXsf0BYZJMcigh2ar_buMinCpwWA?e=tZMBxn" linkTarget="_blank" id="zMHJegEWsXh8E0n9ZEiD-45">
          <mxCell style="dashed=0;html=1;fillColor=#F0F2F5;strokeColor=none;align=left;rounded=1;arcSize=10;fontColor=#3384FF;fontStyle=1;fontSize=11;shadow=0" vertex="1" parent="zMHJegEWsXh8E0n9ZEiD-34">
            <mxGeometry x="60" y="340" width="110" height="20" as="geometry" />
          </mxCell>
        </UserObject>
        <UserObject label="📷 Card Printing" link="https://kingstontechnology.sharepoint.com/:i:/s/MES/EWJpByPACx9IugabhGl2_voBioEDdtW9xEDoFvgqHnjbeA?e=hPHJW6" linkTarget="_blank" id="zMHJegEWsXh8E0n9ZEiD-46">
          <mxCell style="dashed=0;html=1;fillColor=#F0F2F5;strokeColor=none;align=left;rounded=1;arcSize=10;fontColor=#3384FF;fontStyle=1;fontSize=11;shadow=0" vertex="1" parent="zMHJegEWsXh8E0n9ZEiD-34">
            <mxGeometry x="60" y="360" width="110" height="20" as="geometry" />
          </mxCell>
        </UserObject>
        <mxCell id="zMHJegEWsXh8E0n9ZEiD-47" value="" style="edgeStyle=orthogonalEdgeStyle;rounded=0;orthogonalLoop=1;jettySize=auto;html=1;fontFamily=Tahoma;fontSize=10;startArrow=none;" edge="1" parent="WIyWlLk6GJQsqaUBKTNV-1" source="zMHJegEWsXh8E0n9ZEiD-79" target="zMHJegEWsXh8E0n9ZEiD-54">
          <mxGeometry relative="1" as="geometry">
            <mxPoint x="3150" y="-40" as="targetPoint" />
            <mxPoint x="3513.5" y="335.521739130435" as="sourcePoint" />
          </mxGeometry>
        </mxCell>
        <mxCell id="zMHJegEWsXh8E0n9ZEiD-48" style="edgeStyle=orthogonalEdgeStyle;rounded=0;orthogonalLoop=1;jettySize=auto;html=1;fontFamily=Tahoma;fontSize=10;startArrow=none;" edge="1" parent="WIyWlLk6GJQsqaUBKTNV-1" source="zMHJegEWsXh8E0n9ZEiD-85" target="zMHJegEWsXh8E0n9ZEiD-56">
          <mxGeometry relative="1" as="geometry" />
        </mxCell>
        <mxCell id="zMHJegEWsXh8E0n9ZEiD-49" style="edgeStyle=orthogonalEdgeStyle;rounded=0;orthogonalLoop=1;jettySize=auto;html=1;startArrow=none;" edge="1" parent="WIyWlLk6GJQsqaUBKTNV-1" source="zMHJegEWsXh8E0n9ZEiD-88" target="zMHJegEWsXh8E0n9ZEiD-116">
          <mxGeometry relative="1" as="geometry">
            <mxPoint x="-285.0000000000002" y="489.9999999999998" as="sourcePoint" />
          </mxGeometry>
        </mxCell>
        <mxCell id="zMHJegEWsXh8E0n9ZEiD-50" style="edgeStyle=orthogonalEdgeStyle;rounded=0;orthogonalLoop=1;jettySize=auto;html=1;startArrow=none;" edge="1" parent="WIyWlLk6GJQsqaUBKTNV-1" source="zMHJegEWsXh8E0n9ZEiD-104" target="zMHJegEWsXh8E0n9ZEiD-99">
          <mxGeometry relative="1" as="geometry">
            <mxPoint x="-827.5" y="840" as="targetPoint" />
            <mxPoint x="-835" y="660" as="sourcePoint" />
          </mxGeometry>
        </mxCell>
        <mxCell id="zMHJegEWsXh8E0n9ZEiD-51" style="edgeStyle=orthogonalEdgeStyle;rounded=0;orthogonalLoop=1;jettySize=auto;html=1;" edge="1" parent="WIyWlLk6GJQsqaUBKTNV-1" source="zMHJegEWsXh8E0n9ZEiD-54" target="zMHJegEWsXh8E0n9ZEiD-82">
          <mxGeometry relative="1" as="geometry" />
        </mxCell>
        <mxCell id="zMHJegEWsXh8E0n9ZEiD-52" style="edgeStyle=orthogonalEdgeStyle;rounded=0;orthogonalLoop=1;jettySize=auto;html=1;" edge="1" parent="WIyWlLk6GJQsqaUBKTNV-1" source="zMHJegEWsXh8E0n9ZEiD-54" target="zMHJegEWsXh8E0n9ZEiD-85">
          <mxGeometry relative="1" as="geometry" />
        </mxCell>
        <mxCell id="zMHJegEWsXh8E0n9ZEiD-53" style="edgeStyle=orthogonalEdgeStyle;rounded=0;orthogonalLoop=1;jettySize=auto;html=1;" edge="1" parent="WIyWlLk6GJQsqaUBKTNV-1" source="zMHJegEWsXh8E0n9ZEiD-54" target="zMHJegEWsXh8E0n9ZEiD-108">
          <mxGeometry relative="1" as="geometry" />
        </mxCell>
        <mxCell id="zMHJegEWsXh8E0n9ZEiD-54" value="Warehouse" style="verticalLabelPosition=bottom;html=1;verticalAlign=top;strokeWidth=2;shape=mxgraph.lean_mapping.warehouse;fontFamily=Tahoma;fontSize=10;" vertex="1" parent="WIyWlLk6GJQsqaUBKTNV-1">
          <mxGeometry x="1387" y="210" width="227.5" height="110" as="geometry" />
        </mxCell>
        <mxCell id="zMHJegEWsXh8E0n9ZEiD-55" style="edgeStyle=orthogonalEdgeStyle;rounded=0;orthogonalLoop=1;jettySize=auto;html=1;fontFamily=Tahoma;fontSize=10;" edge="1" parent="WIyWlLk6GJQsqaUBKTNV-1" source="zMHJegEWsXh8E0n9ZEiD-56" target="zMHJegEWsXh8E0n9ZEiD-58">
          <mxGeometry relative="1" as="geometry" />
        </mxCell>
        <mxCell id="zMHJegEWsXh8E0n9ZEiD-56" value="Picking" style="rounded=1;whiteSpace=wrap;html=1;absoluteArcSize=1;arcSize=14;strokeWidth=2;" vertex="1" parent="WIyWlLk6GJQsqaUBKTNV-1">
          <mxGeometry x="1449.88" y="-160" width="100" height="60" as="geometry" />
        </mxCell>
        <mxCell id="zMHJegEWsXh8E0n9ZEiD-57" style="edgeStyle=orthogonalEdgeStyle;rounded=0;orthogonalLoop=1;jettySize=auto;html=1;fontFamily=Tahoma;fontSize=10;startArrow=none;" edge="1" parent="WIyWlLk6GJQsqaUBKTNV-1" source="zMHJegEWsXh8E0n9ZEiD-59" target="zMHJegEWsXh8E0n9ZEiD-63">
          <mxGeometry relative="1" as="geometry">
            <mxPoint x="2418.9063157894743" y="-60" as="targetPoint" />
          </mxGeometry>
        </mxCell>
        <mxCell id="zMHJegEWsXh8E0n9ZEiD-58" value="Distribution Center" style="verticalLabelPosition=bottom;html=1;verticalAlign=top;strokeWidth=2;shape=mxgraph.lean_mapping.warehouse;fontFamily=Tahoma;fontSize=10;" vertex="1" parent="WIyWlLk6GJQsqaUBKTNV-1">
          <mxGeometry x="1449.88" y="-310" width="100" height="60" as="geometry" />
        </mxCell>
        <mxCell id="zMHJegEWsXh8E0n9ZEiD-59" value="&lt;ul&gt;&lt;li&gt;&lt;font color=&quot;#666666&quot;&gt;Meets the &lt;br&gt;customer requirement&lt;/font&gt;&lt;/li&gt;&lt;/ul&gt;" style="shape=note;whiteSpace=wrap;html=1;backgroundOutline=1;darkOpacity=0.05;fontSize=10;align=left;fontFamily=Tahoma;size=10;" vertex="1" parent="WIyWlLk6GJQsqaUBKTNV-1">
          <mxGeometry x="1423.38" y="-400" width="154.75" height="35" as="geometry" />
        </mxCell>
        <mxCell id="zMHJegEWsXh8E0n9ZEiD-60" value="" style="edgeStyle=orthogonalEdgeStyle;rounded=0;orthogonalLoop=1;jettySize=auto;html=1;fontFamily=Tahoma;fontSize=10;endArrow=none;" edge="1" parent="WIyWlLk6GJQsqaUBKTNV-1" source="zMHJegEWsXh8E0n9ZEiD-58" target="zMHJegEWsXh8E0n9ZEiD-59">
          <mxGeometry relative="1" as="geometry">
            <mxPoint x="2419.853684210526" y="-160" as="sourcePoint" />
            <mxPoint x="2418.9063157894743" y="-60" as="targetPoint" />
          </mxGeometry>
        </mxCell>
        <mxCell id="zMHJegEWsXh8E0n9ZEiD-61" style="edgeStyle=orthogonalEdgeStyle;rounded=0;orthogonalLoop=1;jettySize=auto;html=1;fontFamily=Tahoma;fontSize=10;" edge="1" parent="WIyWlLk6GJQsqaUBKTNV-1" source="zMHJegEWsXh8E0n9ZEiD-39" target="zMHJegEWsXh8E0n9ZEiD-79">
          <mxGeometry relative="1" as="geometry">
            <mxPoint x="3185" y="588" as="targetPoint" />
          </mxGeometry>
        </mxCell>
        <mxCell id="zMHJegEWsXh8E0n9ZEiD-62" value="" style="group" vertex="1" connectable="0" parent="WIyWlLk6GJQsqaUBKTNV-1">
          <mxGeometry x="1431.13" y="-520" width="141" height="88" as="geometry" />
        </mxCell>
        <mxCell id="zMHJegEWsXh8E0n9ZEiD-63" value="" style="shape=mxgraph.signs.transportation.truck_1;html=1;pointerEvents=1;fillColor=#000000;strokeColor=none;verticalLabelPosition=bottom;verticalAlign=top;align=center;" vertex="1" parent="zMHJegEWsXh8E0n9ZEiD-62">
          <mxGeometry y="10" width="139" height="78" as="geometry" />
        </mxCell>
        <mxCell id="zMHJegEWsXh8E0n9ZEiD-64" value="Shipping" style="rounded=1;whiteSpace=wrap;html=1;absoluteArcSize=1;arcSize=14;strokeWidth=2;" vertex="1" parent="zMHJegEWsXh8E0n9ZEiD-62">
          <mxGeometry x="41" width="100" height="60" as="geometry" />
        </mxCell>
        <mxCell id="zMHJegEWsXh8E0n9ZEiD-65" style="edgeStyle=orthogonalEdgeStyle;rounded=0;orthogonalLoop=1;jettySize=auto;html=1;" edge="1" parent="WIyWlLk6GJQsqaUBKTNV-1" source="zMHJegEWsXh8E0n9ZEiD-116" target="zMHJegEWsXh8E0n9ZEiD-10">
          <mxGeometry relative="1" as="geometry" />
        </mxCell>
        <mxCell id="zMHJegEWsXh8E0n9ZEiD-66" value="" style="edgeStyle=orthogonalEdgeStyle;rounded=0;orthogonalLoop=1;jettySize=auto;html=1;endArrow=none;" edge="1" parent="WIyWlLk6GJQsqaUBKTNV-1" source="zMHJegEWsXh8E0n9ZEiD-54" target="zMHJegEWsXh8E0n9ZEiD-103">
          <mxGeometry relative="1" as="geometry">
            <mxPoint x="-595" y="480" as="targetPoint" />
            <mxPoint x="1387" y="335" as="sourcePoint" />
          </mxGeometry>
        </mxCell>
        <mxCell id="zMHJegEWsXh8E0n9ZEiD-67" style="edgeStyle=orthogonalEdgeStyle;rounded=0;orthogonalLoop=1;jettySize=auto;html=1;startArrow=none;" edge="1" parent="WIyWlLk6GJQsqaUBKTNV-1" source="zMHJegEWsXh8E0n9ZEiD-76" target="zMHJegEWsXh8E0n9ZEiD-69">
          <mxGeometry relative="1" as="geometry">
            <mxPoint x="1040" y="90" as="sourcePoint" />
          </mxGeometry>
        </mxCell>
        <mxCell id="zMHJegEWsXh8E0n9ZEiD-68" value="" style="edgeStyle=orthogonalEdgeStyle;rounded=0;orthogonalLoop=1;jettySize=auto;html=1;" edge="1" parent="WIyWlLk6GJQsqaUBKTNV-1" source="zMHJegEWsXh8E0n9ZEiD-69" target="zMHJegEWsXh8E0n9ZEiD-73">
          <mxGeometry relative="1" as="geometry" />
        </mxCell>
        <mxCell id="zMHJegEWsXh8E0n9ZEiD-69" value="QA IQC" style="rounded=1;whiteSpace=wrap;html=1;absoluteArcSize=1;arcSize=14;strokeWidth=2;" vertex="1" parent="WIyWlLk6GJQsqaUBKTNV-1">
          <mxGeometry x="1080" y="135" width="100" height="60" as="geometry" />
        </mxCell>
        <mxCell id="zMHJegEWsXh8E0n9ZEiD-70" value="" style="edgeStyle=orthogonalEdgeStyle;rounded=0;orthogonalLoop=1;jettySize=auto;html=1;endArrow=none;" edge="1" parent="WIyWlLk6GJQsqaUBKTNV-1" source="zMHJegEWsXh8E0n9ZEiD-54" target="zMHJegEWsXh8E0n9ZEiD-88">
          <mxGeometry relative="1" as="geometry">
            <mxPoint x="1387" y="335.0000000000002" as="sourcePoint" />
            <mxPoint x="-30.043478260869506" y="439.9999999999998" as="targetPoint" />
          </mxGeometry>
        </mxCell>
        <mxCell id="zMHJegEWsXh8E0n9ZEiD-71" value="Other Site" style="verticalLabelPosition=bottom;html=1;verticalAlign=top;strokeWidth=2;shape=mxgraph.lean_mapping.warehouse;fontFamily=Tahoma;fontSize=10;" vertex="1" parent="WIyWlLk6GJQsqaUBKTNV-1">
          <mxGeometry x="1745" y="-90" width="227.5" height="110" as="geometry" />
        </mxCell>
        <mxCell id="zMHJegEWsXh8E0n9ZEiD-72" style="edgeStyle=orthogonalEdgeStyle;rounded=0;orthogonalLoop=1;jettySize=auto;html=1;" edge="1" parent="WIyWlLk6GJQsqaUBKTNV-1" source="zMHJegEWsXh8E0n9ZEiD-73" target="zMHJegEWsXh8E0n9ZEiD-54">
          <mxGeometry relative="1" as="geometry" />
        </mxCell>
        <mxCell id="zMHJegEWsXh8E0n9ZEiD-73" value="Receive" style="rounded=1;whiteSpace=wrap;html=1;absoluteArcSize=1;arcSize=14;strokeWidth=2;" vertex="1" parent="WIyWlLk6GJQsqaUBKTNV-1">
          <mxGeometry x="1220" y="135" width="100" height="60" as="geometry" />
        </mxCell>
        <mxCell id="zMHJegEWsXh8E0n9ZEiD-74" value="" style="group" vertex="1" connectable="0" parent="WIyWlLk6GJQsqaUBKTNV-1">
          <mxGeometry x="947.5" y="90" width="90" height="92.5" as="geometry" />
        </mxCell>
        <mxCell id="zMHJegEWsXh8E0n9ZEiD-75" value="JDE E1" style="sketch=0;pointerEvents=1;shadow=0;dashed=0;html=1;strokeColor=none;labelPosition=center;verticalLabelPosition=bottom;verticalAlign=top;align=center;fillColor=#515151;shape=mxgraph.mscae.system_center.admin_console" vertex="1" parent="zMHJegEWsXh8E0n9ZEiD-74">
          <mxGeometry width="50" height="36" as="geometry" />
        </mxCell>
        <mxCell id="zMHJegEWsXh8E0n9ZEiD-76" value="&lt;ul&gt;&lt;li&gt;&lt;font color=&quot;#666666&quot;&gt;VDN&lt;/font&gt;&lt;/li&gt;&lt;/ul&gt;" style="shape=note;whiteSpace=wrap;html=1;backgroundOutline=1;darkOpacity=0.05;fontSize=10;align=left;fontFamily=Tahoma;size=10;" vertex="1" parent="zMHJegEWsXh8E0n9ZEiD-74">
          <mxGeometry y="57.5" width="90" height="35" as="geometry" />
        </mxCell>
        <mxCell id="zMHJegEWsXh8E0n9ZEiD-77" value="" style="group" vertex="1" connectable="0" parent="WIyWlLk6GJQsqaUBKTNV-1">
          <mxGeometry x="5285" y="416" width="140" height="110" as="geometry" />
        </mxCell>
        <mxCell id="zMHJegEWsXh8E0n9ZEiD-78" value="WiPack" style="sketch=0;pointerEvents=1;shadow=0;dashed=0;html=1;strokeColor=none;labelPosition=center;verticalLabelPosition=bottom;verticalAlign=top;align=center;fillColor=#515151;shape=mxgraph.mscae.system_center.admin_console" vertex="1" parent="zMHJegEWsXh8E0n9ZEiD-77">
          <mxGeometry width="50" height="36" as="geometry" />
        </mxCell>
        <mxCell id="zMHJegEWsXh8E0n9ZEiD-79" value="&lt;ul&gt;&lt;li&gt;&lt;font color=&quot;#666666&quot;&gt;Finish&lt;/font&gt;&lt;/li&gt;&lt;li&gt;&lt;font color=&quot;#666666&quot;&gt;Update E1&lt;/font&gt;&lt;/li&gt;&lt;ul&gt;&lt;li&gt;&lt;font color=&quot;#666666&quot;&gt;99 &amp;gt; SKU&lt;/font&gt;&lt;/li&gt;&lt;li&gt;&lt;font color=&quot;#666666&quot;&gt;Qty&lt;/font&gt;&lt;/li&gt;&lt;/ul&gt;&lt;/ul&gt;" style="shape=note;whiteSpace=wrap;html=1;backgroundOutline=1;darkOpacity=0.05;fontSize=10;align=left;fontFamily=Tahoma;size=10;" vertex="1" parent="zMHJegEWsXh8E0n9ZEiD-77">
          <mxGeometry y="57.5" width="140" height="52.5" as="geometry" />
        </mxCell>
        <mxCell id="zMHJegEWsXh8E0n9ZEiD-80" value="" style="group" vertex="1" connectable="0" parent="WIyWlLk6GJQsqaUBKTNV-1">
          <mxGeometry x="1758.75" y="60" width="200" height="100" as="geometry" />
        </mxCell>
        <mxCell id="zMHJegEWsXh8E0n9ZEiD-81" value="EMR" style="sketch=0;pointerEvents=1;shadow=0;dashed=0;html=1;strokeColor=none;labelPosition=center;verticalLabelPosition=bottom;verticalAlign=top;align=center;fillColor=#515151;shape=mxgraph.mscae.system_center.admin_console" vertex="1" parent="zMHJegEWsXh8E0n9ZEiD-80">
          <mxGeometry y="1" width="50" height="36" as="geometry" />
        </mxCell>
        <mxCell id="zMHJegEWsXh8E0n9ZEiD-82" value="&lt;ul&gt;&lt;li&gt;&lt;span style=&quot;color: rgb(102, 102, 102); background-color: initial;&quot;&gt;Transfer packing mat. to other site&lt;/span&gt;&lt;br&gt;&lt;/li&gt;&lt;li&gt;&lt;span style=&quot;color: rgb(102, 102, 102); background-color: initial;&quot;&gt;JDE E1&lt;br&gt;&lt;/span&gt;&lt;/li&gt;&lt;/ul&gt;" style="shape=note;whiteSpace=wrap;html=1;backgroundOutline=1;darkOpacity=0.05;fontSize=10;align=left;fontFamily=Tahoma;size=10;" vertex="1" parent="zMHJegEWsXh8E0n9ZEiD-80">
          <mxGeometry y="57.5" width="200" height="42.5" as="geometry" />
        </mxCell>
        <mxCell id="zMHJegEWsXh8E0n9ZEiD-83" value="" style="group" vertex="1" connectable="0" parent="WIyWlLk6GJQsqaUBKTNV-1">
          <mxGeometry x="1434.88" y="-20" width="130" height="92.5" as="geometry" />
        </mxCell>
        <mxCell id="zMHJegEWsXh8E0n9ZEiD-84" value="JDE E1" style="sketch=0;pointerEvents=1;shadow=0;dashed=0;html=1;strokeColor=none;labelPosition=center;verticalLabelPosition=bottom;verticalAlign=top;align=center;fillColor=#515151;shape=mxgraph.mscae.system_center.admin_console" vertex="1" parent="zMHJegEWsXh8E0n9ZEiD-83">
          <mxGeometry width="50" height="36" as="geometry" />
        </mxCell>
        <mxCell id="zMHJegEWsXh8E0n9ZEiD-85" value="&lt;ul&gt;&lt;li&gt;&lt;font color=&quot;#666666&quot;&gt;Shipping order&lt;/font&gt;&lt;/li&gt;&lt;/ul&gt;" style="shape=note;whiteSpace=wrap;html=1;backgroundOutline=1;darkOpacity=0.05;fontSize=10;align=left;fontFamily=Tahoma;size=10;" vertex="1" parent="zMHJegEWsXh8E0n9ZEiD-83">
          <mxGeometry y="57.5" width="130" height="35" as="geometry" />
        </mxCell>
        <mxCell id="zMHJegEWsXh8E0n9ZEiD-86" value="" style="group" vertex="1" connectable="0" parent="WIyWlLk6GJQsqaUBKTNV-1">
          <mxGeometry x="-370" y="390" width="140" height="110" as="geometry" />
        </mxCell>
        <mxCell id="zMHJegEWsXh8E0n9ZEiD-87" value="EMR" style="sketch=0;pointerEvents=1;shadow=0;dashed=0;html=1;strokeColor=none;labelPosition=center;verticalLabelPosition=bottom;verticalAlign=top;align=center;fillColor=#515151;shape=mxgraph.mscae.system_center.admin_console" vertex="1" parent="zMHJegEWsXh8E0n9ZEiD-86">
          <mxGeometry width="50" height="36" as="geometry" />
        </mxCell>
        <mxCell id="zMHJegEWsXh8E0n9ZEiD-88" value="&lt;ul&gt;&lt;li&gt;&lt;span style=&quot;color: rgb(102, 102, 102); background-color: initial;&quot;&gt;Part No.&lt;/span&gt;&lt;br&gt;&lt;/li&gt;&lt;li&gt;&lt;span style=&quot;color: rgb(102, 102, 102); background-color: initial;&quot;&gt;Qty&lt;/span&gt;&lt;br&gt;&lt;/li&gt;&lt;li&gt;&lt;span style=&quot;color: rgb(102, 102, 102); background-color: initial;&quot;&gt;JDE E1&lt;br&gt;&lt;/span&gt;&lt;/li&gt;&lt;/ul&gt;" style="shape=note;whiteSpace=wrap;html=1;backgroundOutline=1;darkOpacity=0.05;fontSize=10;align=left;fontFamily=Tahoma;size=10;" vertex="1" parent="zMHJegEWsXh8E0n9ZEiD-86">
          <mxGeometry y="57.5" width="140" height="52.5" as="geometry" />
        </mxCell>
        <mxCell id="zMHJegEWsXh8E0n9ZEiD-89" value="" style="group" vertex="1" connectable="0" parent="WIyWlLk6GJQsqaUBKTNV-1">
          <mxGeometry x="5115" y="515" width="140" height="110" as="geometry" />
        </mxCell>
        <mxCell id="zMHJegEWsXh8E0n9ZEiD-90" value="WiPack" style="sketch=0;pointerEvents=1;shadow=0;dashed=0;html=1;strokeColor=none;labelPosition=center;verticalLabelPosition=bottom;verticalAlign=top;align=center;fillColor=#515151;shape=mxgraph.mscae.system_center.admin_console" vertex="1" parent="zMHJegEWsXh8E0n9ZEiD-89">
          <mxGeometry x="1" width="50" height="36" as="geometry" />
        </mxCell>
        <mxCell id="zMHJegEWsXh8E0n9ZEiD-91" value="&lt;ul&gt;&lt;li&gt;&lt;font color=&quot;#666666&quot;&gt;Create PDR&lt;/font&gt;&lt;/li&gt;&lt;ul&gt;&lt;li&gt;&lt;font color=&quot;#666666&quot;&gt;99 &amp;gt; SKU&lt;/font&gt;&lt;/li&gt;&lt;/ul&gt;&lt;/ul&gt;" style="shape=note;whiteSpace=wrap;html=1;backgroundOutline=1;darkOpacity=0.05;fontSize=10;align=left;fontFamily=Tahoma;size=10;" vertex="1" parent="zMHJegEWsXh8E0n9ZEiD-89">
          <mxGeometry y="57.5" width="140" height="52.5" as="geometry" />
        </mxCell>
        <mxCell id="zMHJegEWsXh8E0n9ZEiD-92" value="" style="group" vertex="1" connectable="0" parent="WIyWlLk6GJQsqaUBKTNV-1">
          <mxGeometry x="4890" y="515" width="140" height="110" as="geometry" />
        </mxCell>
        <mxCell id="zMHJegEWsXh8E0n9ZEiD-93" value="PRS" style="sketch=0;pointerEvents=1;shadow=0;dashed=0;html=1;strokeColor=none;labelPosition=center;verticalLabelPosition=bottom;verticalAlign=top;align=center;fillColor=#515151;shape=mxgraph.mscae.system_center.admin_console" vertex="1" parent="zMHJegEWsXh8E0n9ZEiD-92">
          <mxGeometry y="-2" width="50" height="36" as="geometry" />
        </mxCell>
        <mxCell id="zMHJegEWsXh8E0n9ZEiD-94" value="&lt;ul&gt;&lt;li&gt;&lt;font color=&quot;#666666&quot;&gt;PMC request&lt;/font&gt;&lt;/li&gt;&lt;/ul&gt;" style="shape=note;whiteSpace=wrap;html=1;backgroundOutline=1;darkOpacity=0.05;fontSize=10;align=left;fontFamily=Tahoma;size=10;" vertex="1" parent="zMHJegEWsXh8E0n9ZEiD-92">
          <mxGeometry y="57.5" width="140" height="52.5" as="geometry" />
        </mxCell>
        <mxCell id="zMHJegEWsXh8E0n9ZEiD-95" style="edgeStyle=orthogonalEdgeStyle;rounded=0;orthogonalLoop=1;jettySize=auto;html=1;" edge="1" parent="WIyWlLk6GJQsqaUBKTNV-1" source="zMHJegEWsXh8E0n9ZEiD-94" target="zMHJegEWsXh8E0n9ZEiD-91">
          <mxGeometry relative="1" as="geometry" />
        </mxCell>
        <mxCell id="zMHJegEWsXh8E0n9ZEiD-96" style="edgeStyle=orthogonalEdgeStyle;rounded=0;orthogonalLoop=1;jettySize=auto;html=1;" edge="1" parent="WIyWlLk6GJQsqaUBKTNV-1" source="zMHJegEWsXh8E0n9ZEiD-91" target="zMHJegEWsXh8E0n9ZEiD-37">
          <mxGeometry relative="1" as="geometry" />
        </mxCell>
        <mxCell id="zMHJegEWsXh8E0n9ZEiD-97" value="" style="group" vertex="1" connectable="0" parent="WIyWlLk6GJQsqaUBKTNV-1">
          <mxGeometry x="-905" y="769" width="140" height="110" as="geometry" />
        </mxCell>
        <mxCell id="zMHJegEWsXh8E0n9ZEiD-98" value="MIVS" style="sketch=0;pointerEvents=1;shadow=0;dashed=0;html=1;strokeColor=none;labelPosition=center;verticalLabelPosition=bottom;verticalAlign=top;align=center;fillColor=#515151;shape=mxgraph.mscae.system_center.admin_console" vertex="1" parent="zMHJegEWsXh8E0n9ZEiD-97">
          <mxGeometry width="50" height="36" as="geometry" />
        </mxCell>
        <mxCell id="zMHJegEWsXh8E0n9ZEiD-99" value="&lt;ul&gt;&lt;li style=&quot;border-color: var(--border-color);&quot;&gt;&lt;font color=&quot;#666666&quot;&gt;Scan &amp;amp; Verify&lt;/font&gt;&lt;/li&gt;&lt;/ul&gt;" style="shape=note;whiteSpace=wrap;html=1;backgroundOutline=1;darkOpacity=0.05;fontSize=10;align=left;fontFamily=Tahoma;size=10;" vertex="1" parent="zMHJegEWsXh8E0n9ZEiD-97">
          <mxGeometry y="57.5" width="110" height="32.5" as="geometry" />
        </mxCell>
        <mxCell id="zMHJegEWsXh8E0n9ZEiD-100" style="edgeStyle=orthogonalEdgeStyle;rounded=0;orthogonalLoop=1;jettySize=auto;html=1;" edge="1" parent="WIyWlLk6GJQsqaUBKTNV-1" source="zMHJegEWsXh8E0n9ZEiD-99" target="zMHJegEWsXh8E0n9ZEiD-12">
          <mxGeometry relative="1" as="geometry" />
        </mxCell>
        <mxCell id="zMHJegEWsXh8E0n9ZEiD-101" value="" style="group" vertex="1" connectable="0" parent="WIyWlLk6GJQsqaUBKTNV-1">
          <mxGeometry x="-920" y="420" width="140" height="110" as="geometry" />
        </mxCell>
        <mxCell id="zMHJegEWsXh8E0n9ZEiD-102" value="EWO" style="sketch=0;pointerEvents=1;shadow=0;dashed=0;html=1;strokeColor=none;labelPosition=center;verticalLabelPosition=bottom;verticalAlign=top;align=center;fillColor=#515151;shape=mxgraph.mscae.system_center.admin_console" vertex="1" parent="zMHJegEWsXh8E0n9ZEiD-101">
          <mxGeometry width="50" height="36" as="geometry" />
        </mxCell>
        <mxCell id="zMHJegEWsXh8E0n9ZEiD-103" value="&lt;ul&gt;&lt;li&gt;PCB&lt;/li&gt;&lt;li&gt;IC&lt;/li&gt;&lt;/ul&gt;" style="shape=note;whiteSpace=wrap;html=1;backgroundOutline=1;darkOpacity=0.05;fontSize=10;align=left;fontFamily=Tahoma;size=10;" vertex="1" parent="zMHJegEWsXh8E0n9ZEiD-101">
          <mxGeometry y="57.5" width="140" height="52.5" as="geometry" />
        </mxCell>
        <mxCell id="zMHJegEWsXh8E0n9ZEiD-104" value="Picking" style="rounded=1;whiteSpace=wrap;html=1;absoluteArcSize=1;arcSize=14;strokeWidth=2;" vertex="1" parent="WIyWlLk6GJQsqaUBKTNV-1">
          <mxGeometry x="-900" y="600" width="100" height="60" as="geometry" />
        </mxCell>
        <mxCell id="zMHJegEWsXh8E0n9ZEiD-105" style="edgeStyle=orthogonalEdgeStyle;rounded=0;orthogonalLoop=1;jettySize=auto;html=1;" edge="1" parent="WIyWlLk6GJQsqaUBKTNV-1" source="zMHJegEWsXh8E0n9ZEiD-103" target="zMHJegEWsXh8E0n9ZEiD-104">
          <mxGeometry relative="1" as="geometry" />
        </mxCell>
        <mxCell id="zMHJegEWsXh8E0n9ZEiD-106" value="" style="group" vertex="1" connectable="0" parent="WIyWlLk6GJQsqaUBKTNV-1">
          <mxGeometry x="4610" y="596" width="140" height="110" as="geometry" />
        </mxCell>
        <mxCell id="zMHJegEWsXh8E0n9ZEiD-107" value="EMR" style="sketch=0;pointerEvents=1;shadow=0;dashed=0;html=1;strokeColor=none;labelPosition=center;verticalLabelPosition=bottom;verticalAlign=top;align=center;fillColor=#515151;shape=mxgraph.mscae.system_center.admin_console" vertex="1" parent="zMHJegEWsXh8E0n9ZEiD-106">
          <mxGeometry x="1" width="50" height="36" as="geometry" />
        </mxCell>
        <mxCell id="zMHJegEWsXh8E0n9ZEiD-108" value="&lt;ul&gt;&lt;li&gt;&lt;font color=&quot;#666666&quot;&gt;Packing Material&lt;/font&gt;&lt;/li&gt;&lt;/ul&gt;" style="shape=note;whiteSpace=wrap;html=1;backgroundOutline=1;darkOpacity=0.05;fontSize=10;align=left;fontFamily=Tahoma;size=10;" vertex="1" parent="zMHJegEWsXh8E0n9ZEiD-106">
          <mxGeometry y="57.5" width="140" height="52.5" as="geometry" />
        </mxCell>
        <mxCell id="zMHJegEWsXh8E0n9ZEiD-109" style="edgeStyle=orthogonalEdgeStyle;rounded=0;orthogonalLoop=1;jettySize=auto;html=1;" edge="1" parent="WIyWlLk6GJQsqaUBKTNV-1" source="zMHJegEWsXh8E0n9ZEiD-108" target="zMHJegEWsXh8E0n9ZEiD-34">
          <mxGeometry relative="1" as="geometry" />
        </mxCell>
        <mxCell id="zMHJegEWsXh8E0n9ZEiD-110" value="" style="edgeStyle=orthogonalEdgeStyle;rounded=0;orthogonalLoop=1;jettySize=auto;html=1;entryX=0;entryY=0.5;entryDx=0;entryDy=0;" edge="1" parent="WIyWlLk6GJQsqaUBKTNV-1" source="zMHJegEWsXh8E0n9ZEiD-503" target="zMHJegEWsXh8E0n9ZEiD-243">
          <mxGeometry relative="1" as="geometry">
            <mxPoint x="1050" y="1570" as="sourcePoint" />
          </mxGeometry>
        </mxCell>
        <mxCell id="zMHJegEWsXh8E0n9ZEiD-111" value="CM - Kioxia" style="edgeStyle=orthogonalEdgeStyle;rounded=0;orthogonalLoop=1;jettySize=auto;html=1;exitX=0.5;exitY=1;exitDx=0;exitDy=0;entryX=0;entryY=0.5;entryDx=0;entryDy=0;" edge="1" parent="WIyWlLk6GJQsqaUBKTNV-1" source="zMHJegEWsXh8E0n9ZEiD-24" target="zMHJegEWsXh8E0n9ZEiD-503">
          <mxGeometry x="0.8221" relative="1" as="geometry">
            <mxPoint x="1285" y="840" as="sourcePoint" />
            <mxPoint x="1080.0000000000005" y="1497" as="targetPoint" />
            <mxPoint as="offset" />
          </mxGeometry>
        </mxCell>
        <mxCell id="zMHJegEWsXh8E0n9ZEiD-112" style="edgeStyle=orthogonalEdgeStyle;rounded=0;orthogonalLoop=1;jettySize=auto;html=1;entryX=0;entryY=0.5;entryDx=0;entryDy=0;" edge="1" parent="WIyWlLk6GJQsqaUBKTNV-1" source="zMHJegEWsXh8E0n9ZEiD-504" target="zMHJegEWsXh8E0n9ZEiD-326">
          <mxGeometry relative="1" as="geometry">
            <mxPoint x="1139" y="1847.9999999999995" as="sourcePoint" />
          </mxGeometry>
        </mxCell>
        <mxCell id="zMHJegEWsXh8E0n9ZEiD-113" value="CM - Intel" style="edgeStyle=orthogonalEdgeStyle;rounded=0;orthogonalLoop=1;jettySize=auto;html=1;exitX=0.5;exitY=1;exitDx=0;exitDy=0;entryX=0;entryY=0.5;entryDx=0;entryDy=0;" edge="1" parent="WIyWlLk6GJQsqaUBKTNV-1" source="zMHJegEWsXh8E0n9ZEiD-24" target="zMHJegEWsXh8E0n9ZEiD-504">
          <mxGeometry x="0.8826" relative="1" as="geometry">
            <mxPoint x="1029" y="840" as="sourcePoint" />
            <mxPoint x="1079" y="1847.9999999999995" as="targetPoint" />
            <mxPoint as="offset" />
          </mxGeometry>
        </mxCell>
        <mxCell id="zMHJegEWsXh8E0n9ZEiD-114" style="edgeStyle=orthogonalEdgeStyle;rounded=0;orthogonalLoop=1;jettySize=auto;html=1;entryX=0;entryY=0.5;entryDx=0;entryDy=0;" edge="1" parent="WIyWlLk6GJQsqaUBKTNV-1" source="zMHJegEWsXh8E0n9ZEiD-506" target="zMHJegEWsXh8E0n9ZEiD-372">
          <mxGeometry relative="1" as="geometry">
            <mxPoint x="1450" y="2027" as="targetPoint" />
          </mxGeometry>
        </mxCell>
        <mxCell id="zMHJegEWsXh8E0n9ZEiD-115" value="" style="group" vertex="1" connectable="0" parent="WIyWlLk6GJQsqaUBKTNV-1">
          <mxGeometry x="-315" y="580" width="135" height="68" as="geometry" />
        </mxCell>
        <mxCell id="zMHJegEWsXh8E0n9ZEiD-116" value="Line Storage" style="shape=mxgraph.pid.driers.turbo_drier,_disc_drier,_moving_shelf_drier;html=1;pointerEvents=1;align=center;verticalLabelPosition=bottom;verticalAlign=top;dashed=0;" vertex="1" parent="zMHJegEWsXh8E0n9ZEiD-115">
          <mxGeometry width="30" height="68" as="geometry" />
        </mxCell>
        <mxCell id="zMHJegEWsXh8E0n9ZEiD-117" value="&lt;ul&gt;&lt;li&gt;&lt;font color=&quot;#666666&quot;&gt;Reels&lt;/font&gt;&lt;/li&gt;&lt;/ul&gt;" style="shape=note;whiteSpace=wrap;html=1;backgroundOutline=1;darkOpacity=0.05;fontSize=10;align=left;fontFamily=Tahoma;size=15;" vertex="1" parent="zMHJegEWsXh8E0n9ZEiD-115">
          <mxGeometry x="45" y="28" width="90" height="40" as="geometry" />
        </mxCell>
        <mxCell id="zMHJegEWsXh8E0n9ZEiD-118" value="CM - Ginger" style="edgeStyle=orthogonalEdgeStyle;rounded=0;orthogonalLoop=1;jettySize=auto;html=1;entryX=0;entryY=0.5;entryDx=0;entryDy=0;exitX=0.5;exitY=1;exitDx=0;exitDy=0;" edge="1" parent="WIyWlLk6GJQsqaUBKTNV-1" source="zMHJegEWsXh8E0n9ZEiD-24" target="zMHJegEWsXh8E0n9ZEiD-506">
          <mxGeometry x="0.9078" relative="1" as="geometry">
            <mxPoint as="offset" />
          </mxGeometry>
        </mxCell>
        <mxCell id="zMHJegEWsXh8E0n9ZEiD-119" value="      Testing" style="swimlane;fontFamily=Tahoma;fontSize=10;align=left;" vertex="1" parent="WIyWlLk6GJQsqaUBKTNV-1">
          <mxGeometry x="1300" y="710" width="3580" height="2350" as="geometry" />
        </mxCell>
        <mxCell id="zMHJegEWsXh8E0n9ZEiD-120" value="     Module" style="swimlane;fontFamily=Tahoma;fontSize=10;startSize=23;align=left;" vertex="1" parent="zMHJegEWsXh8E0n9ZEiD-119">
          <mxGeometry x="40" y="48" width="1770" height="262" as="geometry">
            <mxRectangle x="40" y="48" width="80" height="30" as="alternateBounds" />
          </mxGeometry>
        </mxCell>
        <mxCell id="zMHJegEWsXh8E0n9ZEiD-121" value="QC VI" style="rounded=1;whiteSpace=wrap;html=1;absoluteArcSize=1;arcSize=14;strokeWidth=2;" vertex="1" parent="zMHJegEWsXh8E0n9ZEiD-120">
          <mxGeometry x="1106" y="54.5" width="100" height="60" as="geometry" />
        </mxCell>
        <mxCell id="zMHJegEWsXh8E0n9ZEiD-122" value="" style="group" vertex="1" connectable="0" parent="zMHJegEWsXh8E0n9ZEiD-120">
          <mxGeometry x="81" y="54.5" width="195" height="160" as="geometry" />
        </mxCell>
        <mxCell id="zMHJegEWsXh8E0n9ZEiD-123" value="SPD" style="rounded=1;whiteSpace=wrap;html=1;absoluteArcSize=1;arcSize=14;strokeWidth=2;" vertex="1" parent="zMHJegEWsXh8E0n9ZEiD-122">
          <mxGeometry width="100" height="60" as="geometry" />
        </mxCell>
        <mxCell id="zMHJegEWsXh8E0n9ZEiD-124" value="&lt;span style=&quot;color: rgb(102 , 102 , 102)&quot;&gt;Serial Presence Detect&lt;/span&gt;&lt;br&gt;&lt;ul style=&quot;color: rgb(102 , 102 , 102) ; font-size: 9px&quot;&gt;&lt;li&gt;&lt;span style=&quot;font-size: 10px&quot;&gt;Auto/Manual Testing&lt;/span&gt;&lt;/li&gt;&lt;li&gt;&lt;span style=&quot;font-size: 10px&quot;&gt;Detect short circuits&lt;/span&gt;&lt;/li&gt;&lt;li&gt;&lt;span style=&quot;font-size: 10px&quot;&gt;Burn in information&lt;/span&gt;&lt;/li&gt;&lt;ul&gt;&lt;li&gt;&lt;span style=&quot;font-size: 10px&quot;&gt;Mainly Kinston’s info&lt;/span&gt;&lt;/li&gt;&lt;li&gt;&lt;span style=&quot;font-size: 10px&quot;&gt;Speed, timing, Voltage...&lt;/span&gt;&lt;/li&gt;&lt;/ul&gt;&lt;/ul&gt;&lt;font style=&quot;color: rgb(102 , 102 , 102)&quot;&gt;&lt;/font&gt;" style="shape=note;whiteSpace=wrap;html=1;backgroundOutline=1;darkOpacity=0.05;fontSize=10;align=left;fontFamily=Tahoma;size=15;" vertex="1" parent="zMHJegEWsXh8E0n9ZEiD-122">
          <mxGeometry y="60" width="195" height="100" as="geometry" />
        </mxCell>
        <mxCell id="zMHJegEWsXh8E0n9ZEiD-125" value="" style="group" vertex="1" connectable="0" parent="zMHJegEWsXh8E0n9ZEiD-120">
          <mxGeometry x="326" y="54.5" width="200" height="140" as="geometry" />
        </mxCell>
        <mxCell id="zMHJegEWsXh8E0n9ZEiD-126" value="FT" style="rounded=1;whiteSpace=wrap;html=1;absoluteArcSize=1;arcSize=14;strokeWidth=2;" vertex="1" parent="zMHJegEWsXh8E0n9ZEiD-125">
          <mxGeometry width="100" height="60" as="geometry" />
        </mxCell>
        <mxCell id="zMHJegEWsXh8E0n9ZEiD-127" value="&lt;div&gt;&lt;font color=&quot;#666666&quot;&gt;Functional Test&lt;/font&gt;&lt;/div&gt;&lt;div&gt;&lt;ul&gt;&lt;li&gt;&lt;font color=&quot;#666666&quot;&gt;Speed test&lt;/font&gt;&lt;/li&gt;&lt;li&gt;&lt;font color=&quot;#666666&quot;&gt;Fail&lt;/font&gt;&lt;/li&gt;&lt;ul&gt;&lt;li&gt;&lt;font color=&quot;#666666&quot;&gt;Defect&lt;/font&gt;&lt;/li&gt;&lt;li&gt;&lt;font color=&quot;#666666&quot;&gt;Down Grade (to PEF flow)&lt;/font&gt;&lt;/li&gt;&lt;/ul&gt;&lt;/ul&gt;&lt;/div&gt;" style="shape=note;whiteSpace=wrap;html=1;backgroundOutline=1;darkOpacity=0.05;fontSize=10;align=left;fontFamily=Tahoma;size=12;" vertex="1" parent="zMHJegEWsXh8E0n9ZEiD-125">
          <mxGeometry y="60" width="200" height="80" as="geometry" />
        </mxCell>
        <mxCell id="zMHJegEWsXh8E0n9ZEiD-128" value="" style="group" vertex="1" connectable="0" parent="zMHJegEWsXh8E0n9ZEiD-120">
          <mxGeometry x="596" y="54.5" width="170" height="110" as="geometry" />
        </mxCell>
        <mxCell id="zMHJegEWsXh8E0n9ZEiD-129" value="Assembly" style="rounded=1;whiteSpace=wrap;html=1;absoluteArcSize=1;arcSize=14;strokeWidth=2;" vertex="1" parent="zMHJegEWsXh8E0n9ZEiD-128">
          <mxGeometry width="100" height="60" as="geometry" />
        </mxCell>
        <mxCell id="zMHJegEWsXh8E0n9ZEiD-130" value="&lt;div&gt;&lt;ul&gt;&lt;li&gt;&lt;font color=&quot;#666666&quot;&gt;Optional&lt;/font&gt;&lt;/li&gt;&lt;ul&gt;&lt;li&gt;&lt;font color=&quot;#666666&quot;&gt;By Product&lt;/font&gt;&lt;/li&gt;&lt;/ul&gt;&lt;li&gt;&lt;font color=&quot;#666666&quot;&gt;Casing, heat spreader,...&lt;/font&gt;&lt;/li&gt;&lt;/ul&gt;&lt;/div&gt;&lt;div&gt;&lt;br&gt;&lt;/div&gt;" style="shape=note;whiteSpace=wrap;html=1;backgroundOutline=1;darkOpacity=0.05;fontSize=10;align=left;fontFamily=Tahoma;size=13;" vertex="1" parent="zMHJegEWsXh8E0n9ZEiD-128">
          <mxGeometry y="60" width="170" height="50" as="geometry" />
        </mxCell>
        <mxCell id="zMHJegEWsXh8E0n9ZEiD-131" value="" style="group" vertex="1" connectable="0" parent="zMHJegEWsXh8E0n9ZEiD-120">
          <mxGeometry x="806" y="54.5" width="210" height="180" as="geometry" />
        </mxCell>
        <mxCell id="zMHJegEWsXh8E0n9ZEiD-132" value="SPD-V" style="rounded=1;whiteSpace=wrap;html=1;absoluteArcSize=1;arcSize=14;strokeWidth=2;" vertex="1" parent="zMHJegEWsXh8E0n9ZEiD-131">
          <mxGeometry width="100" height="60" as="geometry" />
        </mxCell>
        <mxCell id="zMHJegEWsXh8E0n9ZEiD-133" value="&lt;div&gt;&lt;font color=&quot;#666666&quot;&gt;SPD Verify&lt;/font&gt;&lt;/div&gt;&lt;div&gt;&lt;ul&gt;&lt;li&gt;&lt;font color=&quot;#666666&quot;&gt;Optional&lt;/font&gt;&lt;/li&gt;&lt;ul&gt;&lt;li&gt;&lt;font color=&quot;#666666&quot;&gt;By product&lt;/font&gt;&lt;/li&gt;&lt;li&gt;&lt;font color=&quot;#666666&quot;&gt;High-end products (mostly SOEM)&lt;/font&gt;&lt;/li&gt;&lt;/ul&gt;&lt;li&gt;&lt;font color=&quot;#666666&quot;&gt;Detect short circuits&lt;/font&gt;&lt;/li&gt;&lt;li&gt;&lt;font color=&quot;#666666&quot;&gt;Burn in information&lt;/font&gt;&lt;/li&gt;&lt;ul&gt;&lt;li&gt;&lt;font color=&quot;#666666&quot;&gt;Customer info&lt;/font&gt;&lt;/li&gt;&lt;/ul&gt;&lt;/ul&gt;&lt;/div&gt;" style="shape=note;whiteSpace=wrap;html=1;backgroundOutline=1;darkOpacity=0.05;fontSize=10;align=left;fontFamily=Tahoma;size=10;" vertex="1" parent="zMHJegEWsXh8E0n9ZEiD-131">
          <mxGeometry y="60" width="210" height="120" as="geometry" />
        </mxCell>
        <mxCell id="zMHJegEWsXh8E0n9ZEiD-134" value="" style="edgeStyle=orthogonalEdgeStyle;rounded=0;orthogonalLoop=1;jettySize=auto;html=1;" edge="1" parent="zMHJegEWsXh8E0n9ZEiD-120" source="zMHJegEWsXh8E0n9ZEiD-123" target="zMHJegEWsXh8E0n9ZEiD-126">
          <mxGeometry relative="1" as="geometry" />
        </mxCell>
        <mxCell id="zMHJegEWsXh8E0n9ZEiD-135" value="" style="edgeStyle=orthogonalEdgeStyle;rounded=0;orthogonalLoop=1;jettySize=auto;html=1;" edge="1" parent="zMHJegEWsXh8E0n9ZEiD-120" source="zMHJegEWsXh8E0n9ZEiD-126" target="zMHJegEWsXh8E0n9ZEiD-129">
          <mxGeometry relative="1" as="geometry" />
        </mxCell>
        <mxCell id="zMHJegEWsXh8E0n9ZEiD-136" value="" style="edgeStyle=orthogonalEdgeStyle;rounded=0;orthogonalLoop=1;jettySize=auto;html=1;" edge="1" parent="zMHJegEWsXh8E0n9ZEiD-120" source="zMHJegEWsXh8E0n9ZEiD-129" target="zMHJegEWsXh8E0n9ZEiD-132">
          <mxGeometry relative="1" as="geometry" />
        </mxCell>
        <mxCell id="zMHJegEWsXh8E0n9ZEiD-137" value="" style="edgeStyle=orthogonalEdgeStyle;rounded=0;orthogonalLoop=1;jettySize=auto;html=1;fontFamily=Tahoma;fontSize=10;" edge="1" parent="zMHJegEWsXh8E0n9ZEiD-120" source="zMHJegEWsXh8E0n9ZEiD-132" target="zMHJegEWsXh8E0n9ZEiD-121">
          <mxGeometry relative="1" as="geometry" />
        </mxCell>
        <mxCell id="zMHJegEWsXh8E0n9ZEiD-138" value="&amp;nbsp;Loader 換 tray&amp;nbsp;" style="edgeLabel;html=1;align=center;verticalAlign=middle;resizable=0;points=[];fontSize=10;fontFamily=Tahoma;" vertex="1" connectable="0" parent="zMHJegEWsXh8E0n9ZEiD-137">
          <mxGeometry x="0.2969" y="1" relative="1" as="geometry">
            <mxPoint x="-20" y="1" as="offset" />
          </mxGeometry>
        </mxCell>
        <mxCell id="zMHJegEWsXh8E0n9ZEiD-139" value="QA Gate" style="swimlane;fontFamily=Tahoma;fontSize=10;" vertex="1" parent="zMHJegEWsXh8E0n9ZEiD-120">
          <mxGeometry x="1270" y="42" width="460" height="165" as="geometry">
            <mxRectangle x="1270" y="42" width="80" height="30" as="alternateBounds" />
          </mxGeometry>
        </mxCell>
        <mxCell id="zMHJegEWsXh8E0n9ZEiD-140" value="SPD-V" style="rounded=1;whiteSpace=wrap;html=1;absoluteArcSize=1;arcSize=14;strokeWidth=2;flipH=1;" vertex="1" parent="zMHJegEWsXh8E0n9ZEiD-139">
          <mxGeometry x="35" y="90" width="100" height="60" as="geometry" />
        </mxCell>
        <mxCell id="zMHJegEWsXh8E0n9ZEiD-141" value="FT" style="rounded=1;whiteSpace=wrap;html=1;absoluteArcSize=1;arcSize=14;strokeWidth=2;flipH=1;" vertex="1" parent="zMHJegEWsXh8E0n9ZEiD-139">
          <mxGeometry x="175" y="90" width="100" height="60" as="geometry" />
        </mxCell>
        <mxCell id="zMHJegEWsXh8E0n9ZEiD-142" value="" style="edgeStyle=orthogonalEdgeStyle;rounded=0;orthogonalLoop=1;jettySize=auto;html=1;fontFamily=Tahoma;fontSize=10;" edge="1" parent="zMHJegEWsXh8E0n9ZEiD-139" source="zMHJegEWsXh8E0n9ZEiD-140" target="zMHJegEWsXh8E0n9ZEiD-141">
          <mxGeometry relative="1" as="geometry" />
        </mxCell>
        <mxCell id="zMHJegEWsXh8E0n9ZEiD-143" value="QA VI" style="rounded=1;whiteSpace=wrap;html=1;absoluteArcSize=1;arcSize=14;strokeWidth=2;flipH=1;" vertex="1" parent="zMHJegEWsXh8E0n9ZEiD-139">
          <mxGeometry x="325" y="90" width="100" height="60" as="geometry" />
        </mxCell>
        <mxCell id="zMHJegEWsXh8E0n9ZEiD-144" style="edgeStyle=orthogonalEdgeStyle;rounded=0;orthogonalLoop=1;jettySize=auto;html=1;fontFamily=Tahoma;fontSize=10;" edge="1" parent="zMHJegEWsXh8E0n9ZEiD-139" source="zMHJegEWsXh8E0n9ZEiD-141" target="zMHJegEWsXh8E0n9ZEiD-143">
          <mxGeometry relative="1" as="geometry" />
        </mxCell>
        <mxCell id="zMHJegEWsXh8E0n9ZEiD-145" value="&lt;ul&gt;&lt;li&gt;&lt;font color=&quot;#666666&quot;&gt;Re-sampling at each step&lt;/font&gt;&lt;/li&gt;&lt;/ul&gt;" style="shape=note;whiteSpace=wrap;html=1;backgroundOutline=1;darkOpacity=0.05;fontSize=10;align=left;fontFamily=Tahoma;size=10;" vertex="1" parent="zMHJegEWsXh8E0n9ZEiD-139">
          <mxGeometry y="23" width="130" height="40" as="geometry" />
        </mxCell>
        <mxCell id="zMHJegEWsXh8E0n9ZEiD-146" value="" style="edgeStyle=orthogonalEdgeStyle;rounded=0;orthogonalLoop=1;jettySize=auto;html=1;fontFamily=Tahoma;fontSize=10;entryX=0;entryY=0.5;entryDx=0;entryDy=0;" edge="1" parent="zMHJegEWsXh8E0n9ZEiD-120" source="zMHJegEWsXh8E0n9ZEiD-121" target="zMHJegEWsXh8E0n9ZEiD-140">
          <mxGeometry relative="1" as="geometry" />
        </mxCell>
        <mxCell id="zMHJegEWsXh8E0n9ZEiD-147" value="      Flash" style="swimlane;fontFamily=Tahoma;fontSize=10;align=left;" vertex="1" parent="zMHJegEWsXh8E0n9ZEiD-119">
          <mxGeometry x="40" y="345" width="1770" height="262" as="geometry">
            <mxRectangle x="40" y="345" width="70" height="30" as="alternateBounds" />
          </mxGeometry>
        </mxCell>
        <mxCell id="zMHJegEWsXh8E0n9ZEiD-148" value="QC VI" style="rounded=1;whiteSpace=wrap;html=1;absoluteArcSize=1;arcSize=14;strokeWidth=2;" vertex="1" parent="zMHJegEWsXh8E0n9ZEiD-147">
          <mxGeometry x="1118" y="70" width="100" height="60" as="geometry" />
        </mxCell>
        <mxCell id="zMHJegEWsXh8E0n9ZEiD-149" value="" style="group" vertex="1" connectable="0" parent="zMHJegEWsXh8E0n9ZEiD-147">
          <mxGeometry x="938" y="70" width="143" height="95" as="geometry" />
        </mxCell>
        <mxCell id="zMHJegEWsXh8E0n9ZEiD-150" value="QC Labeling" style="rounded=1;whiteSpace=wrap;html=1;absoluteArcSize=1;arcSize=14;strokeWidth=2;" vertex="1" parent="zMHJegEWsXh8E0n9ZEiD-149">
          <mxGeometry width="100" height="60" as="geometry" />
        </mxCell>
        <mxCell id="zMHJegEWsXh8E0n9ZEiD-151" value="&lt;ul&gt;&lt;li&gt;&lt;font color=&quot;#666666&quot;&gt;Read S/N&lt;/font&gt;&lt;/li&gt;&lt;li&gt;&lt;font color=&quot;#666666&quot;&gt;Print &amp;amp; paste label&lt;/font&gt;&lt;/li&gt;&lt;/ul&gt;" style="shape=note;whiteSpace=wrap;html=1;backgroundOutline=1;darkOpacity=0.05;fontSize=10;align=left;fontFamily=Tahoma;size=10;" vertex="1" parent="zMHJegEWsXh8E0n9ZEiD-149">
          <mxGeometry y="60" width="143" height="35" as="geometry" />
        </mxCell>
        <mxCell id="zMHJegEWsXh8E0n9ZEiD-152" value="" style="group" vertex="1" connectable="0" parent="zMHJegEWsXh8E0n9ZEiD-147">
          <mxGeometry x="578" y="70" width="143" height="95" as="geometry" />
        </mxCell>
        <mxCell id="zMHJegEWsXh8E0n9ZEiD-153" value="FTB" style="rounded=1;whiteSpace=wrap;html=1;absoluteArcSize=1;arcSize=14;strokeWidth=2;" vertex="1" parent="zMHJegEWsXh8E0n9ZEiD-152">
          <mxGeometry width="100" height="60" as="geometry" />
        </mxCell>
        <mxCell id="zMHJegEWsXh8E0n9ZEiD-154" value="&lt;ul&gt;&lt;li&gt;&lt;font color=&quot;#666666&quot;&gt;Verify FTA、MST results&lt;/font&gt;&lt;/li&gt;&lt;/ul&gt;" style="shape=note;whiteSpace=wrap;html=1;backgroundOutline=1;darkOpacity=0.05;fontSize=10;align=left;fontFamily=Tahoma;size=10;" vertex="1" parent="zMHJegEWsXh8E0n9ZEiD-152">
          <mxGeometry y="60" width="143" height="35" as="geometry" />
        </mxCell>
        <mxCell id="zMHJegEWsXh8E0n9ZEiD-155" value="" style="group" vertex="1" connectable="0" parent="zMHJegEWsXh8E0n9ZEiD-147">
          <mxGeometry x="361" y="70" width="170" height="125" as="geometry" />
        </mxCell>
        <mxCell id="zMHJegEWsXh8E0n9ZEiD-156" value="MST" style="rounded=1;whiteSpace=wrap;html=1;absoluteArcSize=1;arcSize=14;strokeWidth=2;" vertex="1" parent="zMHJegEWsXh8E0n9ZEiD-155">
          <mxGeometry width="100" height="60" as="geometry" />
        </mxCell>
        <mxCell id="zMHJegEWsXh8E0n9ZEiD-157" value="&lt;ul&gt;&lt;li&gt;&lt;font color=&quot;#666666&quot;&gt;Testing board has barcode&lt;/font&gt;&lt;/li&gt;&lt;li&gt;&lt;font color=&quot;#666666&quot;&gt;Oven slot has barcode&lt;/font&gt;&lt;/li&gt;&lt;li&gt;&lt;font color=&quot;#666666&quot;&gt;Cart&#39;s rack&amp;nbsp;position is correspond to oven slots&lt;/font&gt;&lt;/li&gt;&lt;li&gt;&lt;font color=&quot;#666666&quot;&gt;Diff. cart for diff. oven type&lt;/font&gt;&lt;/li&gt;&lt;/ul&gt;" style="shape=note;whiteSpace=wrap;html=1;backgroundOutline=1;darkOpacity=0.05;fontSize=10;align=left;fontFamily=Tahoma;size=10;" vertex="1" parent="zMHJegEWsXh8E0n9ZEiD-155">
          <mxGeometry y="60" width="170" height="65" as="geometry" />
        </mxCell>
        <mxCell id="zMHJegEWsXh8E0n9ZEiD-158" value="" style="group" vertex="1" connectable="0" parent="zMHJegEWsXh8E0n9ZEiD-147">
          <mxGeometry x="81" y="70" width="180" height="130" as="geometry" />
        </mxCell>
        <mxCell id="zMHJegEWsXh8E0n9ZEiD-159" value="FTA" style="rounded=1;whiteSpace=wrap;html=1;absoluteArcSize=1;arcSize=14;strokeWidth=2;" vertex="1" parent="zMHJegEWsXh8E0n9ZEiD-158">
          <mxGeometry width="100" height="60" as="geometry" />
        </mxCell>
        <mxCell id="zMHJegEWsXh8E0n9ZEiD-160" value="&lt;ul&gt;&lt;li&gt;&lt;span style=&quot;color: rgb(102 , 102 , 102)&quot;&gt;FTA、FTB has diff. program (recipe on run card)&lt;/span&gt;&lt;/li&gt;&lt;li&gt;&lt;span style=&quot;color: rgb(102 , 102 , 102)&quot;&gt;MT/AT&lt;/span&gt;&lt;/li&gt;&lt;ul&gt;&lt;li&gt;&lt;font color=&quot;#666666&quot;&gt;AT first&lt;/font&gt;&lt;/li&gt;&lt;li&gt;&lt;font color=&quot;#666666&quot;&gt;MT if cased&lt;/font&gt;&lt;/li&gt;&lt;/ul&gt;&lt;/ul&gt;" style="shape=note;whiteSpace=wrap;html=1;backgroundOutline=1;darkOpacity=0.05;fontSize=10;align=left;fontFamily=Tahoma;size=10;perimeterSpacing=0;" vertex="1" parent="zMHJegEWsXh8E0n9ZEiD-158">
          <mxGeometry y="60" width="180" height="70" as="geometry" />
        </mxCell>
        <mxCell id="zMHJegEWsXh8E0n9ZEiD-161" value="" style="edgeStyle=orthogonalEdgeStyle;rounded=0;orthogonalLoop=1;jettySize=auto;html=1;fontFamily=Tahoma;fontSize=10;" edge="1" parent="zMHJegEWsXh8E0n9ZEiD-147" source="zMHJegEWsXh8E0n9ZEiD-150" target="zMHJegEWsXh8E0n9ZEiD-148">
          <mxGeometry relative="1" as="geometry" />
        </mxCell>
        <mxCell id="zMHJegEWsXh8E0n9ZEiD-162" value="" style="edgeStyle=orthogonalEdgeStyle;rounded=0;orthogonalLoop=1;jettySize=auto;html=1;fontFamily=Tahoma;fontSize=10;" edge="1" parent="zMHJegEWsXh8E0n9ZEiD-147" source="zMHJegEWsXh8E0n9ZEiD-156" target="zMHJegEWsXh8E0n9ZEiD-153">
          <mxGeometry relative="1" as="geometry" />
        </mxCell>
        <mxCell id="zMHJegEWsXh8E0n9ZEiD-163" value="" style="edgeStyle=orthogonalEdgeStyle;rounded=0;orthogonalLoop=1;jettySize=auto;html=1;fontFamily=Tahoma;fontSize=10;" edge="1" parent="zMHJegEWsXh8E0n9ZEiD-147" source="zMHJegEWsXh8E0n9ZEiD-159" target="zMHJegEWsXh8E0n9ZEiD-156">
          <mxGeometry relative="1" as="geometry" />
        </mxCell>
        <mxCell id="zMHJegEWsXh8E0n9ZEiD-164" value="Loader load onto testing board" style="edgeLabel;html=1;align=center;verticalAlign=middle;resizable=0;points=[];fontSize=10;fontFamily=Tahoma;" vertex="1" connectable="0" parent="zMHJegEWsXh8E0n9ZEiD-163">
          <mxGeometry x="-0.1329" y="-1" relative="1" as="geometry">
            <mxPoint x="2" y="-1" as="offset" />
          </mxGeometry>
        </mxCell>
        <mxCell id="zMHJegEWsXh8E0n9ZEiD-165" value="QA Gate" style="swimlane;fontFamily=Tahoma;fontSize=10;" vertex="1" parent="zMHJegEWsXh8E0n9ZEiD-147">
          <mxGeometry x="1340" y="42.5" width="350" height="167.5" as="geometry">
            <mxRectangle x="1340" y="42.5" width="80" height="30" as="alternateBounds" />
          </mxGeometry>
        </mxCell>
        <mxCell id="zMHJegEWsXh8E0n9ZEiD-166" value="" style="edgeStyle=orthogonalEdgeStyle;rounded=0;orthogonalLoop=1;jettySize=auto;html=1;fontFamily=Tahoma;fontSize=10;" edge="1" parent="zMHJegEWsXh8E0n9ZEiD-165" source="zMHJegEWsXh8E0n9ZEiD-169" target="zMHJegEWsXh8E0n9ZEiD-167">
          <mxGeometry relative="1" as="geometry">
            <mxPoint x="170" y="85" as="targetPoint" />
          </mxGeometry>
        </mxCell>
        <mxCell id="zMHJegEWsXh8E0n9ZEiD-167" value="QA VI" style="rounded=1;whiteSpace=wrap;html=1;absoluteArcSize=1;arcSize=14;strokeWidth=2;" vertex="1" parent="zMHJegEWsXh8E0n9ZEiD-165">
          <mxGeometry x="215" y="52.5" width="100" height="60" as="geometry" />
        </mxCell>
        <mxCell id="zMHJegEWsXh8E0n9ZEiD-168" value="" style="group" vertex="1" connectable="0" parent="zMHJegEWsXh8E0n9ZEiD-165">
          <mxGeometry x="35" y="52.5" width="143" height="95" as="geometry" />
        </mxCell>
        <mxCell id="zMHJegEWsXh8E0n9ZEiD-169" value="QA Labeling" style="rounded=1;whiteSpace=wrap;html=1;absoluteArcSize=1;arcSize=14;strokeWidth=2;" vertex="1" parent="zMHJegEWsXh8E0n9ZEiD-168">
          <mxGeometry width="100" height="60" as="geometry" />
        </mxCell>
        <mxCell id="zMHJegEWsXh8E0n9ZEiD-170" value="&lt;ul&gt;&lt;li&gt;&lt;font color=&quot;#666666&quot;&gt;Same program as the QC Labeling&lt;/font&gt;&lt;/li&gt;&lt;/ul&gt;" style="shape=note;whiteSpace=wrap;html=1;backgroundOutline=1;darkOpacity=0.05;fontSize=10;align=left;fontFamily=Tahoma;size=10;" vertex="1" parent="zMHJegEWsXh8E0n9ZEiD-168">
          <mxGeometry y="60" width="143" height="35" as="geometry" />
        </mxCell>
        <mxCell id="zMHJegEWsXh8E0n9ZEiD-171" value="" style="edgeStyle=orthogonalEdgeStyle;rounded=0;orthogonalLoop=1;jettySize=auto;html=1;fontFamily=Tahoma;fontSize=10;" edge="1" parent="zMHJegEWsXh8E0n9ZEiD-147" source="zMHJegEWsXh8E0n9ZEiD-148" target="zMHJegEWsXh8E0n9ZEiD-169">
          <mxGeometry relative="1" as="geometry">
            <mxPoint x="1307" y="240" as="targetPoint" />
          </mxGeometry>
        </mxCell>
        <mxCell id="zMHJegEWsXh8E0n9ZEiD-172" value="" style="group" vertex="1" connectable="0" parent="zMHJegEWsXh8E0n9ZEiD-147">
          <mxGeometry x="760" y="70" width="143" height="95" as="geometry" />
        </mxCell>
        <mxCell id="zMHJegEWsXh8E0n9ZEiD-173" value="Assembly" style="rounded=1;whiteSpace=wrap;html=1;absoluteArcSize=1;arcSize=14;strokeWidth=2;" vertex="1" parent="zMHJegEWsXh8E0n9ZEiD-172">
          <mxGeometry width="100" height="60" as="geometry" />
        </mxCell>
        <mxCell id="zMHJegEWsXh8E0n9ZEiD-174" value="&lt;ul&gt;&lt;li&gt;&lt;font color=&quot;#666666&quot;&gt;Assy. the SSD casing&lt;/font&gt;&lt;/li&gt;&lt;/ul&gt;" style="shape=note;whiteSpace=wrap;html=1;backgroundOutline=1;darkOpacity=0.05;fontSize=10;align=left;fontFamily=Tahoma;size=10;" vertex="1" parent="zMHJegEWsXh8E0n9ZEiD-172">
          <mxGeometry y="60" width="143" height="35" as="geometry" />
        </mxCell>
        <mxCell id="zMHJegEWsXh8E0n9ZEiD-175" value="" style="edgeStyle=orthogonalEdgeStyle;rounded=0;orthogonalLoop=1;jettySize=auto;html=1;fontFamily=Tahoma;fontSize=10;" edge="1" parent="zMHJegEWsXh8E0n9ZEiD-147" source="zMHJegEWsXh8E0n9ZEiD-153" target="zMHJegEWsXh8E0n9ZEiD-173">
          <mxGeometry relative="1" as="geometry">
            <mxPoint x="758" y="100" as="targetPoint" />
          </mxGeometry>
        </mxCell>
        <mxCell id="zMHJegEWsXh8E0n9ZEiD-176" value="" style="edgeStyle=orthogonalEdgeStyle;rounded=0;orthogonalLoop=1;jettySize=auto;html=1;fontFamily=Tahoma;fontSize=10;" edge="1" parent="zMHJegEWsXh8E0n9ZEiD-147" source="zMHJegEWsXh8E0n9ZEiD-173" target="zMHJegEWsXh8E0n9ZEiD-150">
          <mxGeometry relative="1" as="geometry">
            <mxPoint x="858" y="100" as="sourcePoint" />
          </mxGeometry>
        </mxCell>
        <mxCell id="zMHJegEWsXh8E0n9ZEiD-177" value="      CM - Kioxia" style="swimlane;fontFamily=Tahoma;fontSize=10;align=left;" vertex="1" parent="zMHJegEWsXh8E0n9ZEiD-119">
          <mxGeometry x="40" y="638" width="2570" height="322" as="geometry">
            <mxRectangle x="40" y="638" width="70" height="30" as="alternateBounds" />
          </mxGeometry>
        </mxCell>
        <mxCell id="zMHJegEWsXh8E0n9ZEiD-178" value="&lt;ul&gt;&lt;li&gt;&lt;span style=&quot;color: rgb(102, 102, 102); background-color: initial;&quot;&gt;Has retest (limited times)&lt;/span&gt;&lt;/li&gt;&lt;li&gt;&lt;span style=&quot;color: rgb(102, 102, 102); background-color: initial;&quot;&gt;CM report&lt;/span&gt;&lt;/li&gt;&lt;li&gt;&lt;span style=&quot;color: rgb(102, 102, 102); background-color: initial;&quot;&gt;Fail&lt;/span&gt;&lt;/li&gt;&lt;ul&gt;&lt;li&gt;&lt;font color=&quot;#666666&quot;&gt;FT, VI: reject&lt;/font&gt;&lt;/li&gt;&lt;li&gt;&lt;font color=&quot;#666666&quot;&gt;Label: reprint&lt;/font&gt;&lt;/li&gt;&lt;/ul&gt;&lt;/ul&gt;" style="shape=note;whiteSpace=wrap;html=1;backgroundOutline=1;darkOpacity=0.05;fontSize=10;align=left;fontFamily=Tahoma;size=10;perimeterSpacing=0;" vertex="1" parent="zMHJegEWsXh8E0n9ZEiD-177">
          <mxGeometry y="22" width="170" height="70" as="geometry" />
        </mxCell>
        <mxCell id="zMHJegEWsXh8E0n9ZEiD-179" value="" style="group" vertex="1" connectable="0" parent="zMHJegEWsXh8E0n9ZEiD-177">
          <mxGeometry x="1351" y="119.5" width="100" height="60" as="geometry" />
        </mxCell>
        <mxCell id="zMHJegEWsXh8E0n9ZEiD-180" value="FT-2" style="rounded=1;whiteSpace=wrap;html=1;absoluteArcSize=1;arcSize=14;strokeWidth=2;" vertex="1" parent="zMHJegEWsXh8E0n9ZEiD-179">
          <mxGeometry width="100" height="60" as="geometry" />
        </mxCell>
        <mxCell id="zMHJegEWsXh8E0n9ZEiD-181" value="" style="group" vertex="1" connectable="0" parent="zMHJegEWsXh8E0n9ZEiD-177">
          <mxGeometry x="951" y="119.5" width="130" height="100" as="geometry" />
        </mxCell>
        <mxCell id="zMHJegEWsXh8E0n9ZEiD-182" value="FT0" style="rounded=1;whiteSpace=wrap;html=1;absoluteArcSize=1;arcSize=14;strokeWidth=2;" vertex="1" parent="zMHJegEWsXh8E0n9ZEiD-181">
          <mxGeometry width="100" height="60" as="geometry" />
        </mxCell>
        <mxCell id="zMHJegEWsXh8E0n9ZEiD-183" value="&lt;ul&gt;&lt;li&gt;&lt;font color=&quot;#666666&quot;&gt;Load manually&lt;/font&gt;&lt;/li&gt;&lt;li&gt;&lt;font color=&quot;#666666&quot;&gt;AT/MT test&lt;/font&gt;&lt;/li&gt;&lt;/ul&gt;" style="shape=note;whiteSpace=wrap;html=1;backgroundOutline=1;darkOpacity=0.05;fontSize=10;align=left;fontFamily=Tahoma;size=10;perimeterSpacing=0;" vertex="1" parent="zMHJegEWsXh8E0n9ZEiD-181">
          <mxGeometry y="60" width="130" height="40" as="geometry" />
        </mxCell>
        <mxCell id="zMHJegEWsXh8E0n9ZEiD-184" value="" style="edgeStyle=orthogonalEdgeStyle;rounded=0;orthogonalLoop=1;jettySize=auto;html=1;fontFamily=Tahoma;fontSize=10;" edge="1" parent="zMHJegEWsXh8E0n9ZEiD-177" source="zMHJegEWsXh8E0n9ZEiD-205" target="zMHJegEWsXh8E0n9ZEiD-217">
          <mxGeometry relative="1" as="geometry" />
        </mxCell>
        <mxCell id="zMHJegEWsXh8E0n9ZEiD-185" value="" style="edgeStyle=orthogonalEdgeStyle;rounded=0;orthogonalLoop=1;jettySize=auto;html=1;fontFamily=Tahoma;fontSize=10;" edge="1" parent="zMHJegEWsXh8E0n9ZEiD-177" source="zMHJegEWsXh8E0n9ZEiD-199" target="zMHJegEWsXh8E0n9ZEiD-208">
          <mxGeometry relative="1" as="geometry" />
        </mxCell>
        <mxCell id="zMHJegEWsXh8E0n9ZEiD-186" value="" style="edgeStyle=orthogonalEdgeStyle;rounded=0;orthogonalLoop=1;jettySize=auto;html=1;fontFamily=Tahoma;fontSize=10;" edge="1" parent="zMHJegEWsXh8E0n9ZEiD-177" source="zMHJegEWsXh8E0n9ZEiD-182" target="zMHJegEWsXh8E0n9ZEiD-199">
          <mxGeometry relative="1" as="geometry" />
        </mxCell>
        <mxCell id="zMHJegEWsXh8E0n9ZEiD-187" value="" style="edgeStyle=orthogonalEdgeStyle;rounded=0;orthogonalLoop=1;jettySize=auto;html=1;fontFamily=Tahoma;fontSize=10;" edge="1" parent="zMHJegEWsXh8E0n9ZEiD-177" source="zMHJegEWsXh8E0n9ZEiD-217" target="zMHJegEWsXh8E0n9ZEiD-238">
          <mxGeometry relative="1" as="geometry">
            <mxPoint x="1498" y="242" as="targetPoint" />
          </mxGeometry>
        </mxCell>
        <mxCell id="zMHJegEWsXh8E0n9ZEiD-188" value="" style="edgeStyle=orthogonalEdgeStyle;rounded=0;orthogonalLoop=1;jettySize=auto;html=1;fontFamily=Tahoma;fontSize=10;" edge="1" parent="zMHJegEWsXh8E0n9ZEiD-177" source="zMHJegEWsXh8E0n9ZEiD-180" target="zMHJegEWsXh8E0n9ZEiD-211">
          <mxGeometry relative="1" as="geometry">
            <mxPoint x="949" y="102" as="targetPoint" />
          </mxGeometry>
        </mxCell>
        <mxCell id="zMHJegEWsXh8E0n9ZEiD-189" value="" style="edgeStyle=orthogonalEdgeStyle;rounded=0;orthogonalLoop=1;jettySize=auto;html=1;fontFamily=Tahoma;fontSize=10;" edge="1" parent="zMHJegEWsXh8E0n9ZEiD-177" source="zMHJegEWsXh8E0n9ZEiD-211" target="zMHJegEWsXh8E0n9ZEiD-214">
          <mxGeometry relative="1" as="geometry">
            <mxPoint x="1049" y="102" as="sourcePoint" />
          </mxGeometry>
        </mxCell>
        <mxCell id="zMHJegEWsXh8E0n9ZEiD-190" style="edgeStyle=orthogonalEdgeStyle;rounded=0;orthogonalLoop=1;jettySize=auto;html=1;" edge="1" parent="zMHJegEWsXh8E0n9ZEiD-177" source="zMHJegEWsXh8E0n9ZEiD-222" target="zMHJegEWsXh8E0n9ZEiD-194">
          <mxGeometry relative="1" as="geometry">
            <mxPoint x="461" y="150" as="targetPoint" />
          </mxGeometry>
        </mxCell>
        <mxCell id="zMHJegEWsXh8E0n9ZEiD-191" value="Scan barcode" style="edgeLabel;html=1;align=center;verticalAlign=middle;resizable=0;points=[];" vertex="1" connectable="0" parent="zMHJegEWsXh8E0n9ZEiD-190">
          <mxGeometry x="-0.1559" relative="1" as="geometry">
            <mxPoint as="offset" />
          </mxGeometry>
        </mxCell>
        <mxCell id="zMHJegEWsXh8E0n9ZEiD-192" value="" style="edgeStyle=orthogonalEdgeStyle;rounded=0;orthogonalLoop=1;jettySize=auto;html=1;" edge="1" parent="zMHJegEWsXh8E0n9ZEiD-177" source="zMHJegEWsXh8E0n9ZEiD-194" target="zMHJegEWsXh8E0n9ZEiD-227">
          <mxGeometry relative="1" as="geometry" />
        </mxCell>
        <mxCell id="zMHJegEWsXh8E0n9ZEiD-193" value="" style="group" vertex="1" connectable="0" parent="zMHJegEWsXh8E0n9ZEiD-177">
          <mxGeometry x="418" y="119.5" width="100" height="60" as="geometry" />
        </mxCell>
        <mxCell id="zMHJegEWsXh8E0n9ZEiD-194" value="QC VI after UF" style="rounded=1;whiteSpace=wrap;html=1;absoluteArcSize=1;arcSize=14;strokeWidth=2;" vertex="1" parent="zMHJegEWsXh8E0n9ZEiD-193">
          <mxGeometry width="100" height="60" as="geometry" />
        </mxCell>
        <mxCell id="zMHJegEWsXh8E0n9ZEiD-195" style="edgeStyle=orthogonalEdgeStyle;rounded=0;orthogonalLoop=1;jettySize=auto;html=1;" edge="1" parent="zMHJegEWsXh8E0n9ZEiD-177" source="zMHJegEWsXh8E0n9ZEiD-227" target="zMHJegEWsXh8E0n9ZEiD-233">
          <mxGeometry relative="1" as="geometry" />
        </mxCell>
        <mxCell id="zMHJegEWsXh8E0n9ZEiD-196" style="edgeStyle=orthogonalEdgeStyle;rounded=0;orthogonalLoop=1;jettySize=auto;html=1;" edge="1" parent="zMHJegEWsXh8E0n9ZEiD-177" source="zMHJegEWsXh8E0n9ZEiD-197" target="zMHJegEWsXh8E0n9ZEiD-182">
          <mxGeometry relative="1" as="geometry" />
        </mxCell>
        <mxCell id="zMHJegEWsXh8E0n9ZEiD-197" value="QC VI" style="rounded=1;whiteSpace=wrap;html=1;absoluteArcSize=1;arcSize=14;strokeWidth=2;" vertex="1" parent="zMHJegEWsXh8E0n9ZEiD-177">
          <mxGeometry x="831" y="119.5" width="100" height="60" as="geometry" />
        </mxCell>
        <mxCell id="zMHJegEWsXh8E0n9ZEiD-198" value="" style="edgeStyle=orthogonalEdgeStyle;rounded=0;orthogonalLoop=1;jettySize=auto;html=1;" edge="1" parent="zMHJegEWsXh8E0n9ZEiD-177" source="zMHJegEWsXh8E0n9ZEiD-233" target="zMHJegEWsXh8E0n9ZEiD-197">
          <mxGeometry relative="1" as="geometry">
            <mxPoint x="811" y="102" as="sourcePoint" />
          </mxGeometry>
        </mxCell>
        <mxCell id="zMHJegEWsXh8E0n9ZEiD-199" value="MST" style="rounded=1;whiteSpace=wrap;html=1;absoluteArcSize=1;arcSize=14;strokeWidth=2;" vertex="1" parent="zMHJegEWsXh8E0n9ZEiD-177">
          <mxGeometry x="1091" y="119.5" width="100" height="60" as="geometry" />
        </mxCell>
        <mxCell id="zMHJegEWsXh8E0n9ZEiD-200" style="edgeStyle=orthogonalEdgeStyle;rounded=0;orthogonalLoop=1;jettySize=auto;html=1;" edge="1" parent="zMHJegEWsXh8E0n9ZEiD-177" source="zMHJegEWsXh8E0n9ZEiD-208" target="zMHJegEWsXh8E0n9ZEiD-180">
          <mxGeometry relative="1" as="geometry" />
        </mxCell>
        <mxCell id="zMHJegEWsXh8E0n9ZEiD-201" style="edgeStyle=orthogonalEdgeStyle;rounded=0;orthogonalLoop=1;jettySize=auto;html=1;" edge="1" parent="zMHJegEWsXh8E0n9ZEiD-177" source="zMHJegEWsXh8E0n9ZEiD-214" target="zMHJegEWsXh8E0n9ZEiD-205">
          <mxGeometry relative="1" as="geometry" />
        </mxCell>
        <mxCell id="zMHJegEWsXh8E0n9ZEiD-202" value="" style="group" vertex="1" connectable="0" parent="zMHJegEWsXh8E0n9ZEiD-177">
          <mxGeometry x="1821" y="119.5" width="180" height="95" as="geometry" />
        </mxCell>
        <mxCell id="zMHJegEWsXh8E0n9ZEiD-203" value="" style="group" vertex="1" connectable="0" parent="zMHJegEWsXh8E0n9ZEiD-202">
          <mxGeometry width="180" height="95" as="geometry" />
        </mxCell>
        <mxCell id="zMHJegEWsXh8E0n9ZEiD-204" value="" style="group" vertex="1" connectable="0" parent="zMHJegEWsXh8E0n9ZEiD-203">
          <mxGeometry width="180" height="95" as="geometry" />
        </mxCell>
        <mxCell id="zMHJegEWsXh8E0n9ZEiD-205" value="QC VI" style="rounded=1;whiteSpace=wrap;html=1;absoluteArcSize=1;arcSize=14;strokeWidth=2;" vertex="1" parent="zMHJegEWsXh8E0n9ZEiD-204">
          <mxGeometry width="100" height="60" as="geometry" />
        </mxCell>
        <mxCell id="zMHJegEWsXh8E0n9ZEiD-206" value="&lt;ul&gt;&lt;li&gt;&lt;font color=&quot;#666666&quot;&gt;Manual/Auto VI&lt;/font&gt;&lt;/li&gt;&lt;li&gt;&lt;font color=&quot;#666666&quot;&gt;T/B side (flip &amp;amp; change tray)&lt;/font&gt;&lt;/li&gt;&lt;/ul&gt;" style="shape=note;whiteSpace=wrap;html=1;backgroundOutline=1;darkOpacity=0.05;fontSize=10;align=left;fontFamily=Tahoma;size=10;" vertex="1" parent="zMHJegEWsXh8E0n9ZEiD-204">
          <mxGeometry y="60" width="180" height="35" as="geometry" />
        </mxCell>
        <mxCell id="zMHJegEWsXh8E0n9ZEiD-207" value="" style="group" vertex="1" connectable="0" parent="zMHJegEWsXh8E0n9ZEiD-177">
          <mxGeometry x="1211" y="119.5" width="140" height="110" as="geometry" />
        </mxCell>
        <mxCell id="zMHJegEWsXh8E0n9ZEiD-208" value="FT-1" style="rounded=1;whiteSpace=wrap;html=1;absoluteArcSize=1;arcSize=14;strokeWidth=2;" vertex="1" parent="zMHJegEWsXh8E0n9ZEiD-207">
          <mxGeometry width="100" height="60" as="geometry" />
        </mxCell>
        <mxCell id="zMHJegEWsXh8E0n9ZEiD-209" value="&lt;ul&gt;&lt;li&gt;&lt;font color=&quot;#666666&quot;&gt;Low temp test&lt;/font&gt;&lt;/li&gt;&lt;li&gt;&lt;font color=&quot;#666666&quot;&gt;Special product only (SKU w/ LLA suffix)&lt;/font&gt;&lt;/li&gt;&lt;/ul&gt;" style="shape=note;whiteSpace=wrap;html=1;backgroundOutline=1;darkOpacity=0.05;fontSize=10;align=left;fontFamily=Tahoma;size=10;perimeterSpacing=0;" vertex="1" parent="zMHJegEWsXh8E0n9ZEiD-207">
          <mxGeometry y="60" width="140" height="50" as="geometry" />
        </mxCell>
        <mxCell id="zMHJegEWsXh8E0n9ZEiD-210" value="" style="group" vertex="1" connectable="0" parent="zMHJegEWsXh8E0n9ZEiD-177">
          <mxGeometry x="1471" y="119.5" width="160" height="120" as="geometry" />
        </mxCell>
        <mxCell id="zMHJegEWsXh8E0n9ZEiD-211" value="Labeling" style="rounded=1;whiteSpace=wrap;html=1;absoluteArcSize=1;arcSize=14;strokeWidth=2;" vertex="1" parent="zMHJegEWsXh8E0n9ZEiD-210">
          <mxGeometry width="100" height="60" as="geometry" />
        </mxCell>
        <mxCell id="zMHJegEWsXh8E0n9ZEiD-212" value="&lt;ul&gt;&lt;li&gt;&lt;font color=&quot;#666666&quot;&gt;Scan barcode on PCBA&lt;/font&gt;&lt;/li&gt;&lt;li&gt;&lt;font color=&quot;#666666&quot;&gt;Print &amp;amp; Paste production barcode&lt;/font&gt;&lt;/li&gt;&lt;li&gt;&lt;font color=&quot;#666666&quot;&gt;Label by SKU&lt;/font&gt;&lt;/li&gt;&lt;/ul&gt;" style="shape=note;whiteSpace=wrap;html=1;backgroundOutline=1;darkOpacity=0.05;fontSize=10;align=left;fontFamily=Tahoma;size=10;" vertex="1" parent="zMHJegEWsXh8E0n9ZEiD-210">
          <mxGeometry y="60" width="160" height="60" as="geometry" />
        </mxCell>
        <mxCell id="zMHJegEWsXh8E0n9ZEiD-213" value="" style="group" vertex="1" connectable="0" parent="zMHJegEWsXh8E0n9ZEiD-177">
          <mxGeometry x="1641" y="119.5" width="160" height="130" as="geometry" />
        </mxCell>
        <mxCell id="zMHJegEWsXh8E0n9ZEiD-214" value="SFD" style="rounded=1;whiteSpace=wrap;html=1;absoluteArcSize=1;arcSize=14;strokeWidth=2;" vertex="1" parent="zMHJegEWsXh8E0n9ZEiD-213">
          <mxGeometry width="100" height="60" as="geometry" />
        </mxCell>
        <mxCell id="zMHJegEWsXh8E0n9ZEiD-215" value="&lt;ul&gt;&lt;li&gt;&lt;font color=&quot;#666666&quot;&gt;Final Test&lt;/font&gt;&lt;/li&gt;&lt;li&gt;&lt;font color=&quot;#666666&quot;&gt;Same as FT0, FT2&lt;/font&gt;&lt;/li&gt;&lt;li&gt;&lt;font color=&quot;#666666&quot;&gt;Read logs from previous test&lt;/font&gt;&lt;/li&gt;&lt;li&gt;&lt;font color=&quot;#666666&quot;&gt;Change tray for Auto VI&lt;/font&gt;&lt;/li&gt;&lt;/ul&gt;" style="shape=note;whiteSpace=wrap;html=1;backgroundOutline=1;darkOpacity=0.05;fontSize=10;align=left;fontFamily=Tahoma;size=10;" vertex="1" parent="zMHJegEWsXh8E0n9ZEiD-213">
          <mxGeometry y="60" width="160" height="70" as="geometry" />
        </mxCell>
        <mxCell id="zMHJegEWsXh8E0n9ZEiD-216" value="" style="group" vertex="1" connectable="0" parent="zMHJegEWsXh8E0n9ZEiD-177">
          <mxGeometry x="2018" y="118" width="140" height="180" as="geometry" />
        </mxCell>
        <mxCell id="zMHJegEWsXh8E0n9ZEiD-217" value="Packing" style="rounded=1;whiteSpace=wrap;html=1;absoluteArcSize=1;arcSize=14;strokeWidth=2;" vertex="1" parent="zMHJegEWsXh8E0n9ZEiD-216">
          <mxGeometry width="100" height="65" as="geometry" />
        </mxCell>
        <mxCell id="zMHJegEWsXh8E0n9ZEiD-218" value="&lt;ul&gt;&lt;li&gt;&lt;font color=&quot;#666666&quot;&gt;Scan product label&lt;/font&gt;&lt;/li&gt;&lt;li&gt;&lt;font color=&quot;#666666&quot;&gt;Pizza box label&lt;/font&gt;&lt;/li&gt;&lt;li&gt;&lt;font color=&quot;#666666&quot;&gt;Shipping tray lable&lt;/font&gt;&lt;/li&gt;&lt;li&gt;&lt;font color=&quot;#666666&quot;&gt;Packing label&lt;/font&gt;&lt;/li&gt;&lt;li&gt;&lt;font color=&quot;#666666&quot;&gt;Weight label&lt;/font&gt;&lt;/li&gt;&lt;/ul&gt;" style="shape=note;whiteSpace=wrap;html=1;backgroundOutline=1;darkOpacity=0.05;fontSize=10;align=left;fontFamily=Tahoma;size=10;" vertex="1" parent="zMHJegEWsXh8E0n9ZEiD-216">
          <mxGeometry y="65" width="140" height="75" as="geometry" />
        </mxCell>
        <UserObject label="📷 Pizza Box" link="https://kingstontechnology.sharepoint.com/:i:/s/MES/Efklf7kdQz1BtUNnWPuAZ6MBrxnYXRjI17Nrk1FdJKb-JQ?e=cLPwfe" linkTarget="_blank" id="zMHJegEWsXh8E0n9ZEiD-219">
          <mxCell style="dashed=0;html=1;fillColor=#F0F2F5;strokeColor=none;align=left;rounded=1;arcSize=10;fontColor=#3384FF;fontStyle=1;fontSize=11;shadow=0" vertex="1" parent="zMHJegEWsXh8E0n9ZEiD-216">
            <mxGeometry y="160" width="95" height="20" as="geometry" />
          </mxCell>
        </UserObject>
        <UserObject label="📷 Print Label" link="https://kingstontechnology.sharepoint.com/:i:/s/MES/EfczqwnEN65FkEtYT76gNgMBZsSd_JgHFVlA1xOT-EcNow?e=CxBbge" linkTarget="_blank" id="zMHJegEWsXh8E0n9ZEiD-220">
          <mxCell style="dashed=0;html=1;fillColor=#F0F2F5;strokeColor=none;align=left;rounded=1;arcSize=10;fontColor=#3384FF;fontStyle=1;fontSize=11;shadow=0" vertex="1" parent="zMHJegEWsXh8E0n9ZEiD-216">
            <mxGeometry y="140" width="95" height="20" as="geometry" />
          </mxCell>
        </UserObject>
        <mxCell id="zMHJegEWsXh8E0n9ZEiD-221" value="`" style="group" vertex="1" connectable="0" parent="zMHJegEWsXh8E0n9ZEiD-177">
          <mxGeometry x="220" y="120" width="190" height="160" as="geometry" />
        </mxCell>
        <mxCell id="zMHJegEWsXh8E0n9ZEiD-222" value="Underfill" style="rounded=1;whiteSpace=wrap;html=1;absoluteArcSize=1;arcSize=14;strokeWidth=2;" vertex="1" parent="zMHJegEWsXh8E0n9ZEiD-221">
          <mxGeometry width="100" height="60" as="geometry" />
        </mxCell>
        <mxCell id="zMHJegEWsXh8E0n9ZEiD-223" value="&lt;ul&gt;&lt;li&gt;&lt;font color=&quot;#666666&quot;&gt;Gluing Position: Under/Corner&lt;/font&gt;&lt;/li&gt;&lt;li&gt;&lt;font color=&quot;#666666&quot;&gt;Prog. by SKU&lt;/font&gt;&lt;/li&gt;&lt;li&gt;&lt;font color=&quot;#666666&quot;&gt;Glue&lt;/font&gt;&lt;/li&gt;&lt;ul&gt;&lt;li&gt;&lt;font color=&quot;#666666&quot;&gt;S/N&lt;/font&gt;&lt;/li&gt;&lt;li&gt;&lt;font color=&quot;#666666&quot;&gt;2 stage warm up (2+2)&lt;/font&gt;&lt;/li&gt;&lt;li&gt;&lt;font color=&quot;#666666&quot;&gt;Defined in BOM&lt;/font&gt;&lt;/li&gt;&lt;/ul&gt;&lt;/ul&gt;" style="shape=note;whiteSpace=wrap;html=1;backgroundOutline=1;darkOpacity=0.05;fontSize=10;align=left;fontFamily=Tahoma;size=10;perimeterSpacing=0;" vertex="1" parent="zMHJegEWsXh8E0n9ZEiD-221">
          <mxGeometry y="60" width="190" height="80" as="geometry" />
        </mxCell>
        <UserObject label="📷 UF Program" link="https://kingstontechnology.sharepoint.com/:i:/s/MES/Ec8i-G799KZEreZsNuEJzloBK1sg7jyuDxRtt2FRmFKUrw?e=Frv0Vl" linkTarget="_blank" id="zMHJegEWsXh8E0n9ZEiD-224">
          <mxCell style="dashed=0;html=1;fillColor=#F0F2F5;strokeColor=none;align=center;rounded=1;arcSize=10;fontColor=#3384FF;fontStyle=1;fontSize=11;shadow=0" vertex="1" parent="zMHJegEWsXh8E0n9ZEiD-221">
            <mxGeometry y="140" width="95" height="20" as="geometry" />
          </mxCell>
        </UserObject>
        <mxCell id="zMHJegEWsXh8E0n9ZEiD-225" value="" style="group" vertex="1" connectable="0" parent="zMHJegEWsXh8E0n9ZEiD-177">
          <mxGeometry x="540" y="120" width="151" height="111" as="geometry" />
        </mxCell>
        <mxCell id="zMHJegEWsXh8E0n9ZEiD-226" value="" style="group" vertex="1" connectable="0" parent="zMHJegEWsXh8E0n9ZEiD-225">
          <mxGeometry x="1" width="150" height="90" as="geometry" />
        </mxCell>
        <mxCell id="zMHJegEWsXh8E0n9ZEiD-227" value="Baking" style="rounded=1;whiteSpace=wrap;html=1;absoluteArcSize=1;arcSize=14;strokeWidth=2;" vertex="1" parent="zMHJegEWsXh8E0n9ZEiD-226">
          <mxGeometry width="100" height="60" as="geometry" />
        </mxCell>
        <mxCell id="zMHJegEWsXh8E0n9ZEiD-228" value="&lt;ul&gt;&lt;li&gt;&lt;font color=&quot;#666666&quot;&gt;Oven (Line) &amp;lt;&amp;gt; SKU&lt;/font&gt;&lt;/li&gt;&lt;/ul&gt;" style="shape=note;whiteSpace=wrap;html=1;backgroundOutline=1;darkOpacity=0.05;fontSize=10;align=left;fontFamily=Tahoma;size=10;perimeterSpacing=0;" vertex="1" parent="zMHJegEWsXh8E0n9ZEiD-226">
          <mxGeometry y="60" width="140" height="30" as="geometry" />
        </mxCell>
        <UserObject label="📷 Oven" link="https://kingstontechnology.sharepoint.com/:i:/s/MES/ESd0r97TphpCqa1nIH8RWUwB7W3gpZTt7BkcIcPg2VbTDw?e=3TJBL1" linkTarget="_blank" id="zMHJegEWsXh8E0n9ZEiD-229">
          <mxCell style="dashed=0;html=1;fillColor=#F0F2F5;strokeColor=none;align=center;rounded=1;arcSize=10;fontColor=#3384FF;fontStyle=1;fontSize=11;shadow=0" vertex="1" parent="zMHJegEWsXh8E0n9ZEiD-225">
            <mxGeometry y="90.5" width="95" height="20" as="geometry" />
          </mxCell>
        </UserObject>
        <mxCell id="zMHJegEWsXh8E0n9ZEiD-230" value="" style="group" vertex="1" connectable="0" parent="zMHJegEWsXh8E0n9ZEiD-177">
          <mxGeometry x="701" y="119.5" width="120" height="90" as="geometry" />
        </mxCell>
        <mxCell id="zMHJegEWsXh8E0n9ZEiD-231" value="" style="group" vertex="1" connectable="0" parent="zMHJegEWsXh8E0n9ZEiD-230">
          <mxGeometry width="120" height="90" as="geometry" />
        </mxCell>
        <mxCell id="zMHJegEWsXh8E0n9ZEiD-232" value="" style="group" vertex="1" connectable="0" parent="zMHJegEWsXh8E0n9ZEiD-231">
          <mxGeometry width="120" height="90" as="geometry" />
        </mxCell>
        <mxCell id="zMHJegEWsXh8E0n9ZEiD-233" value="Unload from Carrier" style="rounded=1;whiteSpace=wrap;html=1;absoluteArcSize=1;arcSize=14;strokeWidth=2;" vertex="1" parent="zMHJegEWsXh8E0n9ZEiD-232">
          <mxGeometry width="100" height="60" as="geometry" />
        </mxCell>
        <mxCell id="zMHJegEWsXh8E0n9ZEiD-234" value="&lt;ul&gt;&lt;li&gt;&lt;font color=&quot;#666666&quot;&gt;To tray (barcode)&lt;/font&gt;&lt;/li&gt;&lt;/ul&gt;" style="shape=note;whiteSpace=wrap;html=1;backgroundOutline=1;darkOpacity=0.05;fontSize=10;align=left;fontFamily=Tahoma;size=10;perimeterSpacing=0;" vertex="1" parent="zMHJegEWsXh8E0n9ZEiD-232">
          <mxGeometry y="60" width="120" height="30" as="geometry" />
        </mxCell>
        <mxCell id="zMHJegEWsXh8E0n9ZEiD-235" value="QA Gate" style="swimlane;fontFamily=Tahoma;fontSize=10;" vertex="1" parent="zMHJegEWsXh8E0n9ZEiD-177">
          <mxGeometry x="2201" y="68" width="350" height="167.5" as="geometry">
            <mxRectangle x="1340" y="42.5" width="80" height="30" as="alternateBounds" />
          </mxGeometry>
        </mxCell>
        <mxCell id="zMHJegEWsXh8E0n9ZEiD-236" value="" style="edgeStyle=orthogonalEdgeStyle;rounded=0;orthogonalLoop=1;jettySize=auto;html=1;fontFamily=Tahoma;fontSize=10;" edge="1" parent="zMHJegEWsXh8E0n9ZEiD-235" source="zMHJegEWsXh8E0n9ZEiD-238" target="zMHJegEWsXh8E0n9ZEiD-237">
          <mxGeometry relative="1" as="geometry">
            <mxPoint x="170" y="85" as="targetPoint" />
          </mxGeometry>
        </mxCell>
        <mxCell id="zMHJegEWsXh8E0n9ZEiD-237" value="QA VI" style="rounded=1;whiteSpace=wrap;html=1;absoluteArcSize=1;arcSize=14;strokeWidth=2;" vertex="1" parent="zMHJegEWsXh8E0n9ZEiD-235">
          <mxGeometry x="215" y="52.5" width="100" height="60" as="geometry" />
        </mxCell>
        <mxCell id="zMHJegEWsXh8E0n9ZEiD-238" value="QA Test" style="rounded=1;whiteSpace=wrap;html=1;absoluteArcSize=1;arcSize=14;strokeWidth=2;" vertex="1" parent="zMHJegEWsXh8E0n9ZEiD-235">
          <mxGeometry x="35" y="52.5" width="100" height="60" as="geometry" />
        </mxCell>
        <mxCell id="zMHJegEWsXh8E0n9ZEiD-239" style="edgeStyle=orthogonalEdgeStyle;rounded=0;orthogonalLoop=1;jettySize=auto;html=1;" edge="1" parent="zMHJegEWsXh8E0n9ZEiD-177" source="zMHJegEWsXh8E0n9ZEiD-243" target="zMHJegEWsXh8E0n9ZEiD-222">
          <mxGeometry relative="1" as="geometry" />
        </mxCell>
        <mxCell id="zMHJegEWsXh8E0n9ZEiD-240" value="Scan barcode" style="edgeLabel;html=1;align=center;verticalAlign=middle;resizable=0;points=[];" vertex="1" connectable="0" parent="zMHJegEWsXh8E0n9ZEiD-239">
          <mxGeometry x="-0.1958" y="2" relative="1" as="geometry">
            <mxPoint as="offset" />
          </mxGeometry>
        </mxCell>
        <mxCell id="zMHJegEWsXh8E0n9ZEiD-241" value="" style="group" vertex="1" connectable="0" parent="zMHJegEWsXh8E0n9ZEiD-177">
          <mxGeometry x="23" y="119" width="151" height="170" as="geometry" />
        </mxCell>
        <mxCell id="zMHJegEWsXh8E0n9ZEiD-242" value="" style="group" vertex="1" connectable="0" parent="zMHJegEWsXh8E0n9ZEiD-241">
          <mxGeometry x="0.5" width="150" height="130" as="geometry" />
        </mxCell>
        <mxCell id="zMHJegEWsXh8E0n9ZEiD-243" value="Load onto carrier" style="rounded=1;whiteSpace=wrap;html=1;absoluteArcSize=1;arcSize=14;strokeWidth=2;" vertex="1" parent="zMHJegEWsXh8E0n9ZEiD-242">
          <mxGeometry width="100" height="60" as="geometry" />
        </mxCell>
        <mxCell id="zMHJegEWsXh8E0n9ZEiD-244" value="&lt;ul&gt;&lt;li&gt;&lt;font color=&quot;#666666&quot;&gt;Auto Loader&lt;/font&gt;&lt;/li&gt;&lt;li&gt;&lt;font color=&quot;#666666&quot;&gt;Carrier Barcode&lt;/font&gt;&lt;/li&gt;&lt;li&gt;&lt;font color=&quot;#666666&quot;&gt;Mag Barcode&lt;/font&gt;&lt;/li&gt;&lt;li&gt;&lt;font color=&quot;#666666&quot;&gt;Calibration is required every 6 months&lt;/font&gt;&lt;/li&gt;&lt;/ul&gt;" style="shape=note;whiteSpace=wrap;html=1;backgroundOutline=1;darkOpacity=0.05;fontSize=10;align=left;fontFamily=Tahoma;size=10;perimeterSpacing=0;" vertex="1" parent="zMHJegEWsXh8E0n9ZEiD-242">
          <mxGeometry y="60" width="150" height="70" as="geometry" />
        </mxCell>
        <UserObject label="📷 Carrier for UF" link="https://kingstontechnology.sharepoint.com/:i:/s/MES/EaCL9KKM7JtDgdLV-UnLe30Bz4VFKayLljALizNiwrpf0w?e=HzuzhO" linkTarget="_blank" id="zMHJegEWsXh8E0n9ZEiD-245">
          <mxCell style="dashed=0;html=1;fillColor=#F0F2F5;strokeColor=none;align=left;rounded=1;arcSize=10;fontColor=#3384FF;fontStyle=1;fontSize=11;shadow=0" vertex="1" parent="zMHJegEWsXh8E0n9ZEiD-241">
            <mxGeometry y="130" width="95" height="20" as="geometry" />
          </mxCell>
        </UserObject>
        <UserObject label="📷&amp;nbsp;Mag for UF" link="https://kingstontechnology.sharepoint.com/:i:/s/MES/ESPQl1ZINCFEu6WToNbKgcoB7DqW-WDZrv0hBzWc3FVlRQ?e=dhlJGE" linkTarget="_blank" id="zMHJegEWsXh8E0n9ZEiD-246">
          <mxCell style="dashed=0;html=1;fillColor=#F0F2F5;strokeColor=none;align=left;rounded=1;arcSize=10;fontColor=#3384FF;fontStyle=1;fontSize=11;shadow=0" vertex="1" parent="zMHJegEWsXh8E0n9ZEiD-241">
            <mxGeometry y="150" width="95" height="20" as="geometry" />
          </mxCell>
        </UserObject>
        <mxCell id="zMHJegEWsXh8E0n9ZEiD-247" value="      CM - Intel" style="swimlane;fontFamily=Tahoma;fontSize=10;align=left;" vertex="1" parent="zMHJegEWsXh8E0n9ZEiD-119">
          <mxGeometry x="40" y="990" width="3500" height="374" as="geometry">
            <mxRectangle x="40" y="650" width="70" height="30" as="alternateBounds" />
          </mxGeometry>
        </mxCell>
        <mxCell id="zMHJegEWsXh8E0n9ZEiD-248" value="" style="edgeStyle=orthogonalEdgeStyle;rounded=0;orthogonalLoop=1;jettySize=auto;html=1;fontFamily=Tahoma;fontSize=10;" edge="1" parent="zMHJegEWsXh8E0n9ZEiD-247" source="zMHJegEWsXh8E0n9ZEiD-284" target="zMHJegEWsXh8E0n9ZEiD-303">
          <mxGeometry relative="1" as="geometry" />
        </mxCell>
        <mxCell id="zMHJegEWsXh8E0n9ZEiD-249" value="" style="edgeStyle=orthogonalEdgeStyle;rounded=0;orthogonalLoop=1;jettySize=auto;html=1;fontFamily=Tahoma;fontSize=10;entryX=0;entryY=0.5;entryDx=0;entryDy=0;" edge="1" parent="zMHJegEWsXh8E0n9ZEiD-247" source="zMHJegEWsXh8E0n9ZEiD-351" target="zMHJegEWsXh8E0n9ZEiD-346">
          <mxGeometry relative="1" as="geometry" />
        </mxCell>
        <mxCell id="zMHJegEWsXh8E0n9ZEiD-250" style="edgeStyle=orthogonalEdgeStyle;rounded=0;orthogonalLoop=1;jettySize=auto;html=1;fontSize=8;" edge="1" parent="zMHJegEWsXh8E0n9ZEiD-247" source="zMHJegEWsXh8E0n9ZEiD-337" target="zMHJegEWsXh8E0n9ZEiD-267">
          <mxGeometry relative="1" as="geometry">
            <mxPoint x="390" y="70" as="targetPoint" />
          </mxGeometry>
        </mxCell>
        <mxCell id="zMHJegEWsXh8E0n9ZEiD-251" value="&lt;font style=&quot;font-size: 11px;&quot;&gt;Scan&lt;/font&gt;" style="edgeLabel;html=1;align=center;verticalAlign=middle;resizable=0;points=[];" vertex="1" connectable="0" parent="zMHJegEWsXh8E0n9ZEiD-250">
          <mxGeometry x="-0.1559" relative="1" as="geometry">
            <mxPoint as="offset" />
          </mxGeometry>
        </mxCell>
        <mxCell id="zMHJegEWsXh8E0n9ZEiD-252" value="" style="edgeStyle=orthogonalEdgeStyle;rounded=0;orthogonalLoop=1;jettySize=auto;html=1;" edge="1" parent="zMHJegEWsXh8E0n9ZEiD-247" source="zMHJegEWsXh8E0n9ZEiD-267" target="zMHJegEWsXh8E0n9ZEiD-340">
          <mxGeometry relative="1" as="geometry">
            <mxPoint x="940" y="257.52941176470586" as="sourcePoint" />
            <mxPoint x="972" y="258" as="targetPoint" />
          </mxGeometry>
        </mxCell>
        <mxCell id="zMHJegEWsXh8E0n9ZEiD-253" style="edgeStyle=orthogonalEdgeStyle;rounded=0;orthogonalLoop=1;jettySize=auto;html=1;" edge="1" parent="zMHJegEWsXh8E0n9ZEiD-247" source="zMHJegEWsXh8E0n9ZEiD-340" target="zMHJegEWsXh8E0n9ZEiD-343">
          <mxGeometry relative="1" as="geometry">
            <mxPoint x="1022" y="228" as="sourcePoint" />
          </mxGeometry>
        </mxCell>
        <mxCell id="zMHJegEWsXh8E0n9ZEiD-254" style="edgeStyle=orthogonalEdgeStyle;rounded=0;orthogonalLoop=1;jettySize=auto;html=1;" edge="1" parent="zMHJegEWsXh8E0n9ZEiD-247" source="zMHJegEWsXh8E0n9ZEiD-255" target="zMHJegEWsXh8E0n9ZEiD-356">
          <mxGeometry relative="1" as="geometry" />
        </mxCell>
        <mxCell id="zMHJegEWsXh8E0n9ZEiD-255" value="QA VI (AQL)" style="rounded=1;whiteSpace=wrap;html=1;absoluteArcSize=1;arcSize=14;strokeWidth=2;" vertex="1" parent="zMHJegEWsXh8E0n9ZEiD-247">
          <mxGeometry x="1128" y="118" width="100" height="60" as="geometry" />
        </mxCell>
        <mxCell id="zMHJegEWsXh8E0n9ZEiD-256" value="Soft tray" style="edgeStyle=orthogonalEdgeStyle;rounded=0;orthogonalLoop=1;jettySize=auto;html=1;" edge="1" parent="zMHJegEWsXh8E0n9ZEiD-247" source="zMHJegEWsXh8E0n9ZEiD-343" target="zMHJegEWsXh8E0n9ZEiD-255">
          <mxGeometry relative="1" as="geometry">
            <mxPoint x="1118" y="100" as="sourcePoint" />
          </mxGeometry>
        </mxCell>
        <mxCell id="zMHJegEWsXh8E0n9ZEiD-257" value="&lt;ul&gt;&lt;li&gt;&lt;font color=&quot;#666666&quot;&gt;Highest traceability in Kingston&lt;/font&gt;&lt;/li&gt;&lt;li&gt;&lt;font color=&quot;#666666&quot;&gt;Every tray/carrier/mag/BI board has barcode&lt;/font&gt;&lt;/li&gt;&lt;li&gt;&lt;span style=&quot;color: rgb(102, 102, 102); background-color: initial;&quot;&gt;Hard tray for automation machine&lt;/span&gt;&lt;br&gt;&lt;/li&gt;&lt;li&gt;&lt;font color=&quot;#666666&quot;&gt;Soft tray for OP/transportation&lt;/font&gt;&lt;/li&gt;&lt;li style=&quot;border-color: var(--border-color);&quot;&gt;&lt;font style=&quot;border-color: var(--border-color);&quot; color=&quot;#666666&quot;&gt;FAIL if WIP not tracked into the test step on the KF&lt;/font&gt;&lt;/li&gt;&lt;/ul&gt;" style="shape=note;whiteSpace=wrap;html=1;backgroundOutline=1;darkOpacity=0.05;fontSize=10;align=left;fontFamily=Tahoma;size=10;perimeterSpacing=0;" vertex="1" parent="zMHJegEWsXh8E0n9ZEiD-247">
          <mxGeometry y="23" width="280" height="67" as="geometry" />
        </mxCell>
        <mxCell id="zMHJegEWsXh8E0n9ZEiD-258" style="edgeStyle=orthogonalEdgeStyle;rounded=0;orthogonalLoop=1;jettySize=auto;html=1;" edge="1" parent="zMHJegEWsXh8E0n9ZEiD-247" source="zMHJegEWsXh8E0n9ZEiD-260" target="zMHJegEWsXh8E0n9ZEiD-330">
          <mxGeometry relative="1" as="geometry">
            <mxPoint x="350" y="150" as="targetPoint" />
          </mxGeometry>
        </mxCell>
        <mxCell id="zMHJegEWsXh8E0n9ZEiD-259" value="Soft tray" style="edgeLabel;html=1;align=center;verticalAlign=middle;resizable=0;points=[];" vertex="1" connectable="0" parent="zMHJegEWsXh8E0n9ZEiD-258">
          <mxGeometry x="-0.2873" y="-1" relative="1" as="geometry">
            <mxPoint x="7" y="-1" as="offset" />
          </mxGeometry>
        </mxCell>
        <mxCell id="zMHJegEWsXh8E0n9ZEiD-260" value="SPD" style="rounded=1;whiteSpace=wrap;html=1;absoluteArcSize=1;arcSize=14;strokeWidth=2;" vertex="1" parent="zMHJegEWsXh8E0n9ZEiD-247">
          <mxGeometry x="223" y="118" width="100" height="60" as="geometry" />
        </mxCell>
        <mxCell id="zMHJegEWsXh8E0n9ZEiD-261" value="Scan" style="edgeStyle=orthogonalEdgeStyle;rounded=0;orthogonalLoop=1;jettySize=auto;html=1;" edge="1" parent="zMHJegEWsXh8E0n9ZEiD-247" source="zMHJegEWsXh8E0n9ZEiD-330" target="zMHJegEWsXh8E0n9ZEiD-337">
          <mxGeometry x="-0.0042" relative="1" as="geometry">
            <mxPoint as="offset" />
          </mxGeometry>
        </mxCell>
        <mxCell id="zMHJegEWsXh8E0n9ZEiD-262" style="edgeStyle=orthogonalEdgeStyle;rounded=0;orthogonalLoop=1;jettySize=auto;html=1;entryX=0.5;entryY=0;entryDx=0;entryDy=0;exitX=0.5;exitY=0;exitDx=0;exitDy=0;" edge="1" parent="zMHJegEWsXh8E0n9ZEiD-247" source="zMHJegEWsXh8E0n9ZEiD-340" target="zMHJegEWsXh8E0n9ZEiD-337">
          <mxGeometry relative="1" as="geometry" />
        </mxCell>
        <mxCell id="zMHJegEWsXh8E0n9ZEiD-263" value="Flip side" style="edgeLabel;html=1;align=center;verticalAlign=middle;resizable=0;points=[];" vertex="1" connectable="0" parent="zMHJegEWsXh8E0n9ZEiD-262">
          <mxGeometry x="-0.5728" y="-2" relative="1" as="geometry">
            <mxPoint x="-85" y="2" as="offset" />
          </mxGeometry>
        </mxCell>
        <mxCell id="zMHJegEWsXh8E0n9ZEiD-264" value="B/I Board" style="edgeStyle=orthogonalEdgeStyle;rounded=0;orthogonalLoop=1;jettySize=auto;html=1;entryX=0;entryY=0.5;entryDx=0;entryDy=0;" edge="1" parent="zMHJegEWsXh8E0n9ZEiD-247" source="zMHJegEWsXh8E0n9ZEiD-356" target="zMHJegEWsXh8E0n9ZEiD-351">
          <mxGeometry x="-0.0014" relative="1" as="geometry">
            <mxPoint as="offset" />
          </mxGeometry>
        </mxCell>
        <mxCell id="zMHJegEWsXh8E0n9ZEiD-265" style="edgeStyle=orthogonalEdgeStyle;rounded=0;orthogonalLoop=1;jettySize=auto;html=1;" edge="1" parent="zMHJegEWsXh8E0n9ZEiD-247" source="zMHJegEWsXh8E0n9ZEiD-287" target="zMHJegEWsXh8E0n9ZEiD-284">
          <mxGeometry relative="1" as="geometry" />
        </mxCell>
        <mxCell id="zMHJegEWsXh8E0n9ZEiD-266" value="" style="group" vertex="1" connectable="0" parent="zMHJegEWsXh8E0n9ZEiD-247">
          <mxGeometry x="714" y="115.5" width="100" height="60" as="geometry" />
        </mxCell>
        <mxCell id="zMHJegEWsXh8E0n9ZEiD-267" value="QC VI" style="rounded=1;whiteSpace=wrap;html=1;absoluteArcSize=1;arcSize=14;strokeWidth=2;" vertex="1" parent="zMHJegEWsXh8E0n9ZEiD-266">
          <mxGeometry width="100" height="60" as="geometry" />
        </mxCell>
        <mxCell id="zMHJegEWsXh8E0n9ZEiD-268" value="Soft tray" style="edgeStyle=orthogonalEdgeStyle;rounded=0;orthogonalLoop=1;jettySize=auto;html=1;fontFamily=Tahoma;fontSize=10;" edge="1" parent="zMHJegEWsXh8E0n9ZEiD-247" source="zMHJegEWsXh8E0n9ZEiD-346" target="zMHJegEWsXh8E0n9ZEiD-274">
          <mxGeometry relative="1" as="geometry">
            <mxPoint x="1961" y="142.25" as="targetPoint" />
          </mxGeometry>
        </mxCell>
        <mxCell id="zMHJegEWsXh8E0n9ZEiD-269" value="" style="edgeStyle=orthogonalEdgeStyle;rounded=0;orthogonalLoop=1;jettySize=auto;html=1;fontFamily=Tahoma;fontSize=10;" edge="1" parent="zMHJegEWsXh8E0n9ZEiD-247" source="zMHJegEWsXh8E0n9ZEiD-274" target="zMHJegEWsXh8E0n9ZEiD-276">
          <mxGeometry relative="1" as="geometry">
            <mxPoint x="1388" y="94.75" as="targetPoint" />
          </mxGeometry>
        </mxCell>
        <mxCell id="zMHJegEWsXh8E0n9ZEiD-270" value="" style="edgeStyle=orthogonalEdgeStyle;rounded=0;orthogonalLoop=1;jettySize=auto;html=1;fontFamily=Tahoma;fontSize=10;" edge="1" parent="zMHJegEWsXh8E0n9ZEiD-247" source="zMHJegEWsXh8E0n9ZEiD-278" target="zMHJegEWsXh8E0n9ZEiD-282">
          <mxGeometry relative="1" as="geometry">
            <mxPoint x="1488" y="94.75" as="sourcePoint" />
          </mxGeometry>
        </mxCell>
        <mxCell id="zMHJegEWsXh8E0n9ZEiD-271" style="edgeStyle=orthogonalEdgeStyle;rounded=0;orthogonalLoop=1;jettySize=auto;html=1;" edge="1" parent="zMHJegEWsXh8E0n9ZEiD-247" source="zMHJegEWsXh8E0n9ZEiD-282" target="zMHJegEWsXh8E0n9ZEiD-287">
          <mxGeometry relative="1" as="geometry">
            <mxPoint x="2491" y="142.25000000000045" as="sourcePoint" />
          </mxGeometry>
        </mxCell>
        <mxCell id="zMHJegEWsXh8E0n9ZEiD-272" style="edgeStyle=orthogonalEdgeStyle;rounded=0;orthogonalLoop=1;jettySize=auto;html=1;" edge="1" parent="zMHJegEWsXh8E0n9ZEiD-247" source="zMHJegEWsXh8E0n9ZEiD-276" target="zMHJegEWsXh8E0n9ZEiD-278">
          <mxGeometry relative="1" as="geometry" />
        </mxCell>
        <mxCell id="zMHJegEWsXh8E0n9ZEiD-273" value="" style="group" vertex="1" connectable="0" parent="zMHJegEWsXh8E0n9ZEiD-247">
          <mxGeometry x="1744" y="116.75" width="100" height="60" as="geometry" />
        </mxCell>
        <mxCell id="zMHJegEWsXh8E0n9ZEiD-274" value="QC VI" style="rounded=1;whiteSpace=wrap;html=1;absoluteArcSize=1;arcSize=14;strokeWidth=2;" vertex="1" parent="zMHJegEWsXh8E0n9ZEiD-273">
          <mxGeometry width="100" height="60" as="geometry" />
        </mxCell>
        <mxCell id="zMHJegEWsXh8E0n9ZEiD-275" value="" style="group" vertex="1" connectable="0" parent="zMHJegEWsXh8E0n9ZEiD-247">
          <mxGeometry x="1863" y="116.25" width="100" height="60" as="geometry" />
        </mxCell>
        <mxCell id="zMHJegEWsXh8E0n9ZEiD-276" value="QA VI (AQL)" style="rounded=1;whiteSpace=wrap;html=1;absoluteArcSize=1;arcSize=14;strokeWidth=2;" vertex="1" parent="zMHJegEWsXh8E0n9ZEiD-275">
          <mxGeometry width="100" height="60" as="geometry" />
        </mxCell>
        <mxCell id="zMHJegEWsXh8E0n9ZEiD-277" value="" style="group" vertex="1" connectable="0" parent="zMHJegEWsXh8E0n9ZEiD-247">
          <mxGeometry x="1983" y="116" width="160" height="140" as="geometry" />
        </mxCell>
        <mxCell id="zMHJegEWsXh8E0n9ZEiD-278" value="Heat Spreader&lt;br&gt;Assembly" style="rounded=1;whiteSpace=wrap;html=1;absoluteArcSize=1;arcSize=14;strokeWidth=2;" vertex="1" parent="zMHJegEWsXh8E0n9ZEiD-277">
          <mxGeometry width="100" height="60" as="geometry" />
        </mxCell>
        <mxCell id="zMHJegEWsXh8E0n9ZEiD-279" value="&lt;ul&gt;&lt;li&gt;&lt;font color=&quot;#666666&quot;&gt;Scan part tray to verify&lt;/font&gt;&lt;/li&gt;&lt;li&gt;&lt;font color=&quot;#666666&quot;&gt;Scan machine&lt;/font&gt;&lt;/li&gt;&lt;li&gt;&lt;font color=&quot;#666666&quot;&gt;Scan after assembled&lt;/font&gt;&lt;/li&gt;&lt;li&gt;&lt;font color=&quot;#666666&quot;&gt;Scan FG tray&lt;/font&gt;&lt;/li&gt;&lt;/ul&gt;" style="shape=note;whiteSpace=wrap;html=1;backgroundOutline=1;darkOpacity=0.05;fontSize=10;align=left;fontFamily=Tahoma;size=10;" vertex="1" parent="zMHJegEWsXh8E0n9ZEiD-277">
          <mxGeometry y="60" width="160" height="60" as="geometry" />
        </mxCell>
        <UserObject label="📷 HS Assy" link="https://kingstontechnology.sharepoint.com/:i:/s/MES/EUA4pZXkC0NOq2moRb9dBVIBO86qgSFmyB-Jhi11DciO9A?e=64vW6e" linkTarget="_blank" id="zMHJegEWsXh8E0n9ZEiD-280">
          <mxCell style="dashed=0;html=1;fillColor=#F0F2F5;strokeColor=none;align=center;rounded=1;arcSize=10;fontColor=#3384FF;fontStyle=1;fontSize=11;shadow=0" vertex="1" parent="zMHJegEWsXh8E0n9ZEiD-277">
            <mxGeometry y="120" width="95" height="20" as="geometry" />
          </mxCell>
        </UserObject>
        <mxCell id="zMHJegEWsXh8E0n9ZEiD-281" value="" style="group" vertex="1" connectable="0" parent="zMHJegEWsXh8E0n9ZEiD-247">
          <mxGeometry x="2130" y="115.25" width="100" height="60" as="geometry" />
        </mxCell>
        <mxCell id="zMHJegEWsXh8E0n9ZEiD-282" value="QC VI" style="rounded=1;whiteSpace=wrap;html=1;absoluteArcSize=1;arcSize=14;strokeWidth=2;" vertex="1" parent="zMHJegEWsXh8E0n9ZEiD-281">
          <mxGeometry width="100" height="60" as="geometry" />
        </mxCell>
        <mxCell id="zMHJegEWsXh8E0n9ZEiD-283" value="" style="group" vertex="1" connectable="0" parent="zMHJegEWsXh8E0n9ZEiD-247">
          <mxGeometry x="2370" y="115" width="110" height="95" as="geometry" />
        </mxCell>
        <mxCell id="zMHJegEWsXh8E0n9ZEiD-284" value="QA VI" style="rounded=1;whiteSpace=wrap;html=1;absoluteArcSize=1;arcSize=14;strokeWidth=2;" vertex="1" parent="zMHJegEWsXh8E0n9ZEiD-283">
          <mxGeometry width="100" height="60" as="geometry" />
        </mxCell>
        <mxCell id="zMHJegEWsXh8E0n9ZEiD-285" value="&lt;ul&gt;&lt;li&gt;&lt;font color=&quot;#666666&quot;&gt;1 PCS/Tray&lt;/font&gt;&lt;/li&gt;&lt;/ul&gt;" style="shape=note;whiteSpace=wrap;html=1;backgroundOutline=1;darkOpacity=0.05;fontSize=10;align=left;fontFamily=Tahoma;size=10;" vertex="1" parent="zMHJegEWsXh8E0n9ZEiD-283">
          <mxGeometry y="60" width="110" height="35" as="geometry" />
        </mxCell>
        <mxCell id="zMHJegEWsXh8E0n9ZEiD-286" value="" style="group" vertex="1" connectable="0" parent="zMHJegEWsXh8E0n9ZEiD-247">
          <mxGeometry x="2250" y="114.75" width="110" height="95" as="geometry" />
        </mxCell>
        <mxCell id="zMHJegEWsXh8E0n9ZEiD-287" value="Baking" style="rounded=1;whiteSpace=wrap;html=1;absoluteArcSize=1;arcSize=14;strokeWidth=2;" vertex="1" parent="zMHJegEWsXh8E0n9ZEiD-286">
          <mxGeometry width="100" height="60" as="geometry" />
        </mxCell>
        <mxCell id="zMHJegEWsXh8E0n9ZEiD-288" value="&lt;ul&gt;&lt;li&gt;&lt;font color=&quot;#666666&quot;&gt;70 °C, 30 min&lt;/font&gt;&lt;/li&gt;&lt;/ul&gt;" style="shape=note;whiteSpace=wrap;html=1;backgroundOutline=1;darkOpacity=0.05;fontSize=10;align=left;fontFamily=Tahoma;size=10;" vertex="1" parent="zMHJegEWsXh8E0n9ZEiD-286">
          <mxGeometry y="60" width="110" height="35" as="geometry" />
        </mxCell>
        <mxCell id="zMHJegEWsXh8E0n9ZEiD-289" value="Function Test" style="swimlane;whiteSpace=wrap;html=1;" vertex="1" parent="zMHJegEWsXh8E0n9ZEiD-247">
          <mxGeometry x="2500" y="50" width="370" height="310" as="geometry" />
        </mxCell>
        <mxCell id="zMHJegEWsXh8E0n9ZEiD-290" value="" style="group" vertex="1" connectable="0" parent="zMHJegEWsXh8E0n9ZEiD-289">
          <mxGeometry x="30" y="176" width="148" height="130" as="geometry" />
        </mxCell>
        <mxCell id="zMHJegEWsXh8E0n9ZEiD-291" value="Rack Test" style="rounded=1;whiteSpace=wrap;html=1;" vertex="1" parent="zMHJegEWsXh8E0n9ZEiD-290">
          <mxGeometry x="10" y="10" width="105" height="60" as="geometry" />
        </mxCell>
        <mxCell id="zMHJegEWsXh8E0n9ZEiD-292" value="Barlow Pass" style="text;html=1;strokeColor=#001DBC;fillColor=#0050ef;align=center;verticalAlign=middle;whiteSpace=wrap;rounded=0;fontColor=#ffffff;" vertex="1" parent="zMHJegEWsXh8E0n9ZEiD-290">
          <mxGeometry width="80" height="20" as="geometry" />
        </mxCell>
        <mxCell id="zMHJegEWsXh8E0n9ZEiD-293" value="&lt;ul&gt;&lt;li&gt;&lt;font color=&quot;#666666&quot;&gt;Include FOQM&lt;/font&gt;&lt;/li&gt;&lt;li&gt;&lt;font color=&quot;#666666&quot;&gt;Has HS&lt;/font&gt;&lt;/li&gt;&lt;li&gt;&lt;font color=&quot;#666666&quot;&gt;Prod S/N &amp;lt;&amp;gt; equipment Id&lt;/font&gt;&lt;/li&gt;&lt;/ul&gt;" style="shape=note;whiteSpace=wrap;html=1;backgroundOutline=1;darkOpacity=0.05;fontSize=10;align=left;fontFamily=Tahoma;size=10;container=0;" vertex="1" parent="zMHJegEWsXh8E0n9ZEiD-290">
          <mxGeometry x="10" y="70" width="137.5" height="60" as="geometry" />
        </mxCell>
        <mxCell id="zMHJegEWsXh8E0n9ZEiD-294" value="" style="group" vertex="1" connectable="0" parent="zMHJegEWsXh8E0n9ZEiD-289">
          <mxGeometry x="207" y="35" width="110" height="95" as="geometry" />
        </mxCell>
        <mxCell id="zMHJegEWsXh8E0n9ZEiD-295" value="QA Test&lt;br&gt;FOQM" style="rounded=1;whiteSpace=wrap;html=1;absoluteArcSize=1;arcSize=14;strokeWidth=2;" vertex="1" parent="zMHJegEWsXh8E0n9ZEiD-294">
          <mxGeometry width="100" height="60" as="geometry" />
        </mxCell>
        <mxCell id="zMHJegEWsXh8E0n9ZEiD-296" value="&lt;ul&gt;&lt;li&gt;&lt;font color=&quot;#666666&quot;&gt;Rack test&lt;/font&gt;&lt;/li&gt;&lt;/ul&gt;" style="shape=note;whiteSpace=wrap;html=1;backgroundOutline=1;darkOpacity=0.05;fontSize=10;align=left;fontFamily=Tahoma;size=10;" vertex="1" parent="zMHJegEWsXh8E0n9ZEiD-294">
          <mxGeometry y="60" width="110" height="35" as="geometry" />
        </mxCell>
        <mxCell id="zMHJegEWsXh8E0n9ZEiD-297" style="edgeStyle=orthogonalEdgeStyle;rounded=0;orthogonalLoop=1;jettySize=auto;html=1;" edge="1" parent="zMHJegEWsXh8E0n9ZEiD-289" source="zMHJegEWsXh8E0n9ZEiD-303" target="zMHJegEWsXh8E0n9ZEiD-295">
          <mxGeometry relative="1" as="geometry" />
        </mxCell>
        <mxCell id="zMHJegEWsXh8E0n9ZEiD-298" style="edgeStyle=orthogonalEdgeStyle;rounded=0;orthogonalLoop=1;jettySize=auto;html=1;" edge="1" parent="zMHJegEWsXh8E0n9ZEiD-289" source="zMHJegEWsXh8E0n9ZEiD-295">
          <mxGeometry relative="1" as="geometry">
            <mxPoint x="387" y="93" as="targetPoint" />
            <Array as="points">
              <mxPoint x="350" y="65" />
              <mxPoint x="350" y="93" />
            </Array>
          </mxGeometry>
        </mxCell>
        <mxCell id="zMHJegEWsXh8E0n9ZEiD-299" style="edgeStyle=orthogonalEdgeStyle;rounded=0;orthogonalLoop=1;jettySize=auto;html=1;entryX=0;entryY=0.5;entryDx=0;entryDy=0;" edge="1" parent="zMHJegEWsXh8E0n9ZEiD-289" source="zMHJegEWsXh8E0n9ZEiD-291">
          <mxGeometry relative="1" as="geometry">
            <mxPoint x="387" y="93" as="targetPoint" />
            <Array as="points">
              <mxPoint x="350" y="216" />
              <mxPoint x="350" y="93" />
            </Array>
          </mxGeometry>
        </mxCell>
        <mxCell id="zMHJegEWsXh8E0n9ZEiD-300" value="" style="group" vertex="1" connectable="0" parent="zMHJegEWsXh8E0n9ZEiD-289">
          <mxGeometry x="30" y="30" width="147" height="140" as="geometry" />
        </mxCell>
        <UserObject label="📷 Machine" link="https://kingstontechnology.sharepoint.com/:i:/s/MES/ERf-P5OAsllEl-ISfTCngMEBHAUQp9PhfdO_xklfdJHQlg?e=dFdfZx" linkTarget="_blank" id="zMHJegEWsXh8E0n9ZEiD-301">
          <mxCell style="dashed=0;html=1;fillColor=#F0F2F5;strokeColor=none;align=left;rounded=1;arcSize=10;fontColor=#3384FF;fontStyle=1;fontSize=11;shadow=0" vertex="1" parent="zMHJegEWsXh8E0n9ZEiD-300">
            <mxGeometry x="10" y="100" width="95" height="20" as="geometry" />
          </mxCell>
        </UserObject>
        <mxCell id="zMHJegEWsXh8E0n9ZEiD-302" value="" style="group" vertex="1" connectable="0" parent="zMHJegEWsXh8E0n9ZEiD-300">
          <mxGeometry width="114" height="65" as="geometry" />
        </mxCell>
        <mxCell id="zMHJegEWsXh8E0n9ZEiD-303" value="FT2" style="rounded=1;whiteSpace=wrap;html=1;" vertex="1" parent="zMHJegEWsXh8E0n9ZEiD-302">
          <mxGeometry x="9" y="5" width="105" height="60" as="geometry" />
        </mxCell>
        <mxCell id="zMHJegEWsXh8E0n9ZEiD-304" value="&lt;font style=&quot;&quot; color=&quot;#ffffff&quot;&gt;Apache Pass&lt;/font&gt;" style="text;html=1;align=center;verticalAlign=middle;whiteSpace=wrap;rounded=0;fillColor=#647687;fontColor=#ffffff;strokeColor=#314354;" vertex="1" parent="zMHJegEWsXh8E0n9ZEiD-302">
          <mxGeometry width="80" height="20" as="geometry" />
        </mxCell>
        <mxCell id="zMHJegEWsXh8E0n9ZEiD-305" value="&lt;ul&gt;&lt;li&gt;&lt;font color=&quot;#666666&quot;&gt;Equipment Id &amp;lt;&amp;gt; platform &amp;lt;&amp;gt; slot&lt;/font&gt;&lt;/li&gt;&lt;/ul&gt;" style="shape=note;whiteSpace=wrap;html=1;backgroundOutline=1;darkOpacity=0.05;fontSize=10;align=left;fontFamily=Tahoma;size=10;container=0;" vertex="1" parent="zMHJegEWsXh8E0n9ZEiD-300">
          <mxGeometry x="9" y="64.5" width="137.5" height="35" as="geometry" />
        </mxCell>
        <UserObject label="📷 Hard tray" link="https://kingstontechnology.sharepoint.com/:i:/s/MES/EY_AJR8Ib79Ku49oNZhjwusBo9w5ae3HoYz15cT1DNIPZA?e=Pt4o0L" linkTarget="_blank" id="zMHJegEWsXh8E0n9ZEiD-306">
          <mxCell style="dashed=0;html=1;fillColor=#F0F2F5;strokeColor=none;align=left;rounded=1;arcSize=10;fontColor=#3384FF;fontStyle=1;fontSize=11;shadow=0" vertex="1" parent="zMHJegEWsXh8E0n9ZEiD-300">
            <mxGeometry x="10" y="120" width="95" height="20" as="geometry" />
          </mxCell>
        </UserObject>
        <UserObject label="📷 Rack Test" link="https://kingstontechnology.sharepoint.com/:i:/s/MES/ERVmvOUC8nhFpuAiuWFqi7QBSEjWxTy5MErxJN-Y7MB48A?e=gZyEJN" linkTarget="_blank" id="zMHJegEWsXh8E0n9ZEiD-307">
          <mxCell style="dashed=0;html=1;fillColor=#F0F2F5;strokeColor=none;align=left;rounded=1;arcSize=10;fontColor=#3384FF;fontStyle=1;fontSize=11;shadow=0" vertex="1" parent="zMHJegEWsXh8E0n9ZEiD-289">
            <mxGeometry x="214.5" y="231" width="95" height="20" as="geometry" />
          </mxCell>
        </UserObject>
        <UserObject label="📷 Rack Test 2" link="https://kingstontechnology.sharepoint.com/:i:/s/MES/EbAF6amfQW5KimIvEsusKz8BX5pMjUBdcygMYxVCbDPxog?e=gCRSsd" linkTarget="_blank" id="zMHJegEWsXh8E0n9ZEiD-308">
          <mxCell style="dashed=0;html=1;fillColor=#F0F2F5;strokeColor=none;align=left;rounded=1;arcSize=10;fontColor=#3384FF;fontStyle=1;fontSize=11;shadow=0" vertex="1" parent="zMHJegEWsXh8E0n9ZEiD-289">
            <mxGeometry x="214.5" y="251" width="95" height="20" as="geometry" />
          </mxCell>
        </UserObject>
        <mxCell id="zMHJegEWsXh8E0n9ZEiD-309" style="edgeStyle=orthogonalEdgeStyle;rounded=0;orthogonalLoop=1;jettySize=auto;html=1;entryX=0;entryY=0.5;entryDx=0;entryDy=0;" edge="1" parent="zMHJegEWsXh8E0n9ZEiD-247" source="zMHJegEWsXh8E0n9ZEiD-284" target="zMHJegEWsXh8E0n9ZEiD-291">
          <mxGeometry relative="1" as="geometry" />
        </mxCell>
        <mxCell id="zMHJegEWsXh8E0n9ZEiD-310" value="" style="group" vertex="1" connectable="0" parent="zMHJegEWsXh8E0n9ZEiD-247">
          <mxGeometry x="2890" y="114" width="140" height="130" as="geometry" />
        </mxCell>
        <mxCell id="zMHJegEWsXh8E0n9ZEiD-311" value="Labeling" style="rounded=1;whiteSpace=wrap;html=1;" vertex="1" parent="zMHJegEWsXh8E0n9ZEiD-310">
          <mxGeometry width="105" height="60" as="geometry" />
        </mxCell>
        <mxCell id="zMHJegEWsXh8E0n9ZEiD-312" value="&lt;ul&gt;&lt;li&gt;&lt;font color=&quot;#666666&quot;&gt;Scan tray Id (out)&lt;/font&gt;&lt;/li&gt;&lt;li&gt;&lt;font color=&quot;#666666&quot;&gt;Scan PCBA to verify test result&lt;/font&gt;&lt;/li&gt;&lt;li&gt;&lt;font color=&quot;#666666&quot;&gt;Print &amp;amp; past label&lt;/font&gt;&lt;/li&gt;&lt;/ul&gt;" style="shape=note;whiteSpace=wrap;html=1;backgroundOutline=1;darkOpacity=0.05;fontSize=10;align=left;fontFamily=Tahoma;size=10;" vertex="1" parent="zMHJegEWsXh8E0n9ZEiD-310">
          <mxGeometry y="60" width="140" height="70" as="geometry" />
        </mxCell>
        <mxCell id="zMHJegEWsXh8E0n9ZEiD-313" value="" style="group" vertex="1" connectable="0" parent="zMHJegEWsXh8E0n9ZEiD-247">
          <mxGeometry x="3050" y="114" width="140" height="110" as="geometry" />
        </mxCell>
        <mxCell id="zMHJegEWsXh8E0n9ZEiD-314" value="QC VI" style="rounded=1;whiteSpace=wrap;html=1;" vertex="1" parent="zMHJegEWsXh8E0n9ZEiD-313">
          <mxGeometry width="105" height="60" as="geometry" />
        </mxCell>
        <mxCell id="zMHJegEWsXh8E0n9ZEiD-315" value="&lt;ul&gt;&lt;li&gt;&lt;font color=&quot;#666666&quot;&gt;Scan tray Id (out)&lt;/font&gt;&lt;/li&gt;&lt;li&gt;&lt;font color=&quot;#666666&quot;&gt;100% VI for label &amp;amp; surface&lt;/font&gt;&lt;/li&gt;&lt;/ul&gt;" style="shape=note;whiteSpace=wrap;html=1;backgroundOutline=1;darkOpacity=0.05;fontSize=10;align=left;fontFamily=Tahoma;size=10;" vertex="1" parent="zMHJegEWsXh8E0n9ZEiD-313">
          <mxGeometry y="60" width="140" height="50" as="geometry" />
        </mxCell>
        <mxCell id="zMHJegEWsXh8E0n9ZEiD-316" style="edgeStyle=orthogonalEdgeStyle;rounded=0;orthogonalLoop=1;jettySize=auto;html=1;" edge="1" parent="zMHJegEWsXh8E0n9ZEiD-247" source="zMHJegEWsXh8E0n9ZEiD-311" target="zMHJegEWsXh8E0n9ZEiD-314">
          <mxGeometry relative="1" as="geometry" />
        </mxCell>
        <mxCell id="zMHJegEWsXh8E0n9ZEiD-317" style="edgeStyle=orthogonalEdgeStyle;rounded=0;orthogonalLoop=1;jettySize=auto;html=1;" edge="1" parent="zMHJegEWsXh8E0n9ZEiD-247" source="zMHJegEWsXh8E0n9ZEiD-314" target="zMHJegEWsXh8E0n9ZEiD-319">
          <mxGeometry relative="1" as="geometry" />
        </mxCell>
        <mxCell id="zMHJegEWsXh8E0n9ZEiD-318" value="" style="group" vertex="1" connectable="0" parent="zMHJegEWsXh8E0n9ZEiD-247">
          <mxGeometry x="3200" y="114" width="110" height="90" as="geometry" />
        </mxCell>
        <mxCell id="zMHJegEWsXh8E0n9ZEiD-319" value="QA VI" style="rounded=1;whiteSpace=wrap;html=1;absoluteArcSize=1;arcSize=14;strokeWidth=2;" vertex="1" parent="zMHJegEWsXh8E0n9ZEiD-318">
          <mxGeometry width="100" height="60" as="geometry" />
        </mxCell>
        <mxCell id="zMHJegEWsXh8E0n9ZEiD-320" value="&lt;ul&gt;&lt;li&gt;&lt;font color=&quot;#666666&quot;&gt;AQL 0.65&lt;/font&gt;&lt;/li&gt;&lt;/ul&gt;" style="shape=note;whiteSpace=wrap;html=1;backgroundOutline=1;darkOpacity=0.05;fontSize=10;align=left;fontFamily=Tahoma;size=10;" vertex="1" parent="zMHJegEWsXh8E0n9ZEiD-318">
          <mxGeometry y="59" width="110" height="31" as="geometry" />
        </mxCell>
        <mxCell id="zMHJegEWsXh8E0n9ZEiD-321" value="" style="group" vertex="1" connectable="0" parent="zMHJegEWsXh8E0n9ZEiD-247">
          <mxGeometry x="3340" y="111" width="140" height="160" as="geometry" />
        </mxCell>
        <mxCell id="zMHJegEWsXh8E0n9ZEiD-322" value="Packing" style="rounded=1;whiteSpace=wrap;html=1;absoluteArcSize=1;arcSize=14;strokeWidth=2;" vertex="1" parent="zMHJegEWsXh8E0n9ZEiD-321">
          <mxGeometry width="100" height="65" as="geometry" />
        </mxCell>
        <mxCell id="zMHJegEWsXh8E0n9ZEiD-323" value="&lt;ul&gt;&lt;li style=&quot;border-color: var(--border-color);&quot;&gt;1 Box = 4 pcs&lt;/li&gt;&lt;li style=&quot;border-color: var(--border-color);&quot;&gt;1 Carton = 20 Box&lt;/li&gt;&lt;li style=&quot;border-color: var(--border-color);&quot;&gt;Box/Carton has ID&lt;/li&gt;&lt;li style=&quot;border-color: var(--border-color);&quot;&gt;Scan PCBA &amp;gt; Print box label &amp;gt; scan box &amp;gt; print carton label &amp;gt; scan carton&lt;/li&gt;&lt;/ul&gt;" style="shape=note;whiteSpace=wrap;html=1;backgroundOutline=1;darkOpacity=0.05;fontSize=10;align=left;fontFamily=Tahoma;size=10;" vertex="1" parent="zMHJegEWsXh8E0n9ZEiD-321">
          <mxGeometry y="65" width="140" height="95" as="geometry" />
        </mxCell>
        <mxCell id="zMHJegEWsXh8E0n9ZEiD-324" style="edgeStyle=orthogonalEdgeStyle;rounded=0;orthogonalLoop=1;jettySize=auto;html=1;" edge="1" parent="zMHJegEWsXh8E0n9ZEiD-247" source="zMHJegEWsXh8E0n9ZEiD-319" target="zMHJegEWsXh8E0n9ZEiD-322">
          <mxGeometry relative="1" as="geometry" />
        </mxCell>
        <mxCell id="zMHJegEWsXh8E0n9ZEiD-325" value="" style="group" vertex="1" connectable="0" parent="zMHJegEWsXh8E0n9ZEiD-247">
          <mxGeometry x="20" y="118" width="200" height="100" as="geometry" />
        </mxCell>
        <mxCell id="zMHJegEWsXh8E0n9ZEiD-326" value="Load onto tray" style="rounded=1;whiteSpace=wrap;html=1;absoluteArcSize=1;arcSize=14;strokeWidth=2;" vertex="1" parent="zMHJegEWsXh8E0n9ZEiD-325">
          <mxGeometry width="100" height="60" as="geometry" />
        </mxCell>
        <mxCell id="zMHJegEWsXh8E0n9ZEiD-327" value="&lt;ul&gt;&lt;li&gt;&lt;font color=&quot;#666666&quot;&gt;Auto Loader&lt;/font&gt;&lt;/li&gt;&lt;li&gt;&lt;font color=&quot;#666666&quot;&gt;PCBA S/N &amp;lt;&amp;gt; Tray Barcode by OP&lt;/font&gt;&lt;/li&gt;&lt;li&gt;&lt;font color=&quot;#666666&quot;&gt;Tray calibrtate quarterly&lt;/font&gt;&lt;/li&gt;&lt;/ul&gt;" style="shape=note;whiteSpace=wrap;html=1;backgroundOutline=1;darkOpacity=0.05;fontSize=10;align=left;fontFamily=Tahoma;size=10;perimeterSpacing=0;" vertex="1" parent="zMHJegEWsXh8E0n9ZEiD-325">
          <mxGeometry y="60" width="200" height="40" as="geometry" />
        </mxCell>
        <mxCell id="zMHJegEWsXh8E0n9ZEiD-328" value="Hard tray" style="edgeStyle=orthogonalEdgeStyle;rounded=0;orthogonalLoop=1;jettySize=auto;html=1;" edge="1" parent="zMHJegEWsXh8E0n9ZEiD-247" source="zMHJegEWsXh8E0n9ZEiD-326" target="zMHJegEWsXh8E0n9ZEiD-260">
          <mxGeometry relative="1" as="geometry" />
        </mxCell>
        <mxCell id="zMHJegEWsXh8E0n9ZEiD-329" value="" style="group" vertex="1" connectable="0" parent="zMHJegEWsXh8E0n9ZEiD-247">
          <mxGeometry x="380" y="118" width="100" height="121" as="geometry" />
        </mxCell>
        <mxCell id="zMHJegEWsXh8E0n9ZEiD-330" value="Load onto&lt;br&gt;Carrier" style="rounded=1;whiteSpace=wrap;html=1;absoluteArcSize=1;arcSize=14;strokeWidth=2;" vertex="1" parent="zMHJegEWsXh8E0n9ZEiD-329">
          <mxGeometry width="100" height="60" as="geometry" />
        </mxCell>
        <UserObject label="📷 Carrier for UF" link="https://kingstontechnology.sharepoint.com/:i:/s/MES/Ec-ELeNaVpBNn8-uxA8hsxMBUxOxvmzPh2QQ96-8jHQZFw?e=Vuk1wq" linkTarget="_blank" id="zMHJegEWsXh8E0n9ZEiD-331">
          <mxCell style="dashed=0;html=1;fillColor=#F0F2F5;strokeColor=none;align=left;rounded=1;arcSize=10;fontColor=#3384FF;fontStyle=1;fontSize=11;shadow=0" vertex="1" parent="zMHJegEWsXh8E0n9ZEiD-329">
            <mxGeometry y="60.5" width="95" height="20" as="geometry" />
          </mxCell>
        </UserObject>
        <UserObject label="📷&amp;nbsp;Mag for UF" link="https://kingstontechnology.sharepoint.com/:i:/s/MES/Ea6rO8x4rNpChufA7lamgM0BNvGAEc8FDujNWZn0wO5pGA?e=cj23Na" linkTarget="_blank" id="zMHJegEWsXh8E0n9ZEiD-332">
          <mxCell style="dashed=0;html=1;fillColor=#F0F2F5;strokeColor=none;align=left;rounded=1;arcSize=10;fontColor=#3384FF;fontStyle=1;fontSize=11;shadow=0" vertex="1" parent="zMHJegEWsXh8E0n9ZEiD-329">
            <mxGeometry y="80.5" width="95" height="20" as="geometry" />
          </mxCell>
        </UserObject>
        <UserObject label="📷 Loader" link="https://kingstontechnology.sharepoint.com/:i:/s/MES/EVSjX0lnbO9NjPSZv6Xo848B1BdbQrtx5rHkyNWM2ZKx_w?e=ZWdB8Y" linkTarget="_blank" id="zMHJegEWsXh8E0n9ZEiD-333">
          <mxCell style="dashed=0;html=1;fillColor=#F0F2F5;strokeColor=none;align=left;rounded=1;arcSize=10;fontColor=#3384FF;fontStyle=1;fontSize=11;shadow=0" vertex="1" parent="zMHJegEWsXh8E0n9ZEiD-329">
            <mxGeometry y="100.5" width="95" height="20" as="geometry" />
          </mxCell>
        </UserObject>
        <UserObject label="📷 Hard Tray" link="https://kingstontechnology.sharepoint.com/:i:/s/MES/EXMU8rgChmBKmkkqO9TA-DEB-9GoHjFh3VDCLcDpqp9Tvw?e=Z3BOmR" linkTarget="_blank" id="zMHJegEWsXh8E0n9ZEiD-334">
          <mxCell style="dashed=0;html=1;fillColor=#F0F2F5;strokeColor=none;align=center;rounded=1;arcSize=10;fontColor=#3384FF;fontStyle=1;fontSize=11;shadow=0" vertex="1" parent="zMHJegEWsXh8E0n9ZEiD-247">
            <mxGeometry x="280" y="23" width="95" height="20" as="geometry" />
          </mxCell>
        </UserObject>
        <mxCell id="zMHJegEWsXh8E0n9ZEiD-335" value="" style="group" vertex="1" connectable="0" parent="zMHJegEWsXh8E0n9ZEiD-247">
          <mxGeometry x="532" y="115.5" width="190" height="150" as="geometry" />
        </mxCell>
        <UserObject label="📷 UF Machine" link="https://kingstontechnology.sharepoint.com/:i:/s/MES/EfSOMqXYdyRBsMdkeYZMvIoBd_r4oonOmU2gIQX1hdKELw?e=0tKhoP" linkTarget="_blank" id="zMHJegEWsXh8E0n9ZEiD-336">
          <mxCell style="dashed=0;html=1;fillColor=#F0F2F5;strokeColor=none;align=center;rounded=1;arcSize=10;fontColor=#3384FF;fontStyle=1;fontSize=11;shadow=0" vertex="1" parent="zMHJegEWsXh8E0n9ZEiD-335">
            <mxGeometry y="130" width="95" height="20" as="geometry" />
          </mxCell>
        </UserObject>
        <mxCell id="zMHJegEWsXh8E0n9ZEiD-337" value="Underfill T/B" style="rounded=1;whiteSpace=wrap;html=1;absoluteArcSize=1;arcSize=14;strokeWidth=2;" vertex="1" parent="zMHJegEWsXh8E0n9ZEiD-335">
          <mxGeometry width="100" height="60" as="geometry" />
        </mxCell>
        <mxCell id="zMHJegEWsXh8E0n9ZEiD-338" value="&lt;ul&gt;&lt;li&gt;&lt;font color=&quot;#666666&quot;&gt;Change mag. after processed&lt;br&gt;&lt;/font&gt;&lt;/li&gt;&lt;li&gt;&lt;span style=&quot;color: rgb(102, 102, 102); background-color: initial;&quot;&gt;Prog. by SKU&lt;/span&gt;&lt;br&gt;&lt;/li&gt;&lt;li&gt;&lt;span style=&quot;color: rgb(102, 102, 102); background-color: initial;&quot;&gt;Glue &amp;lt;&amp;gt; Valve&lt;/span&gt;&lt;br&gt;&lt;/li&gt;&lt;li&gt;&lt;font color=&quot;#666666&quot;&gt;Valve maintenance by used time&lt;/font&gt;&lt;/li&gt;&lt;/ul&gt;" style="shape=note;whiteSpace=wrap;html=1;backgroundOutline=1;darkOpacity=0.05;fontSize=10;align=left;fontFamily=Tahoma;size=10;perimeterSpacing=0;" vertex="1" parent="zMHJegEWsXh8E0n9ZEiD-335">
          <mxGeometry y="60" width="190" height="70" as="geometry" />
        </mxCell>
        <mxCell id="zMHJegEWsXh8E0n9ZEiD-339" value="" style="group" vertex="1" connectable="0" parent="zMHJegEWsXh8E0n9ZEiD-247">
          <mxGeometry x="840" y="115.5" width="100" height="79.75" as="geometry" />
        </mxCell>
        <mxCell id="zMHJegEWsXh8E0n9ZEiD-340" value="Baking" style="rounded=1;whiteSpace=wrap;html=1;absoluteArcSize=1;arcSize=14;strokeWidth=2;" vertex="1" parent="zMHJegEWsXh8E0n9ZEiD-339">
          <mxGeometry width="100" height="60" as="geometry" />
        </mxCell>
        <UserObject label="📷 Oven" link="https://kingstontechnology.sharepoint.com/:i:/s/MES/EfSOMqXYdyRBsMdkeYZMvIoBd_r4oonOmU2gIQX1hdKELw?e=0tKhoP" linkTarget="_blank" id="zMHJegEWsXh8E0n9ZEiD-341">
          <mxCell style="dashed=0;html=1;fillColor=#F0F2F5;strokeColor=none;align=center;rounded=1;arcSize=10;fontColor=#3384FF;fontStyle=1;fontSize=11;shadow=0" vertex="1" parent="zMHJegEWsXh8E0n9ZEiD-339">
            <mxGeometry y="59.75" width="95" height="20" as="geometry" />
          </mxCell>
        </UserObject>
        <mxCell id="zMHJegEWsXh8E0n9ZEiD-342" value="" style="group" vertex="1" connectable="0" parent="zMHJegEWsXh8E0n9ZEiD-247">
          <mxGeometry x="972" y="115" width="103.32999999999993" height="83" as="geometry" />
        </mxCell>
        <mxCell id="zMHJegEWsXh8E0n9ZEiD-343" value="Unload from Carrier" style="rounded=1;whiteSpace=wrap;html=1;absoluteArcSize=1;arcSize=14;strokeWidth=2;" vertex="1" parent="zMHJegEWsXh8E0n9ZEiD-342">
          <mxGeometry width="103.33" height="62" as="geometry" />
        </mxCell>
        <UserObject label="📷 Unloader" link="https://kingstontechnology.sharepoint.com/:i:/s/MES/EXRr_Pv484VMoKhEXdkZkvEBtRnVwCcKqtY59GydbKCYww?e=WmVaNr" linkTarget="_blank" id="zMHJegEWsXh8E0n9ZEiD-344">
          <mxCell style="dashed=0;html=1;fillColor=#F0F2F5;strokeColor=none;align=center;rounded=1;arcSize=10;fontColor=#3384FF;fontStyle=1;fontSize=11;shadow=0" vertex="1" parent="zMHJegEWsXh8E0n9ZEiD-342">
            <mxGeometry y="63" width="95" height="20" as="geometry" />
          </mxCell>
        </UserObject>
        <mxCell id="zMHJegEWsXh8E0n9ZEiD-345" value="" style="group" vertex="1" connectable="0" parent="zMHJegEWsXh8E0n9ZEiD-247">
          <mxGeometry x="1583" y="118" width="130" height="160" as="geometry" />
        </mxCell>
        <mxCell id="zMHJegEWsXh8E0n9ZEiD-346" value="B/I Board Unload" style="rounded=1;whiteSpace=wrap;html=1;absoluteArcSize=1;arcSize=14;strokeWidth=2;" vertex="1" parent="zMHJegEWsXh8E0n9ZEiD-345">
          <mxGeometry width="100" height="60" as="geometry" />
        </mxCell>
        <mxCell id="zMHJegEWsXh8E0n9ZEiD-347" value="&lt;ul&gt;&lt;li&gt;&lt;font color=&quot;#666666&quot;&gt;Scan B/I board&lt;/font&gt;&lt;/li&gt;&lt;li&gt;&lt;font color=&quot;#666666&quot;&gt;View result&lt;/font&gt;&lt;/li&gt;&lt;li&gt;&lt;font color=&quot;#666666&quot;&gt;Remove failed PCS&lt;/font&gt;&lt;/li&gt;&lt;/ul&gt;" style="shape=note;whiteSpace=wrap;html=1;backgroundOutline=1;darkOpacity=0.05;fontSize=10;align=left;fontFamily=Tahoma;size=10;perimeterSpacing=0;" vertex="1" parent="zMHJegEWsXh8E0n9ZEiD-345">
          <mxGeometry y="60" width="130" height="60" as="geometry" />
        </mxCell>
        <UserObject label="📷 Unload" link="https://kingstontechnology.sharepoint.com/:i:/s/MES/Eda9_3HTEIFBvjTpsMK1q8QBRQWxytuP9huAV5mfRuhUpw?e=A6JsHm" linkTarget="_blank" id="zMHJegEWsXh8E0n9ZEiD-348">
          <mxCell style="dashed=0;html=1;fillColor=#F0F2F5;strokeColor=none;align=left;rounded=1;arcSize=10;fontColor=#3384FF;fontStyle=1;fontSize=11;shadow=0" vertex="1" parent="zMHJegEWsXh8E0n9ZEiD-345">
            <mxGeometry y="120" width="95" height="20" as="geometry" />
          </mxCell>
        </UserObject>
        <UserObject label="📷 Result System" link="https://kingstontechnology.sharepoint.com/:i:/s/MES/EexC1oTMrU5Kg09U1aPi7NoBJef8JUL-7zURnNZmsdSeSA?e=UcWaxC" linkTarget="_blank" id="zMHJegEWsXh8E0n9ZEiD-349">
          <mxCell style="dashed=0;html=1;fillColor=#F0F2F5;strokeColor=none;align=left;rounded=1;arcSize=10;fontColor=#3384FF;fontStyle=1;fontSize=11;shadow=0" vertex="1" parent="zMHJegEWsXh8E0n9ZEiD-345">
            <mxGeometry y="140" width="100" height="20" as="geometry" />
          </mxCell>
        </UserObject>
        <mxCell id="zMHJegEWsXh8E0n9ZEiD-350" value="" style="group" vertex="1" connectable="0" parent="zMHJegEWsXh8E0n9ZEiD-247">
          <mxGeometry x="1420" y="118" width="160" height="160" as="geometry" />
        </mxCell>
        <mxCell id="zMHJegEWsXh8E0n9ZEiD-351" value="Burn In" style="rounded=1;whiteSpace=wrap;html=1;absoluteArcSize=1;arcSize=14;strokeWidth=2;" vertex="1" parent="zMHJegEWsXh8E0n9ZEiD-350">
          <mxGeometry width="100" height="60" as="geometry" />
        </mxCell>
        <mxCell id="zMHJegEWsXh8E0n9ZEiD-352" value="&lt;ul&gt;&lt;li&gt;&lt;font color=&quot;#666666&quot;&gt;Load onto BurnIn Board&lt;/font&gt;&lt;/li&gt;&lt;li&gt;&lt;font color=&quot;#666666&quot;&gt;BurnIn board Id &amp;lt;&amp;gt; PCBA &amp;lt;&amp;gt; Slot Id (machine)&lt;/font&gt;&lt;/li&gt;&lt;li&gt;&lt;font color=&quot;#666666&quot;&gt;3 times max&lt;/font&gt;&lt;/li&gt;&lt;/ul&gt;" style="shape=note;whiteSpace=wrap;html=1;backgroundOutline=1;darkOpacity=0.05;fontSize=10;align=left;fontFamily=Tahoma;size=10;perimeterSpacing=0;" vertex="1" parent="zMHJegEWsXh8E0n9ZEiD-350">
          <mxGeometry y="60" width="160" height="60" as="geometry" />
        </mxCell>
        <UserObject label="📷 Monitor" link="https://kingstontechnology.sharepoint.com/:i:/s/MES/EfQzjdbs0X1Ggy2ota5f-QoBzK0qMvdgb8KNStLoLDBjdg?e=xvOzkz" linkTarget="_blank" id="zMHJegEWsXh8E0n9ZEiD-353">
          <mxCell style="dashed=0;html=1;fillColor=#F0F2F5;strokeColor=none;align=left;rounded=1;arcSize=10;fontColor=#3384FF;fontStyle=1;fontSize=11;shadow=0" vertex="1" parent="zMHJegEWsXh8E0n9ZEiD-350">
            <mxGeometry y="120" width="95" height="20" as="geometry" />
          </mxCell>
        </UserObject>
        <UserObject label="📷 Machine" link="https://kingstontechnology.sharepoint.com/:i:/s/MES/ESQl_BVlD3tIgvfJKd0v26EBZnnQpSID944jrC9HR635Qw?e=KCEjNT" linkTarget="_blank" id="zMHJegEWsXh8E0n9ZEiD-354">
          <mxCell style="dashed=0;html=1;fillColor=#F0F2F5;strokeColor=none;align=left;rounded=1;arcSize=10;fontColor=#3384FF;fontStyle=1;fontSize=11;shadow=0" vertex="1" parent="zMHJegEWsXh8E0n9ZEiD-350">
            <mxGeometry y="140" width="95" height="20" as="geometry" />
          </mxCell>
        </UserObject>
        <mxCell id="zMHJegEWsXh8E0n9ZEiD-355" value="" style="group" vertex="1" connectable="0" parent="zMHJegEWsXh8E0n9ZEiD-247">
          <mxGeometry x="1257" y="118" width="100" height="80" as="geometry" />
        </mxCell>
        <mxCell id="zMHJegEWsXh8E0n9ZEiD-356" value="Burn In Board Load" style="rounded=1;whiteSpace=wrap;html=1;absoluteArcSize=1;arcSize=14;strokeWidth=2;" vertex="1" parent="zMHJegEWsXh8E0n9ZEiD-355">
          <mxGeometry width="100" height="60" as="geometry" />
        </mxCell>
        <UserObject label="📷 Loader" link="https://kingstontechnology.sharepoint.com/:i:/s/MES/Eb2MElQixdxAig6TZo1t-8wBxGuy3vivJuO_HeKMlJJ6Fw?e=40Kwz5" linkTarget="_blank" id="zMHJegEWsXh8E0n9ZEiD-357">
          <mxCell style="dashed=0;html=1;fillColor=#F0F2F5;strokeColor=none;align=center;rounded=1;arcSize=10;fontColor=#3384FF;fontStyle=1;fontSize=11;shadow=0" vertex="1" parent="zMHJegEWsXh8E0n9ZEiD-355">
            <mxGeometry y="60" width="95" height="20" as="geometry" />
          </mxCell>
        </UserObject>
        <mxCell id="zMHJegEWsXh8E0n9ZEiD-358" value="      CM - Ginger" style="swimlane;fontFamily=Tahoma;fontSize=10;align=left;" vertex="1" parent="zMHJegEWsXh8E0n9ZEiD-119">
          <mxGeometry x="40" y="1380" width="2080" height="600" as="geometry">
            <mxRectangle x="40" y="1450" width="70" height="30" as="alternateBounds" />
          </mxGeometry>
        </mxCell>
        <mxCell id="zMHJegEWsXh8E0n9ZEiD-359" value="&lt;ul&gt;&lt;li&gt;&lt;font color=&quot;#666666&quot;&gt;3 Types of products&lt;/font&gt;&lt;/li&gt;&lt;ul&gt;&lt;li&gt;&lt;font color=&quot;#666666&quot;&gt;Phiomia w/ case&lt;/font&gt;&lt;/li&gt;&lt;li&gt;&lt;font color=&quot;#666666&quot;&gt;Phiomia w/o case (similar to channel)&lt;br&gt;&lt;/font&gt;&lt;/li&gt;&lt;li&gt;&lt;font color=&quot;#666666&quot;&gt;Warthog&lt;/font&gt;&lt;/li&gt;&lt;/ul&gt;&lt;li&gt;&lt;font color=&quot;#666666&quot;&gt;Has line storage&lt;/font&gt;&lt;/li&gt;&lt;li&gt;&lt;font color=&quot;#666666&quot;&gt;Minor parts defined in the BOM&lt;/font&gt;&lt;/li&gt;&lt;/ul&gt;" style="shape=note;whiteSpace=wrap;html=1;backgroundOutline=1;darkOpacity=0.05;fontSize=10;align=left;fontFamily=Tahoma;size=10;perimeterSpacing=0;" vertex="1" parent="zMHJegEWsXh8E0n9ZEiD-358">
          <mxGeometry y="23" width="280" height="87" as="geometry" />
        </mxCell>
        <mxCell id="zMHJegEWsXh8E0n9ZEiD-360" style="edgeStyle=orthogonalEdgeStyle;rounded=0;orthogonalLoop=1;jettySize=auto;html=1;entryX=0.5;entryY=0;entryDx=0;entryDy=0;exitX=0.5;exitY=0;exitDx=0;exitDy=0;" edge="1" parent="zMHJegEWsXh8E0n9ZEiD-358">
          <mxGeometry relative="1" as="geometry">
            <mxPoint x="700" y="115.5" as="sourcePoint" />
          </mxGeometry>
        </mxCell>
        <mxCell id="zMHJegEWsXh8E0n9ZEiD-361" value="MST" style="rounded=1;whiteSpace=wrap;html=1;" vertex="1" parent="zMHJegEWsXh8E0n9ZEiD-358">
          <mxGeometry x="350" y="131" width="105" height="60" as="geometry" />
        </mxCell>
        <mxCell id="zMHJegEWsXh8E0n9ZEiD-362" value="" style="edgeStyle=orthogonalEdgeStyle;rounded=0;orthogonalLoop=1;jettySize=auto;html=1;" edge="1" parent="zMHJegEWsXh8E0n9ZEiD-358" source="zMHJegEWsXh8E0n9ZEiD-439" target="zMHJegEWsXh8E0n9ZEiD-361">
          <mxGeometry relative="1" as="geometry" />
        </mxCell>
        <mxCell id="zMHJegEWsXh8E0n9ZEiD-363" value="w/o case" style="edgeStyle=orthogonalEdgeStyle;rounded=0;orthogonalLoop=1;jettySize=auto;html=1;" edge="1" parent="zMHJegEWsXh8E0n9ZEiD-358" source="zMHJegEWsXh8E0n9ZEiD-426" target="zMHJegEWsXh8E0n9ZEiD-369">
          <mxGeometry relative="1" as="geometry" />
        </mxCell>
        <mxCell id="zMHJegEWsXh8E0n9ZEiD-364" value="" style="edgeStyle=orthogonalEdgeStyle;rounded=0;orthogonalLoop=1;jettySize=auto;html=1;" edge="1" parent="zMHJegEWsXh8E0n9ZEiD-358" source="zMHJegEWsXh8E0n9ZEiD-361" target="zMHJegEWsXh8E0n9ZEiD-426">
          <mxGeometry relative="1" as="geometry" />
        </mxCell>
        <mxCell id="zMHJegEWsXh8E0n9ZEiD-365" value="" style="edgeStyle=orthogonalEdgeStyle;rounded=0;orthogonalLoop=1;jettySize=auto;html=1;entryX=0;entryY=0.5;entryDx=0;entryDy=0;" edge="1" parent="zMHJegEWsXh8E0n9ZEiD-358" source="zMHJegEWsXh8E0n9ZEiD-426" target="zMHJegEWsXh8E0n9ZEiD-375">
          <mxGeometry relative="1" as="geometry" />
        </mxCell>
        <mxCell id="zMHJegEWsXh8E0n9ZEiD-366" value="" style="edgeStyle=orthogonalEdgeStyle;rounded=0;orthogonalLoop=1;jettySize=auto;html=1;" edge="1" parent="zMHJegEWsXh8E0n9ZEiD-358">
          <mxGeometry relative="1" as="geometry">
            <mxPoint x="1675" y="161" as="sourcePoint" />
          </mxGeometry>
        </mxCell>
        <mxCell id="zMHJegEWsXh8E0n9ZEiD-367" value="" style="edgeStyle=orthogonalEdgeStyle;rounded=0;orthogonalLoop=1;jettySize=auto;html=1;" edge="1" parent="zMHJegEWsXh8E0n9ZEiD-358" source="zMHJegEWsXh8E0n9ZEiD-419" target="zMHJegEWsXh8E0n9ZEiD-393">
          <mxGeometry relative="1" as="geometry">
            <mxPoint x="1815" y="161" as="sourcePoint" />
          </mxGeometry>
        </mxCell>
        <mxCell id="zMHJegEWsXh8E0n9ZEiD-368" value="" style="edgeStyle=orthogonalEdgeStyle;rounded=0;orthogonalLoop=1;jettySize=auto;html=1;" edge="1" parent="zMHJegEWsXh8E0n9ZEiD-358" source="zMHJegEWsXh8E0n9ZEiD-369" target="zMHJegEWsXh8E0n9ZEiD-420">
          <mxGeometry relative="1" as="geometry">
            <mxPoint x="1570" y="161" as="targetPoint" />
          </mxGeometry>
        </mxCell>
        <mxCell id="zMHJegEWsXh8E0n9ZEiD-369" value="QC VI" style="rounded=1;whiteSpace=wrap;html=1;" vertex="1" parent="zMHJegEWsXh8E0n9ZEiD-358">
          <mxGeometry x="1440" y="131" width="105" height="60" as="geometry" />
        </mxCell>
        <mxCell id="zMHJegEWsXh8E0n9ZEiD-370" value="" style="edgeStyle=orthogonalEdgeStyle;rounded=0;orthogonalLoop=1;jettySize=auto;html=1;exitX=1;exitY=0.5;exitDx=0;exitDy=0;" edge="1" parent="zMHJegEWsXh8E0n9ZEiD-358" source="zMHJegEWsXh8E0n9ZEiD-377" target="zMHJegEWsXh8E0n9ZEiD-369">
          <mxGeometry relative="1" as="geometry" />
        </mxCell>
        <mxCell id="zMHJegEWsXh8E0n9ZEiD-371" value="" style="group" vertex="1" connectable="0" parent="zMHJegEWsXh8E0n9ZEiD-358">
          <mxGeometry x="20" y="131" width="150" height="99" as="geometry" />
        </mxCell>
        <mxCell id="zMHJegEWsXh8E0n9ZEiD-372" value="SNTS 1" style="rounded=1;whiteSpace=wrap;html=1;" vertex="1" parent="zMHJegEWsXh8E0n9ZEiD-371">
          <mxGeometry width="105" height="60" as="geometry" />
        </mxCell>
        <mxCell id="zMHJegEWsXh8E0n9ZEiD-373" value="&lt;ul&gt;&lt;li&gt;&lt;font color=&quot;#666666&quot;&gt;Check PCB S/N formats &amp;amp; uniqueness&lt;/font&gt;&lt;br&gt;&lt;/li&gt;&lt;/ul&gt;" style="shape=note;whiteSpace=wrap;html=1;backgroundOutline=1;darkOpacity=0.05;fontSize=10;align=left;fontFamily=Tahoma;size=10;perimeterSpacing=0;" vertex="1" parent="zMHJegEWsXh8E0n9ZEiD-371">
          <mxGeometry y="60" width="150" height="39" as="geometry" />
        </mxCell>
        <mxCell id="zMHJegEWsXh8E0n9ZEiD-374" value="Phiomia w/ Case" style="swimlane;whiteSpace=wrap;html=1;" vertex="1" parent="zMHJegEWsXh8E0n9ZEiD-358">
          <mxGeometry x="540" y="201" width="940" height="139" as="geometry" />
        </mxCell>
        <mxCell id="zMHJegEWsXh8E0n9ZEiD-375" value="Little Screw" style="rounded=1;whiteSpace=wrap;html=1;" vertex="1" parent="zMHJegEWsXh8E0n9ZEiD-374">
          <mxGeometry x="20" y="41" width="105" height="60" as="geometry" />
        </mxCell>
        <mxCell id="zMHJegEWsXh8E0n9ZEiD-376" value="Big Screw" style="rounded=1;whiteSpace=wrap;html=1;" vertex="1" parent="zMHJegEWsXh8E0n9ZEiD-374">
          <mxGeometry x="290" y="41" width="105" height="60" as="geometry" />
        </mxCell>
        <mxCell id="zMHJegEWsXh8E0n9ZEiD-377" value="QC Test" style="rounded=1;whiteSpace=wrap;html=1;" vertex="1" parent="zMHJegEWsXh8E0n9ZEiD-374">
          <mxGeometry x="810" y="41" width="105" height="60" as="geometry" />
        </mxCell>
        <mxCell id="zMHJegEWsXh8E0n9ZEiD-378" value="Riveting" style="rounded=1;whiteSpace=wrap;html=1;" vertex="1" parent="zMHJegEWsXh8E0n9ZEiD-374">
          <mxGeometry x="542" y="41" width="105" height="60" as="geometry" />
        </mxCell>
        <mxCell id="zMHJegEWsXh8E0n9ZEiD-379" style="edgeStyle=orthogonalEdgeStyle;rounded=0;orthogonalLoop=1;jettySize=auto;html=1;" edge="1" parent="zMHJegEWsXh8E0n9ZEiD-374" source="zMHJegEWsXh8E0n9ZEiD-390" target="zMHJegEWsXh8E0n9ZEiD-377">
          <mxGeometry relative="1" as="geometry" />
        </mxCell>
        <mxCell id="zMHJegEWsXh8E0n9ZEiD-380" value="" style="edgeStyle=orthogonalEdgeStyle;rounded=0;orthogonalLoop=1;jettySize=auto;html=1;" edge="1" parent="zMHJegEWsXh8E0n9ZEiD-374" source="zMHJegEWsXh8E0n9ZEiD-375" target="zMHJegEWsXh8E0n9ZEiD-385">
          <mxGeometry relative="1" as="geometry" />
        </mxCell>
        <mxCell id="zMHJegEWsXh8E0n9ZEiD-381" value="" style="edgeStyle=orthogonalEdgeStyle;rounded=0;orthogonalLoop=1;jettySize=auto;html=1;" edge="1" parent="zMHJegEWsXh8E0n9ZEiD-374" source="zMHJegEWsXh8E0n9ZEiD-385" target="zMHJegEWsXh8E0n9ZEiD-376">
          <mxGeometry relative="1" as="geometry" />
        </mxCell>
        <mxCell id="zMHJegEWsXh8E0n9ZEiD-382" value="" style="edgeStyle=orthogonalEdgeStyle;rounded=0;orthogonalLoop=1;jettySize=auto;html=1;" edge="1" parent="zMHJegEWsXh8E0n9ZEiD-374" source="zMHJegEWsXh8E0n9ZEiD-378" target="zMHJegEWsXh8E0n9ZEiD-390">
          <mxGeometry relative="1" as="geometry" />
        </mxCell>
        <mxCell id="zMHJegEWsXh8E0n9ZEiD-383" value="" style="edgeStyle=orthogonalEdgeStyle;rounded=0;orthogonalLoop=1;jettySize=auto;html=1;" edge="1" parent="zMHJegEWsXh8E0n9ZEiD-374" source="zMHJegEWsXh8E0n9ZEiD-376" target="zMHJegEWsXh8E0n9ZEiD-388">
          <mxGeometry relative="1" as="geometry">
            <mxPoint x="385" y="50" as="targetPoint" />
          </mxGeometry>
        </mxCell>
        <mxCell id="zMHJegEWsXh8E0n9ZEiD-384" value="" style="group" vertex="1" connectable="0" parent="zMHJegEWsXh8E0n9ZEiD-374">
          <mxGeometry x="150" y="41" width="130" height="90" as="geometry" />
        </mxCell>
        <mxCell id="zMHJegEWsXh8E0n9ZEiD-385" value="Print Label" style="rounded=1;whiteSpace=wrap;html=1;" vertex="1" parent="zMHJegEWsXh8E0n9ZEiD-384">
          <mxGeometry width="105" height="60" as="geometry" />
        </mxCell>
        <mxCell id="zMHJegEWsXh8E0n9ZEiD-386" value="&lt;ul&gt;&lt;li&gt;&lt;font color=&quot;#666666&quot;&gt;Scan PCBA label&lt;/font&gt;&lt;/li&gt;&lt;/ul&gt;" style="shape=note;whiteSpace=wrap;html=1;backgroundOutline=1;darkOpacity=0.05;fontSize=10;align=left;fontFamily=Tahoma;size=10;perimeterSpacing=0;" vertex="1" parent="zMHJegEWsXh8E0n9ZEiD-384">
          <mxGeometry y="60" width="130" height="30" as="geometry" />
        </mxCell>
        <mxCell id="zMHJegEWsXh8E0n9ZEiD-387" style="edgeStyle=orthogonalEdgeStyle;rounded=0;orthogonalLoop=1;jettySize=auto;html=1;" edge="1" parent="zMHJegEWsXh8E0n9ZEiD-374" source="zMHJegEWsXh8E0n9ZEiD-388" target="zMHJegEWsXh8E0n9ZEiD-378">
          <mxGeometry relative="1" as="geometry" />
        </mxCell>
        <mxCell id="zMHJegEWsXh8E0n9ZEiD-388" value="Paste Label" style="rounded=1;whiteSpace=wrap;html=1;" vertex="1" parent="zMHJegEWsXh8E0n9ZEiD-374">
          <mxGeometry x="415" y="41" width="105" height="60" as="geometry" />
        </mxCell>
        <mxCell id="zMHJegEWsXh8E0n9ZEiD-389" value="" style="group" vertex="1" connectable="0" parent="zMHJegEWsXh8E0n9ZEiD-374">
          <mxGeometry x="680" y="41" width="105" height="80" as="geometry" />
        </mxCell>
        <mxCell id="zMHJegEWsXh8E0n9ZEiD-390" value="Bracket Assy" style="rounded=1;whiteSpace=wrap;html=1;" vertex="1" parent="zMHJegEWsXh8E0n9ZEiD-389">
          <mxGeometry width="105" height="60" as="geometry" />
        </mxCell>
        <UserObject label="📷 Bracket" link="https://kingstontechnology.sharepoint.com/:i:/s/MES/EQDS6qmwlOtJmlmR4KhF_w8BSSC_TpKOqSKUUfnUmhwjUQ?e=WHW2sw" linkTarget="_blank" id="zMHJegEWsXh8E0n9ZEiD-391">
          <mxCell style="dashed=0;html=1;fillColor=#F0F2F5;strokeColor=none;align=center;rounded=1;arcSize=10;fontColor=#3384FF;fontStyle=1;fontSize=11;shadow=0" vertex="1" parent="zMHJegEWsXh8E0n9ZEiD-389">
            <mxGeometry y="60" width="95" height="20" as="geometry" />
          </mxCell>
        </UserObject>
        <mxCell id="zMHJegEWsXh8E0n9ZEiD-392" value="" style="group" vertex="1" connectable="0" parent="zMHJegEWsXh8E0n9ZEiD-358">
          <mxGeometry x="1890" y="131" width="150" height="99" as="geometry" />
        </mxCell>
        <mxCell id="zMHJegEWsXh8E0n9ZEiD-393" value="SNTS 2" style="rounded=1;whiteSpace=wrap;html=1;" vertex="1" parent="zMHJegEWsXh8E0n9ZEiD-392">
          <mxGeometry width="105" height="60" as="geometry" />
        </mxCell>
        <mxCell id="zMHJegEWsXh8E0n9ZEiD-394" value="&lt;ul&gt;&lt;li&gt;&lt;font color=&quot;#666666&quot;&gt;Verify product S/N &amp;amp; PCB S/N&lt;/font&gt;&lt;/li&gt;&lt;/ul&gt;" style="shape=note;whiteSpace=wrap;html=1;backgroundOutline=1;darkOpacity=0.05;fontSize=10;align=left;fontFamily=Tahoma;size=10;perimeterSpacing=0;" vertex="1" parent="zMHJegEWsXh8E0n9ZEiD-392">
          <mxGeometry y="60" width="150" height="39" as="geometry" />
        </mxCell>
        <mxCell id="zMHJegEWsXh8E0n9ZEiD-395" value="" style="edgeStyle=orthogonalEdgeStyle;rounded=0;orthogonalLoop=1;jettySize=auto;html=1;" edge="1" parent="zMHJegEWsXh8E0n9ZEiD-358" source="zMHJegEWsXh8E0n9ZEiD-431" target="zMHJegEWsXh8E0n9ZEiD-406">
          <mxGeometry relative="1" as="geometry" />
        </mxCell>
        <mxCell id="zMHJegEWsXh8E0n9ZEiD-396" value="" style="edgeStyle=orthogonalEdgeStyle;rounded=0;orthogonalLoop=1;jettySize=auto;html=1;" edge="1" parent="zMHJegEWsXh8E0n9ZEiD-358" source="zMHJegEWsXh8E0n9ZEiD-406" target="zMHJegEWsXh8E0n9ZEiD-435">
          <mxGeometry relative="1" as="geometry" />
        </mxCell>
        <mxCell id="zMHJegEWsXh8E0n9ZEiD-397" value="" style="edgeStyle=orthogonalEdgeStyle;rounded=0;orthogonalLoop=1;jettySize=auto;html=1;" edge="1" parent="zMHJegEWsXh8E0n9ZEiD-358" source="zMHJegEWsXh8E0n9ZEiD-435" target="zMHJegEWsXh8E0n9ZEiD-409">
          <mxGeometry relative="1" as="geometry" />
        </mxCell>
        <mxCell id="zMHJegEWsXh8E0n9ZEiD-398" value="" style="edgeStyle=orthogonalEdgeStyle;rounded=0;orthogonalLoop=1;jettySize=auto;html=1;" edge="1" parent="zMHJegEWsXh8E0n9ZEiD-358" source="zMHJegEWsXh8E0n9ZEiD-423" target="zMHJegEWsXh8E0n9ZEiD-402">
          <mxGeometry relative="1" as="geometry">
            <mxPoint x="960" y="411" as="targetPoint" />
          </mxGeometry>
        </mxCell>
        <mxCell id="zMHJegEWsXh8E0n9ZEiD-399" value="" style="edgeStyle=orthogonalEdgeStyle;rounded=0;orthogonalLoop=1;jettySize=auto;html=1;" edge="1" parent="zMHJegEWsXh8E0n9ZEiD-358" source="zMHJegEWsXh8E0n9ZEiD-409" target="zMHJegEWsXh8E0n9ZEiD-423">
          <mxGeometry relative="1" as="geometry" />
        </mxCell>
        <mxCell id="zMHJegEWsXh8E0n9ZEiD-400" value="" style="edgeStyle=orthogonalEdgeStyle;rounded=0;orthogonalLoop=1;jettySize=auto;html=1;" edge="1" parent="zMHJegEWsXh8E0n9ZEiD-358" source="zMHJegEWsXh8E0n9ZEiD-412" target="zMHJegEWsXh8E0n9ZEiD-415">
          <mxGeometry relative="1" as="geometry" />
        </mxCell>
        <mxCell id="zMHJegEWsXh8E0n9ZEiD-401" value="" style="edgeStyle=orthogonalEdgeStyle;rounded=0;orthogonalLoop=1;jettySize=auto;html=1;" edge="1" parent="zMHJegEWsXh8E0n9ZEiD-358" source="zMHJegEWsXh8E0n9ZEiD-402" target="zMHJegEWsXh8E0n9ZEiD-412">
          <mxGeometry relative="1" as="geometry" />
        </mxCell>
        <mxCell id="zMHJegEWsXh8E0n9ZEiD-402" value="QC VI" style="rounded=1;whiteSpace=wrap;html=1;" vertex="1" parent="zMHJegEWsXh8E0n9ZEiD-358">
          <mxGeometry x="970" y="381" width="105" height="60" as="geometry" />
        </mxCell>
        <mxCell id="zMHJegEWsXh8E0n9ZEiD-403" value="Warthog" style="edgeStyle=orthogonalEdgeStyle;rounded=0;orthogonalLoop=1;jettySize=auto;html=1;entryX=0;entryY=0.5;entryDx=0;entryDy=0;" edge="1" parent="zMHJegEWsXh8E0n9ZEiD-358" source="zMHJegEWsXh8E0n9ZEiD-372" target="zMHJegEWsXh8E0n9ZEiD-431">
          <mxGeometry relative="1" as="geometry">
            <Array as="points">
              <mxPoint x="180" y="161" />
              <mxPoint x="180" y="411" />
            </Array>
          </mxGeometry>
        </mxCell>
        <mxCell id="zMHJegEWsXh8E0n9ZEiD-404" value="Phiomia" style="edgeStyle=orthogonalEdgeStyle;rounded=0;orthogonalLoop=1;jettySize=auto;html=1;" edge="1" parent="zMHJegEWsXh8E0n9ZEiD-358" source="zMHJegEWsXh8E0n9ZEiD-372" target="zMHJegEWsXh8E0n9ZEiD-439">
          <mxGeometry relative="1" as="geometry" />
        </mxCell>
        <mxCell id="zMHJegEWsXh8E0n9ZEiD-405" value="" style="group" vertex="1" connectable="0" parent="zMHJegEWsXh8E0n9ZEiD-358">
          <mxGeometry x="380" y="381" width="120" height="100" as="geometry" />
        </mxCell>
        <mxCell id="zMHJegEWsXh8E0n9ZEiD-406" value="Assembly" style="rounded=1;whiteSpace=wrap;html=1;" vertex="1" parent="zMHJegEWsXh8E0n9ZEiD-405">
          <mxGeometry width="105" height="60" as="geometry" />
        </mxCell>
        <mxCell id="zMHJegEWsXh8E0n9ZEiD-407" value="&lt;ul&gt;&lt;li&gt;&lt;font color=&quot;#666666&quot;&gt;Assy HS &amp;gt; Assy bracket &amp;gt; VI&lt;/font&gt;&lt;/li&gt;&lt;/ul&gt;" style="shape=note;whiteSpace=wrap;html=1;backgroundOutline=1;darkOpacity=0.05;fontSize=10;align=left;fontFamily=Tahoma;size=10;perimeterSpacing=0;" vertex="1" parent="zMHJegEWsXh8E0n9ZEiD-405">
          <mxGeometry x="1" y="60.5" width="119" height="39.5" as="geometry" />
        </mxCell>
        <mxCell id="zMHJegEWsXh8E0n9ZEiD-408" value="" style="group" vertex="1" connectable="0" parent="zMHJegEWsXh8E0n9ZEiD-358">
          <mxGeometry x="663" y="381" width="137" height="99" as="geometry" />
        </mxCell>
        <mxCell id="zMHJegEWsXh8E0n9ZEiD-409" value="SNTS 2" style="rounded=1;whiteSpace=wrap;html=1;" vertex="1" parent="zMHJegEWsXh8E0n9ZEiD-408">
          <mxGeometry width="105" height="60" as="geometry" />
        </mxCell>
        <mxCell id="zMHJegEWsXh8E0n9ZEiD-410" value="&lt;ul&gt;&lt;li&gt;&lt;font color=&quot;#666666&quot;&gt;Verify product S/N and PCB S/N&lt;/font&gt;&lt;/li&gt;&lt;/ul&gt;" style="shape=note;whiteSpace=wrap;html=1;backgroundOutline=1;darkOpacity=0.05;fontSize=10;align=left;fontFamily=Tahoma;size=10;perimeterSpacing=0;" vertex="1" parent="zMHJegEWsXh8E0n9ZEiD-408">
          <mxGeometry y="60" width="137" height="39" as="geometry" />
        </mxCell>
        <mxCell id="zMHJegEWsXh8E0n9ZEiD-411" value="" style="group" vertex="1" connectable="0" parent="zMHJegEWsXh8E0n9ZEiD-358">
          <mxGeometry x="1093.5" y="381" width="105" height="99" as="geometry" />
        </mxCell>
        <mxCell id="zMHJegEWsXh8E0n9ZEiD-412" value="QA VI" style="rounded=1;whiteSpace=wrap;html=1;" vertex="1" parent="zMHJegEWsXh8E0n9ZEiD-411">
          <mxGeometry width="105" height="60" as="geometry" />
        </mxCell>
        <mxCell id="zMHJegEWsXh8E0n9ZEiD-413" value="&lt;ul&gt;&lt;li&gt;&lt;font color=&quot;#666666&quot;&gt;Scan S/N&lt;/font&gt;&lt;/li&gt;&lt;li&gt;&lt;font color=&quot;#666666&quot;&gt;Scan SKU&lt;/font&gt;&lt;/li&gt;&lt;/ul&gt;" style="shape=note;whiteSpace=wrap;html=1;backgroundOutline=1;darkOpacity=0.05;fontSize=10;align=left;fontFamily=Tahoma;size=10;perimeterSpacing=0;" vertex="1" parent="zMHJegEWsXh8E0n9ZEiD-411">
          <mxGeometry y="60" width="96.5" height="39" as="geometry" />
        </mxCell>
        <mxCell id="zMHJegEWsXh8E0n9ZEiD-414" value="" style="group" vertex="1" connectable="0" parent="zMHJegEWsXh8E0n9ZEiD-358">
          <mxGeometry x="1246" y="381" width="134" height="99" as="geometry" />
        </mxCell>
        <mxCell id="zMHJegEWsXh8E0n9ZEiD-415" value="SNTS 3" style="rounded=1;whiteSpace=wrap;html=1;" vertex="1" parent="zMHJegEWsXh8E0n9ZEiD-414">
          <mxGeometry width="105" height="60" as="geometry" />
        </mxCell>
        <mxCell id="zMHJegEWsXh8E0n9ZEiD-416" value="&lt;ul&gt;&lt;li&gt;&lt;font color=&quot;#666666&quot;&gt;Verify product S/N and PCB S/N&lt;/font&gt;&lt;/li&gt;&lt;/ul&gt;" style="shape=note;whiteSpace=wrap;html=1;backgroundOutline=1;darkOpacity=0.05;fontSize=10;align=left;fontFamily=Tahoma;size=10;perimeterSpacing=0;" vertex="1" parent="zMHJegEWsXh8E0n9ZEiD-414">
          <mxGeometry y="60" width="134" height="39" as="geometry" />
        </mxCell>
        <mxCell id="zMHJegEWsXh8E0n9ZEiD-417" value="QA Gate" style="swimlane;fontFamily=Tahoma;fontSize=10;" vertex="1" parent="zMHJegEWsXh8E0n9ZEiD-358">
          <mxGeometry x="1560" y="91" width="300" height="120" as="geometry">
            <mxRectangle x="1340" y="42.5" width="80" height="30" as="alternateBounds" />
          </mxGeometry>
        </mxCell>
        <mxCell id="zMHJegEWsXh8E0n9ZEiD-418" value="" style="edgeStyle=orthogonalEdgeStyle;rounded=0;orthogonalLoop=1;jettySize=auto;html=1;fontFamily=Tahoma;fontSize=10;" edge="1" parent="zMHJegEWsXh8E0n9ZEiD-417" source="zMHJegEWsXh8E0n9ZEiD-420" target="zMHJegEWsXh8E0n9ZEiD-419">
          <mxGeometry relative="1" as="geometry">
            <mxPoint x="170" y="85" as="targetPoint" />
          </mxGeometry>
        </mxCell>
        <mxCell id="zMHJegEWsXh8E0n9ZEiD-419" value="QA VI" style="rounded=1;whiteSpace=wrap;html=1;absoluteArcSize=1;arcSize=14;strokeWidth=2;" vertex="1" parent="zMHJegEWsXh8E0n9ZEiD-417">
          <mxGeometry x="175" y="40" width="100" height="60" as="geometry" />
        </mxCell>
        <mxCell id="zMHJegEWsXh8E0n9ZEiD-420" value="QA Test" style="rounded=1;whiteSpace=wrap;html=1;absoluteArcSize=1;arcSize=14;strokeWidth=2;" vertex="1" parent="zMHJegEWsXh8E0n9ZEiD-417">
          <mxGeometry x="20" y="40" width="100" height="60" as="geometry" />
        </mxCell>
        <mxCell id="zMHJegEWsXh8E0n9ZEiD-421" value="" style="group" vertex="1" connectable="0" parent="zMHJegEWsXh8E0n9ZEiD-358">
          <mxGeometry x="810" y="381" width="160" height="129" as="geometry" />
        </mxCell>
        <UserObject label="📷&amp;nbsp;FCT IN/OUT" link="https://kingstontechnology.sharepoint.com/:i:/s/MES/EaiTgDyfeRhPpV1HozZeN7UB3bscaJQtQ9ybE2TeE0AK7Q?e=17zCeY" linkTarget="_blank" id="zMHJegEWsXh8E0n9ZEiD-422">
          <mxCell style="dashed=0;html=1;fillColor=#F0F2F5;strokeColor=none;align=center;rounded=1;arcSize=10;fontColor=#3384FF;fontStyle=1;fontSize=11;shadow=0" vertex="1" parent="zMHJegEWsXh8E0n9ZEiD-421">
            <mxGeometry y="109" width="95" height="20" as="geometry" />
          </mxCell>
        </UserObject>
        <mxCell id="zMHJegEWsXh8E0n9ZEiD-423" value="FT&lt;br&gt;FCT IN/OUT" style="rounded=1;whiteSpace=wrap;html=1;" vertex="1" parent="zMHJegEWsXh8E0n9ZEiD-421">
          <mxGeometry width="105" height="60" as="geometry" />
        </mxCell>
        <mxCell id="zMHJegEWsXh8E0n9ZEiD-424" value="&lt;ul&gt;&lt;li&gt;&lt;font color=&quot;#666666&quot;&gt;Testing board ID + S/N&lt;/font&gt;&lt;/li&gt;&lt;li&gt;&lt;font color=&quot;#666666&quot;&gt;Record error code + S/N&lt;/font&gt;&lt;/li&gt;&lt;li&gt;&lt;font color=&quot;#666666&quot;&gt;Load to shipping tray&lt;/font&gt;&lt;/li&gt;&lt;/ul&gt;" style="shape=note;whiteSpace=wrap;html=1;backgroundOutline=1;darkOpacity=0.05;fontSize=10;align=left;fontFamily=Tahoma;size=10;perimeterSpacing=0;" vertex="1" parent="zMHJegEWsXh8E0n9ZEiD-421">
          <mxGeometry y="60" width="160" height="49" as="geometry" />
        </mxCell>
        <mxCell id="zMHJegEWsXh8E0n9ZEiD-425" value="" style="group" vertex="1" connectable="0" parent="zMHJegEWsXh8E0n9ZEiD-358">
          <mxGeometry x="475" y="110" width="105" height="81" as="geometry" />
        </mxCell>
        <mxCell id="zMHJegEWsXh8E0n9ZEiD-426" value="FTB" style="rounded=1;whiteSpace=wrap;html=1;" vertex="1" parent="zMHJegEWsXh8E0n9ZEiD-425">
          <mxGeometry y="21" width="105" height="60" as="geometry" />
        </mxCell>
        <UserObject label="📷&amp;nbsp;FTB" link="https://kingstontechnology.sharepoint.com/:i:/s/MES/ETXypaw8WcNMljRLGiV6h7sB2Ymrer6J6jNuOdBRK5jKUg?e=Fo41GW" linkTarget="_blank" id="zMHJegEWsXh8E0n9ZEiD-427">
          <mxCell style="dashed=0;html=1;fillColor=#F0F2F5;strokeColor=none;align=center;rounded=1;arcSize=10;fontColor=#3384FF;fontStyle=1;fontSize=11;shadow=0" vertex="1" parent="zMHJegEWsXh8E0n9ZEiD-425">
            <mxGeometry width="95" height="20" as="geometry" />
          </mxCell>
        </UserObject>
        <mxCell id="zMHJegEWsXh8E0n9ZEiD-428" value="" style="group" vertex="1" connectable="0" parent="zMHJegEWsXh8E0n9ZEiD-358">
          <mxGeometry x="210" y="381" width="160" height="159" as="geometry" />
        </mxCell>
        <UserObject label="📷&amp;nbsp;ICT" link="https://kingstontechnology.sharepoint.com/:i:/s/MES/Ed8o0WQ1nTBCnxatfVLAjfgBgdT3fAEW5RAHOTaFvqGLhA?e=wyzE41" linkTarget="_blank" id="zMHJegEWsXh8E0n9ZEiD-429">
          <mxCell style="dashed=0;html=1;fillColor=#F0F2F5;strokeColor=none;align=left;rounded=1;arcSize=10;fontColor=#3384FF;fontStyle=1;fontSize=11;shadow=0" vertex="1" parent="zMHJegEWsXh8E0n9ZEiD-428">
            <mxGeometry y="119" width="95" height="20" as="geometry" />
          </mxCell>
        </UserObject>
        <UserObject label="📷&amp;nbsp;Fixture" link="https://kingstontechnology.sharepoint.com/:i:/s/MES/EXHZA1li9wtGrkG-eSacP2cBu4bmHMmOFJonOU1ZBJZzjw?e=wnlCy6" linkTarget="_blank" id="zMHJegEWsXh8E0n9ZEiD-430">
          <mxCell style="dashed=0;html=1;fillColor=#F0F2F5;strokeColor=none;align=left;rounded=1;arcSize=10;fontColor=#3384FF;fontStyle=1;fontSize=11;shadow=0" vertex="1" parent="zMHJegEWsXh8E0n9ZEiD-428">
            <mxGeometry y="139" width="95" height="20" as="geometry" />
          </mxCell>
        </UserObject>
        <mxCell id="zMHJegEWsXh8E0n9ZEiD-431" value="ICT" style="rounded=1;whiteSpace=wrap;html=1;" vertex="1" parent="zMHJegEWsXh8E0n9ZEiD-428">
          <mxGeometry width="105" height="60" as="geometry" />
        </mxCell>
        <mxCell id="zMHJegEWsXh8E0n9ZEiD-432" value="&lt;ul&gt;&lt;li&gt;&lt;span style=&quot;color: rgb(102, 102, 102); background-color: initial;&quot;&gt;Scan port + S/N + fixture&lt;/span&gt;&lt;br&gt;&lt;/li&gt;&lt;li&gt;&lt;font color=&quot;#666666&quot;&gt;Detect shorts&lt;/font&gt;&lt;/li&gt;&lt;li&gt;&lt;font color=&quot;#666666&quot;&gt;Firmware burn in&lt;/font&gt;&lt;/li&gt;&lt;li&gt;&lt;font color=&quot;#666666&quot;&gt;Scan 99 for program&lt;/font&gt;&lt;/li&gt;&lt;/ul&gt;" style="shape=note;whiteSpace=wrap;html=1;backgroundOutline=1;darkOpacity=0.05;fontSize=10;align=left;fontFamily=Tahoma;size=10;perimeterSpacing=0;" vertex="1" parent="zMHJegEWsXh8E0n9ZEiD-428">
          <mxGeometry x="1" y="60" width="159" height="59" as="geometry" />
        </mxCell>
        <mxCell id="zMHJegEWsXh8E0n9ZEiD-433" value="" style="group" vertex="1" connectable="0" parent="zMHJegEWsXh8E0n9ZEiD-358">
          <mxGeometry x="514" y="381" width="135" height="120" as="geometry" />
        </mxCell>
        <UserObject label="📷&amp;nbsp;Label" link="https://kingstontechnology.sharepoint.com/:i:/s/MES/EVqtf6HeYZVOoWgPvTY-GtwBANhcDx6vm4ha1chDIYU_FQ?e=3lIMSl" linkTarget="_blank" id="zMHJegEWsXh8E0n9ZEiD-434">
          <mxCell style="dashed=0;html=1;fillColor=#F0F2F5;strokeColor=none;align=left;rounded=1;arcSize=10;fontColor=#3384FF;fontStyle=1;fontSize=11;shadow=0" vertex="1" parent="zMHJegEWsXh8E0n9ZEiD-433">
            <mxGeometry y="100" width="95" height="20" as="geometry" />
          </mxCell>
        </UserObject>
        <mxCell id="zMHJegEWsXh8E0n9ZEiD-435" value="Labeling" style="rounded=1;whiteSpace=wrap;html=1;" vertex="1" parent="zMHJegEWsXh8E0n9ZEiD-433">
          <mxGeometry width="105" height="60" as="geometry" />
        </mxCell>
        <mxCell id="zMHJegEWsXh8E0n9ZEiD-436" value="&lt;ul&gt;&lt;li&gt;&lt;font color=&quot;#666666&quot;&gt;Anti-collision&amp;nbsp;label&lt;/font&gt;&lt;/li&gt;&lt;li&gt;&lt;font color=&quot;#666666&quot;&gt;Product label&lt;/font&gt;&lt;/li&gt;&lt;/ul&gt;" style="shape=note;whiteSpace=wrap;html=1;backgroundOutline=1;darkOpacity=0.05;fontSize=10;align=left;fontFamily=Tahoma;size=10;perimeterSpacing=0;" vertex="1" parent="zMHJegEWsXh8E0n9ZEiD-433">
          <mxGeometry y="60" width="135" height="39" as="geometry" />
        </mxCell>
        <mxCell id="zMHJegEWsXh8E0n9ZEiD-437" value="" style="group" vertex="1" connectable="0" parent="zMHJegEWsXh8E0n9ZEiD-358">
          <mxGeometry x="201" y="131" width="160" height="159" as="geometry" />
        </mxCell>
        <UserObject label="📷&amp;nbsp;FT" link="https://kingstontechnology.sharepoint.com/:i:/s/MES/ETa5598XxA1JpGU0tRwfS7UBlVGJC6duwIr6OATw4Cb3kw?e=zP18xS" linkTarget="_blank" id="zMHJegEWsXh8E0n9ZEiD-438">
          <mxCell style="dashed=0;html=1;fillColor=#F0F2F5;strokeColor=none;align=center;rounded=1;arcSize=10;fontColor=#3384FF;fontStyle=1;fontSize=11;shadow=0" vertex="1" parent="zMHJegEWsXh8E0n9ZEiD-437">
            <mxGeometry y="139" width="95" height="20" as="geometry" />
          </mxCell>
        </UserObject>
        <mxCell id="zMHJegEWsXh8E0n9ZEiD-439" value="FTA" style="rounded=1;whiteSpace=wrap;html=1;" vertex="1" parent="zMHJegEWsXh8E0n9ZEiD-437">
          <mxGeometry width="105" height="60" as="geometry" />
        </mxCell>
        <mxCell id="zMHJegEWsXh8E0n9ZEiD-440" value="&lt;ul&gt;&lt;li&gt;&lt;font color=&quot;#666666&quot;&gt;Similar to channel&lt;/font&gt;&lt;br&gt;&lt;/li&gt;&lt;li&gt;&lt;font color=&quot;#666666&quot;&gt;Burn S/N &amp;gt; scan WO &amp;gt; scan S/N &amp;gt; scan test ing equipment &amp;gt; scan slot&lt;/font&gt;&lt;/li&gt;&lt;li&gt;&lt;font color=&quot;#666666&quot;&gt;Clamp HS fixture for MST&lt;/font&gt;&lt;/li&gt;&lt;/ul&gt;" style="shape=note;whiteSpace=wrap;html=1;backgroundOutline=1;darkOpacity=0.05;fontSize=10;align=left;fontFamily=Tahoma;size=10;perimeterSpacing=0;" vertex="1" parent="zMHJegEWsXh8E0n9ZEiD-437">
          <mxGeometry y="60" width="160" height="79" as="geometry" />
        </mxCell>
        <mxCell id="zMHJegEWsXh8E0n9ZEiD-441" value="      CM - Apricot" style="swimlane;fontFamily=Tahoma;fontSize=10;align=left;" vertex="1" parent="zMHJegEWsXh8E0n9ZEiD-119">
          <mxGeometry x="40" y="2020" width="2320" height="280" as="geometry">
            <mxRectangle x="40" y="1920" width="70" height="30" as="alternateBounds" />
          </mxGeometry>
        </mxCell>
        <mxCell id="zMHJegEWsXh8E0n9ZEiD-442" style="edgeStyle=orthogonalEdgeStyle;rounded=0;orthogonalLoop=1;jettySize=auto;html=1;entryX=0.5;entryY=0;entryDx=0;entryDy=0;exitX=0.5;exitY=0;exitDx=0;exitDy=0;" edge="1" parent="zMHJegEWsXh8E0n9ZEiD-441">
          <mxGeometry relative="1" as="geometry">
            <mxPoint x="700" y="115.5" as="sourcePoint" />
          </mxGeometry>
        </mxCell>
        <mxCell id="zMHJegEWsXh8E0n9ZEiD-443" value="" style="edgeStyle=orthogonalEdgeStyle;rounded=0;orthogonalLoop=1;jettySize=auto;html=1;" edge="1" parent="zMHJegEWsXh8E0n9ZEiD-441" target="zMHJegEWsXh8E0n9ZEiD-465">
          <mxGeometry relative="1" as="geometry">
            <mxPoint x="275" y="80.00000000000045" as="sourcePoint" />
          </mxGeometry>
        </mxCell>
        <mxCell id="zMHJegEWsXh8E0n9ZEiD-444" value="Fail" style="edgeStyle=orthogonalEdgeStyle;rounded=0;orthogonalLoop=1;jettySize=auto;html=1;" edge="1" parent="zMHJegEWsXh8E0n9ZEiD-441" source="zMHJegEWsXh8E0n9ZEiD-465" target="zMHJegEWsXh8E0n9ZEiD-470">
          <mxGeometry x="0.538" relative="1" as="geometry">
            <mxPoint as="offset" />
          </mxGeometry>
        </mxCell>
        <mxCell id="zMHJegEWsXh8E0n9ZEiD-445" value="" style="edgeStyle=orthogonalEdgeStyle;rounded=0;orthogonalLoop=1;jettySize=auto;html=1;" edge="1" parent="zMHJegEWsXh8E0n9ZEiD-441" source="zMHJegEWsXh8E0n9ZEiD-470" target="zMHJegEWsXh8E0n9ZEiD-468">
          <mxGeometry relative="1" as="geometry" />
        </mxCell>
        <mxCell id="zMHJegEWsXh8E0n9ZEiD-446" value="" style="edgeStyle=orthogonalEdgeStyle;rounded=0;orthogonalLoop=1;jettySize=auto;html=1;" edge="1" parent="zMHJegEWsXh8E0n9ZEiD-441" source="zMHJegEWsXh8E0n9ZEiD-447" target="zMHJegEWsXh8E0n9ZEiD-450">
          <mxGeometry relative="1" as="geometry">
            <mxPoint x="920" y="80" as="targetPoint" />
          </mxGeometry>
        </mxCell>
        <mxCell id="zMHJegEWsXh8E0n9ZEiD-447" value="MST" style="rounded=1;whiteSpace=wrap;html=1;" vertex="1" parent="zMHJegEWsXh8E0n9ZEiD-441">
          <mxGeometry x="590" y="50" width="105" height="60" as="geometry" />
        </mxCell>
        <mxCell id="zMHJegEWsXh8E0n9ZEiD-448" value="" style="edgeStyle=orthogonalEdgeStyle;rounded=0;orthogonalLoop=1;jettySize=auto;html=1;" edge="1" parent="zMHJegEWsXh8E0n9ZEiD-441" source="zMHJegEWsXh8E0n9ZEiD-468" target="zMHJegEWsXh8E0n9ZEiD-447">
          <mxGeometry relative="1" as="geometry" />
        </mxCell>
        <mxCell id="zMHJegEWsXh8E0n9ZEiD-449" value="" style="edgeStyle=orthogonalEdgeStyle;rounded=0;orthogonalLoop=1;jettySize=auto;html=1;" edge="1" parent="zMHJegEWsXh8E0n9ZEiD-441" source="zMHJegEWsXh8E0n9ZEiD-450" target="zMHJegEWsXh8E0n9ZEiD-473">
          <mxGeometry relative="1" as="geometry" />
        </mxCell>
        <mxCell id="zMHJegEWsXh8E0n9ZEiD-450" value="FTB" style="rounded=1;whiteSpace=wrap;html=1;" vertex="1" parent="zMHJegEWsXh8E0n9ZEiD-441">
          <mxGeometry x="730" y="50" width="105" height="60" as="geometry" />
        </mxCell>
        <mxCell id="zMHJegEWsXh8E0n9ZEiD-451" style="edgeStyle=orthogonalEdgeStyle;rounded=0;orthogonalLoop=1;jettySize=auto;html=1;entryX=0;entryY=0.5;entryDx=0;entryDy=0;exitX=1;exitY=0.5;exitDx=0;exitDy=0;" edge="1" parent="zMHJegEWsXh8E0n9ZEiD-441" source="zMHJegEWsXh8E0n9ZEiD-473" target="zMHJegEWsXh8E0n9ZEiD-487">
          <mxGeometry relative="1" as="geometry">
            <mxPoint x="1152.5" y="130" as="sourcePoint" />
          </mxGeometry>
        </mxCell>
        <mxCell id="zMHJegEWsXh8E0n9ZEiD-452" value="" style="edgeStyle=orthogonalEdgeStyle;rounded=0;orthogonalLoop=1;jettySize=auto;html=1;entryX=0;entryY=0.5;entryDx=0;entryDy=0;" edge="1" parent="zMHJegEWsXh8E0n9ZEiD-441" source="zMHJegEWsXh8E0n9ZEiD-473" target="zMHJegEWsXh8E0n9ZEiD-482">
          <mxGeometry relative="1" as="geometry">
            <mxPoint x="1206" y="80" as="targetPoint" />
          </mxGeometry>
        </mxCell>
        <mxCell id="zMHJegEWsXh8E0n9ZEiD-453" value="QC VI" style="rounded=1;whiteSpace=wrap;html=1;" vertex="1" parent="zMHJegEWsXh8E0n9ZEiD-441">
          <mxGeometry x="1670" y="50" width="105" height="60" as="geometry" />
        </mxCell>
        <mxCell id="zMHJegEWsXh8E0n9ZEiD-454" style="edgeStyle=orthogonalEdgeStyle;rounded=0;orthogonalLoop=1;jettySize=auto;html=1;exitX=1;exitY=0.5;exitDx=0;exitDy=0;" edge="1" parent="zMHJegEWsXh8E0n9ZEiD-441" source="zMHJegEWsXh8E0n9ZEiD-477" target="zMHJegEWsXh8E0n9ZEiD-453">
          <mxGeometry relative="1" as="geometry" />
        </mxCell>
        <mxCell id="zMHJegEWsXh8E0n9ZEiD-455" style="edgeStyle=orthogonalEdgeStyle;rounded=0;orthogonalLoop=1;jettySize=auto;html=1;exitX=1;exitY=0.5;exitDx=0;exitDy=0;" edge="1" parent="zMHJegEWsXh8E0n9ZEiD-441">
          <mxGeometry relative="1" as="geometry">
            <mxPoint x="2067.5" y="80" as="sourcePoint" />
          </mxGeometry>
        </mxCell>
        <mxCell id="zMHJegEWsXh8E0n9ZEiD-456" value="SNTS 2" style="rounded=1;whiteSpace=wrap;html=1;" vertex="1" parent="zMHJegEWsXh8E0n9ZEiD-441">
          <mxGeometry x="2190" y="50" width="105" height="60" as="geometry" />
        </mxCell>
        <mxCell id="zMHJegEWsXh8E0n9ZEiD-457" value="" style="group" vertex="1" connectable="0" parent="zMHJegEWsXh8E0n9ZEiD-441">
          <mxGeometry x="10" y="50" width="150" height="99" as="geometry" />
        </mxCell>
        <mxCell id="zMHJegEWsXh8E0n9ZEiD-458" value="SNTS 1" style="rounded=1;whiteSpace=wrap;html=1;" vertex="1" parent="zMHJegEWsXh8E0n9ZEiD-457">
          <mxGeometry width="105" height="60" as="geometry" />
        </mxCell>
        <mxCell id="zMHJegEWsXh8E0n9ZEiD-459" value="&lt;ul&gt;&lt;li&gt;&lt;font color=&quot;#666666&quot;&gt;Check PCB S/N formats &amp;amp; uniqueness&lt;/font&gt;&lt;br&gt;&lt;/li&gt;&lt;/ul&gt;" style="shape=note;whiteSpace=wrap;html=1;backgroundOutline=1;darkOpacity=0.05;fontSize=10;align=left;fontFamily=Tahoma;size=10;perimeterSpacing=0;" vertex="1" parent="zMHJegEWsXh8E0n9ZEiD-457">
          <mxGeometry y="60" width="150" height="39" as="geometry" />
        </mxCell>
        <mxCell id="zMHJegEWsXh8E0n9ZEiD-460" value="" style="edgeStyle=orthogonalEdgeStyle;rounded=0;orthogonalLoop=1;jettySize=auto;html=1;" edge="1" parent="zMHJegEWsXh8E0n9ZEiD-441" source="zMHJegEWsXh8E0n9ZEiD-458" target="zMHJegEWsXh8E0n9ZEiD-462">
          <mxGeometry relative="1" as="geometry">
            <mxPoint x="130" y="80.00000000000045" as="sourcePoint" />
            <mxPoint x="170" y="80.00000000000045" as="targetPoint" />
          </mxGeometry>
        </mxCell>
        <mxCell id="zMHJegEWsXh8E0n9ZEiD-461" value="" style="group" vertex="1" connectable="0" parent="zMHJegEWsXh8E0n9ZEiD-441">
          <mxGeometry x="171" y="50" width="159" height="119.5" as="geometry" />
        </mxCell>
        <mxCell id="zMHJegEWsXh8E0n9ZEiD-462" value="ICT" style="rounded=1;whiteSpace=wrap;html=1;" vertex="1" parent="zMHJegEWsXh8E0n9ZEiD-461">
          <mxGeometry width="105" height="60" as="geometry" />
        </mxCell>
        <mxCell id="zMHJegEWsXh8E0n9ZEiD-463" value="&lt;ul&gt;&lt;li&gt;&lt;span style=&quot;color: rgb(102, 102, 102); background-color: initial;&quot;&gt;Scan port + S/N + fixture&lt;/span&gt;&lt;br&gt;&lt;/li&gt;&lt;li&gt;&lt;font color=&quot;#666666&quot;&gt;Detect shorts&lt;/font&gt;&lt;/li&gt;&lt;li&gt;&lt;font color=&quot;#666666&quot;&gt;Firmware burn in&lt;/font&gt;&lt;/li&gt;&lt;li&gt;&lt;font color=&quot;#666666&quot;&gt;Scan 99 for program&lt;/font&gt;&lt;/li&gt;&lt;/ul&gt;" style="shape=note;whiteSpace=wrap;html=1;backgroundOutline=1;darkOpacity=0.05;fontSize=10;align=left;fontFamily=Tahoma;size=10;perimeterSpacing=0;" vertex="1" parent="zMHJegEWsXh8E0n9ZEiD-461">
          <mxGeometry y="60.5" width="159" height="59" as="geometry" />
        </mxCell>
        <mxCell id="zMHJegEWsXh8E0n9ZEiD-464" value="" style="group" vertex="1" connectable="0" parent="zMHJegEWsXh8E0n9ZEiD-441">
          <mxGeometry x="341" y="50" width="130" height="90" as="geometry" />
        </mxCell>
        <mxCell id="zMHJegEWsXh8E0n9ZEiD-465" value="FTA" style="rounded=1;whiteSpace=wrap;html=1;" vertex="1" parent="zMHJegEWsXh8E0n9ZEiD-464">
          <mxGeometry width="105" height="60" as="geometry" />
        </mxCell>
        <mxCell id="zMHJegEWsXh8E0n9ZEiD-466" value="&lt;ul&gt;&lt;li&gt;&lt;font color=&quot;#666666&quot;&gt;Equipment Id + Board Id&lt;/font&gt;&lt;/li&gt;&lt;/ul&gt;" style="shape=note;whiteSpace=wrap;html=1;backgroundOutline=1;darkOpacity=0.05;fontSize=10;align=left;fontFamily=Tahoma;size=10;perimeterSpacing=0;" vertex="1" parent="zMHJegEWsXh8E0n9ZEiD-464">
          <mxGeometry y="60" width="130" height="30" as="geometry" />
        </mxCell>
        <mxCell id="zMHJegEWsXh8E0n9ZEiD-467" value="Pass" style="edgeStyle=orthogonalEdgeStyle;rounded=0;orthogonalLoop=1;jettySize=auto;html=1;" edge="1" parent="zMHJegEWsXh8E0n9ZEiD-441" source="zMHJegEWsXh8E0n9ZEiD-465" target="zMHJegEWsXh8E0n9ZEiD-447">
          <mxGeometry relative="1" as="geometry" />
        </mxCell>
        <mxCell id="zMHJegEWsXh8E0n9ZEiD-468" value="Re-FTA" style="rounded=1;whiteSpace=wrap;html=1;" vertex="1" parent="zMHJegEWsXh8E0n9ZEiD-441">
          <mxGeometry x="590" y="149" width="105" height="60" as="geometry" />
        </mxCell>
        <mxCell id="zMHJegEWsXh8E0n9ZEiD-469" value="" style="group" vertex="1" connectable="0" parent="zMHJegEWsXh8E0n9ZEiD-441">
          <mxGeometry x="450" y="149" width="130" height="100.5" as="geometry" />
        </mxCell>
        <mxCell id="zMHJegEWsXh8E0n9ZEiD-470" value="FTR" style="rounded=1;whiteSpace=wrap;html=1;" vertex="1" parent="zMHJegEWsXh8E0n9ZEiD-469">
          <mxGeometry width="105" height="60" as="geometry" />
        </mxCell>
        <mxCell id="zMHJegEWsXh8E0n9ZEiD-471" value="&lt;ul&gt;&lt;li&gt;&lt;font color=&quot;#666666&quot;&gt;FTA result has special error code&lt;/font&gt;&lt;/li&gt;&lt;li&gt;&lt;font color=&quot;#666666&quot;&gt;Reset FTA&lt;/font&gt;&lt;/li&gt;&lt;/ul&gt;" style="shape=note;whiteSpace=wrap;html=1;backgroundOutline=1;darkOpacity=0.05;fontSize=10;align=left;fontFamily=Tahoma;size=10;perimeterSpacing=0;" vertex="1" parent="zMHJegEWsXh8E0n9ZEiD-469">
          <mxGeometry y="60.5" width="130" height="40" as="geometry" />
        </mxCell>
        <mxCell id="zMHJegEWsXh8E0n9ZEiD-472" value="" style="group" vertex="1" connectable="0" parent="zMHJegEWsXh8E0n9ZEiD-441">
          <mxGeometry x="869.25" y="50" width="154" height="90" as="geometry" />
        </mxCell>
        <mxCell id="zMHJegEWsXh8E0n9ZEiD-473" value="Print Case Label" style="rounded=1;whiteSpace=wrap;html=1;" vertex="1" parent="zMHJegEWsXh8E0n9ZEiD-472">
          <mxGeometry width="105" height="60" as="geometry" />
        </mxCell>
        <mxCell id="zMHJegEWsXh8E0n9ZEiD-474" value="&lt;ul&gt;&lt;li&gt;&lt;font color=&quot;#666666&quot;&gt;WO#, S/N &amp;gt; SKU Label&lt;/font&gt;&lt;br&gt;&lt;/li&gt;&lt;/ul&gt;" style="shape=note;whiteSpace=wrap;html=1;backgroundOutline=1;darkOpacity=0.05;fontSize=10;align=left;fontFamily=Tahoma;size=10;perimeterSpacing=0;" vertex="1" parent="zMHJegEWsXh8E0n9ZEiD-472">
          <mxGeometry y="60" width="154" height="30" as="geometry" />
        </mxCell>
        <mxCell id="zMHJegEWsXh8E0n9ZEiD-475" style="edgeStyle=orthogonalEdgeStyle;rounded=0;orthogonalLoop=1;jettySize=auto;html=1;exitX=1;exitY=0.5;exitDx=0;exitDy=0;entryX=0;entryY=0.5;entryDx=0;entryDy=0;" edge="1" parent="zMHJegEWsXh8E0n9ZEiD-441" source="zMHJegEWsXh8E0n9ZEiD-482" target="zMHJegEWsXh8E0n9ZEiD-490">
          <mxGeometry relative="1" as="geometry" />
        </mxCell>
        <mxCell id="zMHJegEWsXh8E0n9ZEiD-476" style="edgeStyle=orthogonalEdgeStyle;rounded=0;orthogonalLoop=1;jettySize=auto;html=1;exitX=1;exitY=0.5;exitDx=0;exitDy=0;" edge="1" parent="zMHJegEWsXh8E0n9ZEiD-441" source="zMHJegEWsXh8E0n9ZEiD-490" target="zMHJegEWsXh8E0n9ZEiD-493">
          <mxGeometry relative="1" as="geometry" />
        </mxCell>
        <mxCell id="zMHJegEWsXh8E0n9ZEiD-477" value="QC Test" style="rounded=1;whiteSpace=wrap;html=1;" vertex="1" parent="zMHJegEWsXh8E0n9ZEiD-441">
          <mxGeometry x="1530" y="50" width="105" height="60" as="geometry" />
        </mxCell>
        <mxCell id="zMHJegEWsXh8E0n9ZEiD-478" style="edgeStyle=orthogonalEdgeStyle;rounded=0;orthogonalLoop=1;jettySize=auto;html=1;exitX=1;exitY=0.5;exitDx=0;exitDy=0;entryX=0.5;entryY=1;entryDx=0;entryDy=0;" edge="1" parent="zMHJegEWsXh8E0n9ZEiD-441" source="zMHJegEWsXh8E0n9ZEiD-487" target="zMHJegEWsXh8E0n9ZEiD-477">
          <mxGeometry relative="1" as="geometry" />
        </mxCell>
        <mxCell id="zMHJegEWsXh8E0n9ZEiD-479" style="edgeStyle=orthogonalEdgeStyle;rounded=0;orthogonalLoop=1;jettySize=auto;html=1;exitX=1;exitY=0.5;exitDx=0;exitDy=0;entryX=0;entryY=0.5;entryDx=0;entryDy=0;" edge="1" parent="zMHJegEWsXh8E0n9ZEiD-441" source="zMHJegEWsXh8E0n9ZEiD-493" target="zMHJegEWsXh8E0n9ZEiD-477">
          <mxGeometry relative="1" as="geometry" />
        </mxCell>
        <mxCell id="zMHJegEWsXh8E0n9ZEiD-480" value="" style="group" vertex="1" connectable="0" parent="zMHJegEWsXh8E0n9ZEiD-441">
          <mxGeometry x="1093" y="40" width="114" height="120" as="geometry" />
        </mxCell>
        <mxCell id="zMHJegEWsXh8E0n9ZEiD-481" value="&lt;ul&gt;&lt;li&gt;&lt;font color=&quot;#666666&quot;&gt;Single side&lt;/font&gt;&lt;br&gt;&lt;/li&gt;&lt;/ul&gt;" style="shape=note;whiteSpace=wrap;html=1;backgroundOutline=1;darkOpacity=0.05;fontSize=10;align=left;fontFamily=Tahoma;size=10;perimeterSpacing=0;" vertex="1" parent="zMHJegEWsXh8E0n9ZEiD-480">
          <mxGeometry x="9" y="70" width="100" height="30" as="geometry" />
        </mxCell>
        <mxCell id="zMHJegEWsXh8E0n9ZEiD-482" value="Thermal Paste Dispensing" style="rounded=1;whiteSpace=wrap;html=1;" vertex="1" parent="zMHJegEWsXh8E0n9ZEiD-480">
          <mxGeometry x="9" y="10" width="105" height="60" as="geometry" />
        </mxCell>
        <mxCell id="zMHJegEWsXh8E0n9ZEiD-483" value="&lt;font color=&quot;#ffffff&quot;&gt;Casing&lt;/font&gt;" style="text;html=1;strokeColor=#BD7000;fillColor=#f0a30a;align=center;verticalAlign=middle;whiteSpace=wrap;rounded=0;fontColor=#000000;" vertex="1" parent="zMHJegEWsXh8E0n9ZEiD-480">
          <mxGeometry width="42.5" height="20" as="geometry" />
        </mxCell>
        <UserObject label="📷&amp;nbsp;Thermal Paste" link="https://kingstontechnology.sharepoint.com/:i:/s/MES/EafnXTOlyNlNqttGiQEPaNQBDREptW6lJFm1tclGfz4IPQ?e=BPwuLl" linkTarget="_blank" id="zMHJegEWsXh8E0n9ZEiD-484">
          <mxCell style="dashed=0;html=1;fillColor=#F0F2F5;strokeColor=none;align=left;rounded=1;arcSize=10;fontColor=#3384FF;fontStyle=1;fontSize=11;shadow=0" vertex="1" parent="zMHJegEWsXh8E0n9ZEiD-480">
            <mxGeometry x="9" y="100" width="99" height="20" as="geometry" />
          </mxCell>
        </UserObject>
        <mxCell id="zMHJegEWsXh8E0n9ZEiD-485" value="" style="group" vertex="1" connectable="0" parent="zMHJegEWsXh8E0n9ZEiD-441">
          <mxGeometry x="1090" y="174" width="115" height="100" as="geometry" />
        </mxCell>
        <mxCell id="zMHJegEWsXh8E0n9ZEiD-486" value="&lt;ul&gt;&lt;li&gt;&lt;font color=&quot;#666666&quot;&gt;Double side&lt;/font&gt;&lt;br&gt;&lt;/li&gt;&lt;/ul&gt;" style="shape=note;whiteSpace=wrap;html=1;backgroundOutline=1;darkOpacity=0.05;fontSize=10;align=left;fontFamily=Tahoma;size=10;perimeterSpacing=0;" vertex="1" parent="zMHJegEWsXh8E0n9ZEiD-485">
          <mxGeometry x="10" y="70" width="100" height="30" as="geometry" />
        </mxCell>
        <mxCell id="zMHJegEWsXh8E0n9ZEiD-487" value="Thermal Paste&lt;br&gt;Dispensing" style="rounded=1;whiteSpace=wrap;html=1;" vertex="1" parent="zMHJegEWsXh8E0n9ZEiD-485">
          <mxGeometry x="10" y="10" width="105" height="60" as="geometry" />
        </mxCell>
        <mxCell id="zMHJegEWsXh8E0n9ZEiD-488" value="PCBA" style="text;html=1;strokeColor=#432D57;fillColor=#76608a;align=center;verticalAlign=middle;whiteSpace=wrap;rounded=0;fontColor=#ffffff;" vertex="1" parent="zMHJegEWsXh8E0n9ZEiD-485">
          <mxGeometry width="42.5" height="20" as="geometry" />
        </mxCell>
        <mxCell id="zMHJegEWsXh8E0n9ZEiD-489" value="" style="group" vertex="1" connectable="0" parent="zMHJegEWsXh8E0n9ZEiD-441">
          <mxGeometry x="1251" y="50" width="129" height="90" as="geometry" />
        </mxCell>
        <mxCell id="zMHJegEWsXh8E0n9ZEiD-490" value="Assembly Case" style="rounded=1;whiteSpace=wrap;html=1;" vertex="1" parent="zMHJegEWsXh8E0n9ZEiD-489">
          <mxGeometry width="105" height="60" as="geometry" />
        </mxCell>
        <mxCell id="zMHJegEWsXh8E0n9ZEiD-491" value="&lt;ul&gt;&lt;li&gt;&lt;font color=&quot;#666666&quot;&gt;Assy by OP&lt;/font&gt;&lt;/li&gt;&lt;li&gt;&lt;font color=&quot;#666666&quot;&gt;Screw by machine&lt;/font&gt;&lt;/li&gt;&lt;/ul&gt;" style="shape=note;whiteSpace=wrap;html=1;backgroundOutline=1;darkOpacity=0.05;fontSize=10;align=left;fontFamily=Tahoma;size=10;perimeterSpacing=0;" vertex="1" parent="zMHJegEWsXh8E0n9ZEiD-489">
          <mxGeometry y="60" width="129" height="30" as="geometry" />
        </mxCell>
        <mxCell id="zMHJegEWsXh8E0n9ZEiD-492" value="" style="group" vertex="1" connectable="0" parent="zMHJegEWsXh8E0n9ZEiD-441">
          <mxGeometry x="1392.5" y="50" width="105" height="90" as="geometry" />
        </mxCell>
        <mxCell id="zMHJegEWsXh8E0n9ZEiD-493" value="Paste Case Label" style="rounded=1;whiteSpace=wrap;html=1;" vertex="1" parent="zMHJegEWsXh8E0n9ZEiD-492">
          <mxGeometry width="105" height="60" as="geometry" />
        </mxCell>
        <mxCell id="zMHJegEWsXh8E0n9ZEiD-494" value="&lt;ul&gt;&lt;li&gt;&lt;font color=&quot;#666666&quot;&gt;By OP&lt;/font&gt;&lt;/li&gt;&lt;li&gt;&lt;font color=&quot;#666666&quot;&gt;Include VI&lt;/font&gt;&lt;/li&gt;&lt;/ul&gt;" style="shape=note;whiteSpace=wrap;html=1;backgroundOutline=1;darkOpacity=0.05;fontSize=10;align=left;fontFamily=Tahoma;size=10;perimeterSpacing=0;" vertex="1" parent="zMHJegEWsXh8E0n9ZEiD-492">
          <mxGeometry y="60" width="97.5" height="30" as="geometry" />
        </mxCell>
        <mxCell id="zMHJegEWsXh8E0n9ZEiD-495" value="&lt;ul&gt;&lt;li&gt;&lt;font color=&quot;#666666&quot;&gt;The screwing, labeling and QC testing will completed by machines in the future&lt;/font&gt;&lt;br&gt;&lt;/li&gt;&lt;/ul&gt;" style="shape=note;whiteSpace=wrap;html=1;backgroundOutline=1;darkOpacity=0.05;fontSize=10;align=left;fontFamily=Tahoma;size=10;perimeterSpacing=0;" vertex="1" parent="zMHJegEWsXh8E0n9ZEiD-441">
          <mxGeometry x="1251" y="143" width="289" height="46" as="geometry" />
        </mxCell>
        <mxCell id="zMHJegEWsXh8E0n9ZEiD-496" value="QA Gate" style="swimlane;fontFamily=Tahoma;fontSize=10;" vertex="1" parent="zMHJegEWsXh8E0n9ZEiD-441">
          <mxGeometry x="1820" y="29" width="300" height="120" as="geometry">
            <mxRectangle x="1340" y="42.5" width="80" height="30" as="alternateBounds" />
          </mxGeometry>
        </mxCell>
        <mxCell id="zMHJegEWsXh8E0n9ZEiD-497" value="" style="edgeStyle=orthogonalEdgeStyle;rounded=0;orthogonalLoop=1;jettySize=auto;html=1;fontFamily=Tahoma;fontSize=10;" edge="1" parent="zMHJegEWsXh8E0n9ZEiD-496" source="zMHJegEWsXh8E0n9ZEiD-499" target="zMHJegEWsXh8E0n9ZEiD-498">
          <mxGeometry relative="1" as="geometry">
            <mxPoint x="170" y="85" as="targetPoint" />
          </mxGeometry>
        </mxCell>
        <mxCell id="zMHJegEWsXh8E0n9ZEiD-498" value="QA VI" style="rounded=1;whiteSpace=wrap;html=1;absoluteArcSize=1;arcSize=14;strokeWidth=2;" vertex="1" parent="zMHJegEWsXh8E0n9ZEiD-496">
          <mxGeometry x="175" y="40" width="100" height="60" as="geometry" />
        </mxCell>
        <mxCell id="zMHJegEWsXh8E0n9ZEiD-499" value="QA Test" style="rounded=1;whiteSpace=wrap;html=1;absoluteArcSize=1;arcSize=14;strokeWidth=2;" vertex="1" parent="zMHJegEWsXh8E0n9ZEiD-496">
          <mxGeometry x="20" y="40" width="100" height="60" as="geometry" />
        </mxCell>
        <mxCell id="zMHJegEWsXh8E0n9ZEiD-500" style="edgeStyle=orthogonalEdgeStyle;rounded=0;orthogonalLoop=1;jettySize=auto;html=1;" edge="1" parent="zMHJegEWsXh8E0n9ZEiD-441" source="zMHJegEWsXh8E0n9ZEiD-498" target="zMHJegEWsXh8E0n9ZEiD-456">
          <mxGeometry relative="1" as="geometry" />
        </mxCell>
        <mxCell id="zMHJegEWsXh8E0n9ZEiD-501" style="edgeStyle=orthogonalEdgeStyle;rounded=0;orthogonalLoop=1;jettySize=auto;html=1;exitX=1;exitY=0.5;exitDx=0;exitDy=0;" edge="1" parent="zMHJegEWsXh8E0n9ZEiD-441" source="zMHJegEWsXh8E0n9ZEiD-453" target="zMHJegEWsXh8E0n9ZEiD-499">
          <mxGeometry relative="1" as="geometry" />
        </mxCell>
        <UserObject label="📷&amp;nbsp;Assy &amp;amp; Label" link="https://kingstontechnology.sharepoint.com/:i:/s/MES/EeMQEwJiv69DlcTBYzkUQGcBXAb5i5SEhtCtgLZpw_poXA?e=GTZuGS" linkTarget="_blank" id="zMHJegEWsXh8E0n9ZEiD-502">
          <mxCell style="dashed=0;html=1;fillColor=#F0F2F5;strokeColor=none;align=left;rounded=1;arcSize=10;fontColor=#3384FF;fontStyle=1;fontSize=11;shadow=0" vertex="1" parent="zMHJegEWsXh8E0n9ZEiD-441">
            <mxGeometry x="1251" y="189" width="99" height="20" as="geometry" />
          </mxCell>
        </UserObject>
        <UserObject label="📷 TC" link="https://kingstontechnology.sharepoint.com/:i:/s/MES/EX1FHb92bWBPviZD8CExLgUBTPcy7HkTjbTos4EtnsJGWg?e=XiVotr" linkTarget="_blank" id="zMHJegEWsXh8E0n9ZEiD-503">
          <mxCell style="dashed=0;html=1;fillColor=#F0F2F5;strokeColor=none;align=center;rounded=1;arcSize=10;fontColor=#3384FF;fontStyle=1;fontSize=11;shadow=0" vertex="1" parent="WIyWlLk6GJQsqaUBKTNV-1">
            <mxGeometry x="1079" y="1487" width="60" height="20" as="geometry" />
          </mxCell>
        </UserObject>
        <UserObject label="📷 TC" link="https://kingstontechnology.sharepoint.com/:i:/s/MES/EQ20HJpRWWxHuyBOwkw0ba0BCJdf40lzeC0mrT2_hNidWg?e=BXWTrG" linkTarget="_blank" id="zMHJegEWsXh8E0n9ZEiD-504">
          <mxCell style="dashed=0;html=1;fillColor=#F0F2F5;strokeColor=none;align=center;rounded=1;arcSize=10;fontColor=#3384FF;fontStyle=1;fontSize=11;shadow=0" vertex="1" parent="WIyWlLk6GJQsqaUBKTNV-1">
            <mxGeometry x="1080" y="1838" width="60" height="20" as="geometry" />
          </mxCell>
        </UserObject>
        <mxCell id="zMHJegEWsXh8E0n9ZEiD-505" value="" style="group" vertex="1" connectable="0" parent="WIyWlLk6GJQsqaUBKTNV-1">
          <mxGeometry x="1070" y="2221" width="140" height="60" as="geometry" />
        </mxCell>
        <UserObject label="📷 TC - Phiomia w/o Case" link="https://kingstontechnology.sharepoint.com/:i:/s/MES/Ece3luNmtz1BmHA6w6XbXeIBtsXdYcqOtb2lkddMQ-Yx7w?e=oHHg3j" linkTarget="_blank" id="zMHJegEWsXh8E0n9ZEiD-506">
          <mxCell style="dashed=0;html=1;fillColor=#F0F2F5;strokeColor=none;align=left;rounded=1;arcSize=10;fontColor=#3384FF;fontStyle=1;fontSize=11;shadow=0" vertex="1" parent="zMHJegEWsXh8E0n9ZEiD-505">
            <mxGeometry y="20" width="140" height="20" as="geometry" />
          </mxCell>
        </UserObject>
        <UserObject label="📷 TC - Phiomia w/ Case" link="https://kingstontechnology.sharepoint.com/:i:/s/MES/EZOXDLOMUk9KoMfoKARti9cBW2jhu_KdmbkpxN731ttwjg?e=cjjWsq" linkTarget="_blank" id="zMHJegEWsXh8E0n9ZEiD-507">
          <mxCell style="dashed=0;html=1;fillColor=#F0F2F5;strokeColor=none;align=left;rounded=1;arcSize=10;fontColor=#3384FF;fontStyle=1;fontSize=11;shadow=0" vertex="1" parent="zMHJegEWsXh8E0n9ZEiD-505">
            <mxGeometry width="140" height="20" as="geometry" />
          </mxCell>
        </UserObject>
        <UserObject label="📷 TC - Warthog" link="https://kingstontechnology.sharepoint.com/:i:/s/MES/EU0ODBr6KT9FhoGDXkKm2QcBDdTS4r-Wo1-VBuifGX342Q?e=jzgECk" linkTarget="_blank" id="zMHJegEWsXh8E0n9ZEiD-508">
          <mxCell style="dashed=0;html=1;fillColor=#F0F2F5;strokeColor=none;align=left;rounded=1;arcSize=10;fontColor=#3384FF;fontStyle=1;fontSize=11;shadow=0" vertex="1" parent="zMHJegEWsXh8E0n9ZEiD-505">
            <mxGeometry y="40" width="140" height="20" as="geometry" />
          </mxCell>
        </UserObject>
        <mxCell id="zMHJegEWsXh8E0n9ZEiD-509" style="edgeStyle=orthogonalEdgeStyle;rounded=0;orthogonalLoop=1;jettySize=auto;html=1;" edge="1" parent="WIyWlLk6GJQsqaUBKTNV-1" source="zMHJegEWsXh8E0n9ZEiD-24" target="zMHJegEWsXh8E0n9ZEiD-512">
          <mxGeometry relative="1" as="geometry">
            <Array as="points">
              <mxPoint x="930" y="2810" />
            </Array>
          </mxGeometry>
        </mxCell>
        <mxCell id="zMHJegEWsXh8E0n9ZEiD-510" value="CM - Apricot" style="edgeLabel;html=1;align=center;verticalAlign=middle;resizable=0;points=[];" vertex="1" connectable="0" parent="zMHJegEWsXh8E0n9ZEiD-509">
          <mxGeometry x="0.9059" y="7" relative="1" as="geometry">
            <mxPoint x="28" y="7" as="offset" />
          </mxGeometry>
        </mxCell>
        <mxCell id="zMHJegEWsXh8E0n9ZEiD-511" style="edgeStyle=orthogonalEdgeStyle;rounded=0;orthogonalLoop=1;jettySize=auto;html=1;" edge="1" parent="WIyWlLk6GJQsqaUBKTNV-1" source="zMHJegEWsXh8E0n9ZEiD-512" target="zMHJegEWsXh8E0n9ZEiD-458">
          <mxGeometry relative="1" as="geometry" />
        </mxCell>
        <UserObject label="📷 TC" link="https://kingstontechnology.sharepoint.com/:i:/s/MES/EfyAkSRcG9FCsXDRZ23QG4ABGHsoSyZenIEJxooC8k4ELQ?e=dfTyZr" linkTarget="_blank" id="zMHJegEWsXh8E0n9ZEiD-512">
          <mxCell style="dashed=0;html=1;fillColor=#F0F2F5;strokeColor=none;align=center;rounded=1;arcSize=10;fontColor=#3384FF;fontStyle=1;fontSize=11;shadow=0" vertex="1" parent="WIyWlLk6GJQsqaUBKTNV-1">
            <mxGeometry x="1070" y="2800" width="60" height="20" as="geometry" />
          </mxCell>
        </UserObject>
      </root>
    </mxGraphModel>
  </diagram>
</mxfile>
